G75*
G70*
%OFA0B0*%
%FSLAX24Y24*%
%IPPOS*%
%LPD*%
%AMOC8*
5,1,8,0,0,1.08239X$1,22.5*
%
%ADD10R,0.1063X0.2500*%
%ADD11R,0.0500X0.1500*%
%ADD12R,0.1875X0.0750*%
%ADD13R,0.0187X0.0375*%
%ADD14R,0.0250X0.0375*%
%ADD15C,0.0177*%
%ADD16C,0.0188*%
%ADD17C,0.0600*%
%ADD18C,0.0178*%
%ADD19C,0.0183*%
%ADD20C,0.0155*%
%ADD21C,0.0180*%
%ADD22R,0.0656X0.0656*%
%ADD23OC8,0.0740*%
%ADD24C,0.1280*%
%ADD25C,0.2471*%
%ADD26C,0.0201*%
%ADD27C,0.0170*%
%ADD28C,0.0720*%
%ADD29C,0.0181*%
%ADD30C,0.0880*%
%ADD31C,0.0768*%
%ADD32C,0.0194*%
%ADD33C,0.0179*%
%ADD34C,0.0177*%
%ADD35OC8,0.0640*%
%ADD36C,0.0215*%
%ADD37C,0.0184*%
%ADD38OC8,0.0720*%
%ADD39OC8,0.0880*%
%ADD40C,0.0640*%
%ADD41C,0.0740*%
%ADD42C,0.2080*%
%ADD43OC8,0.0656*%
%ADD44R,0.0740X0.0740*%
%ADD45R,0.0720X0.0720*%
%ADD46R,0.0750X0.0750*%
%ADD47C,0.0812*%
%ADD48C,0.0174*%
%ADD49C,0.0219*%
%ADD50C,0.0372*%
%ADD51C,0.0173*%
%ADD52C,0.0180*%
%ADD53OC8,0.0930*%
%ADD54R,0.0930X0.0930*%
%ADD55C,0.1330*%
%ADD56C,0.1430*%
%ADD57C,0.0173*%
%ADD58C,0.0200*%
%ADD59R,0.0400X0.1750*%
%ADD60C,0.0480*%
D10*
X030321Y011325D03*
D11*
X014915Y022137D03*
D12*
X031477Y022512D03*
D13*
X019696Y019262D03*
D14*
X050477Y019700D03*
D15*
X024773Y024870D02*
X024773Y026308D01*
X025307Y026308D01*
X025307Y024870D01*
X024773Y024870D01*
X024773Y025046D02*
X025307Y025046D01*
X025307Y025222D02*
X024773Y025222D01*
X024773Y025398D02*
X025307Y025398D01*
X025307Y025574D02*
X024773Y025574D01*
X024773Y025750D02*
X025307Y025750D01*
X025307Y025926D02*
X024773Y025926D01*
X024773Y026102D02*
X025307Y026102D01*
X025307Y026278D02*
X024773Y026278D01*
X020398Y026308D02*
X020398Y024870D01*
X020398Y026308D02*
X020932Y026308D01*
X020932Y024870D01*
X020398Y024870D01*
X020398Y025046D02*
X020932Y025046D01*
X020932Y025222D02*
X020398Y025222D01*
X020398Y025398D02*
X020932Y025398D01*
X020932Y025574D02*
X020398Y025574D01*
X020398Y025750D02*
X020932Y025750D01*
X020932Y025926D02*
X020398Y025926D01*
X020398Y026102D02*
X020932Y026102D01*
X020932Y026278D02*
X020398Y026278D01*
X017359Y026995D02*
X017359Y027529D01*
X017971Y027529D01*
X017971Y026995D01*
X017359Y026995D01*
X017359Y027171D02*
X017971Y027171D01*
X017971Y027347D02*
X017359Y027347D01*
X017359Y027523D02*
X017971Y027523D01*
X017359Y028245D02*
X017359Y028779D01*
X017971Y028779D01*
X017971Y028245D01*
X017359Y028245D01*
X017359Y028421D02*
X017971Y028421D01*
X017971Y028597D02*
X017359Y028597D01*
X017359Y028773D02*
X017971Y028773D01*
X016096Y028779D02*
X016096Y028245D01*
X015484Y028245D01*
X015484Y028779D01*
X016096Y028779D01*
X016096Y028421D02*
X015484Y028421D01*
X015484Y028597D02*
X016096Y028597D01*
X016096Y028773D02*
X015484Y028773D01*
X016096Y027529D02*
X016096Y026995D01*
X015484Y026995D01*
X015484Y027529D01*
X016096Y027529D01*
X016096Y027171D02*
X015484Y027171D01*
X015484Y027347D02*
X016096Y027347D01*
X016096Y027523D02*
X015484Y027523D01*
X011283Y028245D02*
X011283Y028779D01*
X011283Y028245D02*
X010671Y028245D01*
X010671Y028779D01*
X011283Y028779D01*
X011283Y028421D02*
X010671Y028421D01*
X010671Y028597D02*
X011283Y028597D01*
X011283Y028773D02*
X010671Y028773D01*
X011283Y029495D02*
X011283Y030029D01*
X011283Y029495D02*
X010671Y029495D01*
X010671Y030029D01*
X011283Y030029D01*
X011283Y029671D02*
X010671Y029671D01*
X010671Y029847D02*
X011283Y029847D01*
X011283Y030023D02*
X010671Y030023D01*
X010057Y027456D02*
X009523Y027456D01*
X009523Y028068D01*
X010057Y028068D01*
X010057Y027456D01*
X010057Y027632D02*
X009523Y027632D01*
X009523Y027808D02*
X010057Y027808D01*
X010057Y027984D02*
X009523Y027984D01*
X008807Y027456D02*
X008273Y027456D01*
X008273Y028068D01*
X008807Y028068D01*
X008807Y027456D01*
X008807Y027632D02*
X008273Y027632D01*
X008273Y027808D02*
X008807Y027808D01*
X008807Y027984D02*
X008273Y027984D01*
X020398Y028217D02*
X020398Y029655D01*
X020932Y029655D01*
X020932Y028217D01*
X020398Y028217D01*
X020398Y028393D02*
X020932Y028393D01*
X020932Y028569D02*
X020398Y028569D01*
X020398Y028745D02*
X020932Y028745D01*
X020932Y028921D02*
X020398Y028921D01*
X020398Y029097D02*
X020932Y029097D01*
X020932Y029273D02*
X020398Y029273D01*
X020398Y029449D02*
X020932Y029449D01*
X020932Y029625D02*
X020398Y029625D01*
X024773Y029655D02*
X024773Y028217D01*
X024773Y029655D02*
X025307Y029655D01*
X025307Y028217D01*
X024773Y028217D01*
X024773Y028393D02*
X025307Y028393D01*
X025307Y028569D02*
X024773Y028569D01*
X024773Y028745D02*
X025307Y028745D01*
X025307Y028921D02*
X024773Y028921D01*
X024773Y029097D02*
X025307Y029097D01*
X025307Y029273D02*
X024773Y029273D01*
X024773Y029449D02*
X025307Y029449D01*
X025307Y029625D02*
X024773Y029625D01*
X011057Y014495D02*
X010523Y014495D01*
X011057Y014495D02*
X011057Y013529D01*
X010523Y013529D01*
X010523Y014495D01*
X010523Y013705D02*
X011057Y013705D01*
X011057Y013881D02*
X010523Y013881D01*
X010523Y014057D02*
X011057Y014057D01*
X011057Y014233D02*
X010523Y014233D01*
X010523Y014409D02*
X011057Y014409D01*
X009807Y014495D02*
X009273Y014495D01*
X009807Y014495D02*
X009807Y013529D01*
X009273Y013529D01*
X009273Y014495D01*
X009273Y013705D02*
X009807Y013705D01*
X009807Y013881D02*
X009273Y013881D01*
X009273Y014057D02*
X009807Y014057D01*
X009807Y014233D02*
X009273Y014233D01*
X009273Y014409D02*
X009807Y014409D01*
D16*
X016795Y014066D02*
X017159Y014066D01*
X017159Y013584D01*
X016795Y013584D01*
X016795Y014066D01*
X016795Y013771D02*
X017159Y013771D01*
X017159Y013958D02*
X016795Y013958D01*
X017545Y014066D02*
X017909Y014066D01*
X017909Y013584D01*
X017545Y013584D01*
X017545Y014066D01*
X017545Y013771D02*
X017909Y013771D01*
X017909Y013958D02*
X017545Y013958D01*
X017545Y013191D02*
X017909Y013191D01*
X017909Y012709D01*
X017545Y012709D01*
X017545Y013191D01*
X017545Y012896D02*
X017909Y012896D01*
X017909Y013083D02*
X017545Y013083D01*
X017159Y013191D02*
X016795Y013191D01*
X017159Y013191D02*
X017159Y012709D01*
X016795Y012709D01*
X016795Y013191D01*
X016795Y012896D02*
X017159Y012896D01*
X017159Y013083D02*
X016795Y013083D01*
X017108Y011628D02*
X017472Y011628D01*
X017472Y011146D01*
X017108Y011146D01*
X017108Y011628D01*
X017108Y011333D02*
X017472Y011333D01*
X017472Y011520D02*
X017108Y011520D01*
X017858Y011628D02*
X018222Y011628D01*
X018222Y011146D01*
X017858Y011146D01*
X017858Y011628D01*
X017858Y011333D02*
X018222Y011333D01*
X018222Y011520D02*
X017858Y011520D01*
X017858Y010334D02*
X018222Y010334D01*
X017858Y010334D02*
X017858Y010816D01*
X018222Y010816D01*
X018222Y010334D01*
X018222Y010521D02*
X017858Y010521D01*
X017858Y010708D02*
X018222Y010708D01*
X017472Y010334D02*
X017108Y010334D01*
X017108Y010816D01*
X017472Y010816D01*
X017472Y010334D01*
X017472Y010521D02*
X017108Y010521D01*
X017108Y010708D02*
X017472Y010708D01*
X013597Y007753D02*
X013233Y007753D01*
X013597Y007753D02*
X013597Y007271D01*
X013233Y007271D01*
X013233Y007753D01*
X013233Y007458D02*
X013597Y007458D01*
X013597Y007645D02*
X013233Y007645D01*
X012847Y007753D02*
X012483Y007753D01*
X012847Y007753D02*
X012847Y007271D01*
X012483Y007271D01*
X012483Y007753D01*
X012483Y007458D02*
X012847Y007458D01*
X012847Y007645D02*
X012483Y007645D01*
X010472Y007753D02*
X010108Y007753D01*
X010472Y007753D02*
X010472Y007271D01*
X010108Y007271D01*
X010108Y007753D01*
X010108Y007458D02*
X010472Y007458D01*
X010472Y007645D02*
X010108Y007645D01*
X009722Y007753D02*
X009358Y007753D01*
X009722Y007753D02*
X009722Y007271D01*
X009358Y007271D01*
X009358Y007753D01*
X009358Y007458D02*
X009722Y007458D01*
X009722Y007645D02*
X009358Y007645D01*
X009358Y006021D02*
X009722Y006021D01*
X009358Y006021D02*
X009358Y006503D01*
X009722Y006503D01*
X009722Y006021D01*
X009722Y006208D02*
X009358Y006208D01*
X009358Y006395D02*
X009722Y006395D01*
X010108Y006021D02*
X010472Y006021D01*
X010108Y006021D02*
X010108Y006503D01*
X010472Y006503D01*
X010472Y006021D01*
X010472Y006208D02*
X010108Y006208D01*
X010108Y006395D02*
X010472Y006395D01*
X014608Y006503D02*
X014972Y006503D01*
X014972Y006021D01*
X014608Y006021D01*
X014608Y006503D01*
X014608Y006208D02*
X014972Y006208D01*
X014972Y006395D02*
X014608Y006395D01*
X015358Y006503D02*
X015722Y006503D01*
X015722Y006021D01*
X015358Y006021D01*
X015358Y006503D01*
X015358Y006208D02*
X015722Y006208D01*
X015722Y006395D02*
X015358Y006395D01*
X015358Y004896D02*
X015722Y004896D01*
X015358Y004896D02*
X015358Y005378D01*
X015722Y005378D01*
X015722Y004896D01*
X015722Y005083D02*
X015358Y005083D01*
X015358Y005270D02*
X015722Y005270D01*
X014972Y004896D02*
X014608Y004896D01*
X014608Y005378D01*
X014972Y005378D01*
X014972Y004896D01*
X014972Y005083D02*
X014608Y005083D01*
X014608Y005270D02*
X014972Y005270D01*
X016483Y003646D02*
X016847Y003646D01*
X016483Y003646D02*
X016483Y004128D01*
X016847Y004128D01*
X016847Y003646D01*
X016847Y003833D02*
X016483Y003833D01*
X016483Y004020D02*
X016847Y004020D01*
X017233Y003646D02*
X017597Y003646D01*
X017233Y003646D02*
X017233Y004128D01*
X017597Y004128D01*
X017597Y003646D01*
X017597Y003833D02*
X017233Y003833D01*
X017233Y004020D02*
X017597Y004020D01*
X017597Y002396D02*
X017233Y002396D01*
X017233Y002878D01*
X017597Y002878D01*
X017597Y002396D01*
X017597Y002583D02*
X017233Y002583D01*
X017233Y002770D02*
X017597Y002770D01*
X016847Y002396D02*
X016483Y002396D01*
X016483Y002878D01*
X016847Y002878D01*
X016847Y002396D01*
X016847Y002583D02*
X016483Y002583D01*
X016483Y002770D02*
X016847Y002770D01*
X022781Y005143D02*
X022781Y005507D01*
X022781Y005143D02*
X022299Y005143D01*
X022299Y005507D01*
X022781Y005507D01*
X022781Y005330D02*
X022299Y005330D01*
X022781Y005893D02*
X022781Y006257D01*
X022781Y005893D02*
X022299Y005893D01*
X022299Y006257D01*
X022781Y006257D01*
X022781Y006080D02*
X022299Y006080D01*
X023781Y006257D02*
X023781Y005893D01*
X023299Y005893D01*
X023299Y006257D01*
X023781Y006257D01*
X023781Y006080D02*
X023299Y006080D01*
X023781Y005507D02*
X023781Y005143D01*
X023299Y005143D01*
X023299Y005507D01*
X023781Y005507D01*
X023781Y005330D02*
X023299Y005330D01*
X024781Y005507D02*
X024781Y005143D01*
X024299Y005143D01*
X024299Y005507D01*
X024781Y005507D01*
X024781Y005330D02*
X024299Y005330D01*
X024781Y005893D02*
X024781Y006257D01*
X024781Y005893D02*
X024299Y005893D01*
X024299Y006257D01*
X024781Y006257D01*
X024781Y006080D02*
X024299Y006080D01*
X025545Y004896D02*
X025909Y004896D01*
X025545Y004896D02*
X025545Y005378D01*
X025909Y005378D01*
X025909Y004896D01*
X025909Y005083D02*
X025545Y005083D01*
X025545Y005270D02*
X025909Y005270D01*
X026295Y004896D02*
X026659Y004896D01*
X026295Y004896D02*
X026295Y005378D01*
X026659Y005378D01*
X026659Y004896D01*
X026659Y005083D02*
X026295Y005083D01*
X026295Y005270D02*
X026659Y005270D01*
X027608Y005378D02*
X027972Y005378D01*
X027972Y004896D01*
X027608Y004896D01*
X027608Y005378D01*
X027608Y005083D02*
X027972Y005083D01*
X027972Y005270D02*
X027608Y005270D01*
X028358Y005378D02*
X028722Y005378D01*
X028722Y004896D01*
X028358Y004896D01*
X028358Y005378D01*
X028358Y005083D02*
X028722Y005083D01*
X028722Y005270D02*
X028358Y005270D01*
X029358Y004896D02*
X029722Y004896D01*
X029358Y004896D02*
X029358Y005378D01*
X029722Y005378D01*
X029722Y004896D01*
X029722Y005083D02*
X029358Y005083D01*
X029358Y005270D02*
X029722Y005270D01*
X030108Y004896D02*
X030472Y004896D01*
X030108Y004896D02*
X030108Y005378D01*
X030472Y005378D01*
X030472Y004896D01*
X030472Y005083D02*
X030108Y005083D01*
X030108Y005270D02*
X030472Y005270D01*
X030472Y006339D02*
X030108Y006339D01*
X030472Y006339D02*
X030472Y005935D01*
X030108Y005935D01*
X030108Y006339D01*
X030108Y006122D02*
X030472Y006122D01*
X030472Y006309D02*
X030108Y006309D01*
X029722Y006339D02*
X029358Y006339D01*
X029722Y006339D02*
X029722Y005935D01*
X029358Y005935D01*
X029358Y006339D01*
X029358Y006122D02*
X029722Y006122D01*
X029722Y006309D02*
X029358Y006309D01*
X028097Y007146D02*
X027733Y007146D01*
X027733Y007628D01*
X028097Y007628D01*
X028097Y007146D01*
X028097Y007333D02*
X027733Y007333D01*
X027733Y007520D02*
X028097Y007520D01*
X027347Y007146D02*
X026983Y007146D01*
X026983Y007628D01*
X027347Y007628D01*
X027347Y007146D01*
X027347Y007333D02*
X026983Y007333D01*
X026983Y007520D02*
X027347Y007520D01*
X026659Y007146D02*
X026295Y007146D01*
X026295Y007628D01*
X026659Y007628D01*
X026659Y007146D01*
X026659Y007333D02*
X026295Y007333D01*
X026295Y007520D02*
X026659Y007520D01*
X025909Y007146D02*
X025545Y007146D01*
X025545Y007628D01*
X025909Y007628D01*
X025909Y007146D01*
X025909Y007333D02*
X025545Y007333D01*
X025545Y007520D02*
X025909Y007520D01*
X027733Y009952D02*
X028097Y009952D01*
X027733Y009952D02*
X027733Y010434D01*
X028097Y010434D01*
X028097Y009952D01*
X028097Y010139D02*
X027733Y010139D01*
X027733Y010326D02*
X028097Y010326D01*
X028483Y009952D02*
X028847Y009952D01*
X028483Y009952D02*
X028483Y010434D01*
X028847Y010434D01*
X028847Y009952D01*
X028847Y010139D02*
X028483Y010139D01*
X028483Y010326D02*
X028847Y010326D01*
X031424Y011455D02*
X031424Y011819D01*
X031906Y011819D01*
X031906Y011455D01*
X031424Y011455D01*
X031424Y011642D02*
X031906Y011642D01*
X032424Y011819D02*
X032424Y011455D01*
X032424Y011819D02*
X032906Y011819D01*
X032906Y011455D01*
X032424Y011455D01*
X032424Y011642D02*
X032906Y011642D01*
X033906Y011819D02*
X033906Y011455D01*
X033424Y011455D01*
X033424Y011819D01*
X033906Y011819D01*
X033906Y011642D02*
X033424Y011642D01*
X033906Y012205D02*
X033906Y012569D01*
X033906Y012205D02*
X033424Y012205D01*
X033424Y012569D01*
X033906Y012569D01*
X033906Y012392D02*
X033424Y012392D01*
X032424Y012569D02*
X032424Y012205D01*
X032424Y012569D02*
X032906Y012569D01*
X032906Y012205D01*
X032424Y012205D01*
X032424Y012392D02*
X032906Y012392D01*
X031424Y012569D02*
X031424Y012205D01*
X031424Y012569D02*
X031906Y012569D01*
X031906Y012205D01*
X031424Y012205D01*
X031424Y012392D02*
X031906Y012392D01*
X028847Y012202D02*
X028483Y012202D01*
X028483Y012684D01*
X028847Y012684D01*
X028847Y012202D01*
X028847Y012389D02*
X028483Y012389D01*
X028483Y012576D02*
X028847Y012576D01*
X028097Y012202D02*
X027733Y012202D01*
X027733Y012684D01*
X028097Y012684D01*
X028097Y012202D01*
X028097Y012389D02*
X027733Y012389D01*
X027733Y012576D02*
X028097Y012576D01*
X028097Y013753D02*
X027733Y013753D01*
X028097Y013753D02*
X028097Y013271D01*
X027733Y013271D01*
X027733Y013753D01*
X027733Y013458D02*
X028097Y013458D01*
X028097Y013645D02*
X027733Y013645D01*
X028483Y013753D02*
X028847Y013753D01*
X028847Y013271D01*
X028483Y013271D01*
X028483Y013753D01*
X028483Y013458D02*
X028847Y013458D01*
X028847Y013645D02*
X028483Y013645D01*
X027906Y016830D02*
X027906Y017194D01*
X027906Y016830D02*
X027424Y016830D01*
X027424Y017194D01*
X027906Y017194D01*
X027906Y017017D02*
X027424Y017017D01*
X027906Y017580D02*
X027906Y017944D01*
X027906Y017580D02*
X027424Y017580D01*
X027424Y017944D01*
X027906Y017944D01*
X027906Y017767D02*
X027424Y017767D01*
X027156Y019455D02*
X027156Y019819D01*
X027156Y019455D02*
X026674Y019455D01*
X026674Y019819D01*
X027156Y019819D01*
X027156Y019642D02*
X026674Y019642D01*
X027156Y020205D02*
X027156Y020569D01*
X027156Y020205D02*
X026674Y020205D01*
X026674Y020569D01*
X027156Y020569D01*
X027156Y020392D02*
X026674Y020392D01*
X028406Y020569D02*
X028406Y020205D01*
X027924Y020205D01*
X027924Y020569D01*
X028406Y020569D01*
X028406Y020392D02*
X027924Y020392D01*
X028406Y019819D02*
X028406Y019455D01*
X027924Y019455D01*
X027924Y019819D01*
X028406Y019819D01*
X028406Y019642D02*
X027924Y019642D01*
X029656Y019819D02*
X029656Y019455D01*
X029174Y019455D01*
X029174Y019819D01*
X029656Y019819D01*
X029656Y019642D02*
X029174Y019642D01*
X029656Y020205D02*
X029656Y020569D01*
X029656Y020205D02*
X029174Y020205D01*
X029174Y020569D01*
X029656Y020569D01*
X029656Y020392D02*
X029174Y020392D01*
X029174Y021455D02*
X029174Y021819D01*
X029656Y021819D01*
X029656Y021455D01*
X029174Y021455D01*
X029174Y021642D02*
X029656Y021642D01*
X029174Y022205D02*
X029174Y022569D01*
X029656Y022569D01*
X029656Y022205D01*
X029174Y022205D01*
X029174Y022392D02*
X029656Y022392D01*
X028406Y022569D02*
X028406Y022205D01*
X027924Y022205D01*
X027924Y022569D01*
X028406Y022569D01*
X028406Y022392D02*
X027924Y022392D01*
X028406Y021819D02*
X028406Y021455D01*
X027924Y021455D01*
X027924Y021819D01*
X028406Y021819D01*
X028406Y021642D02*
X027924Y021642D01*
X027156Y021819D02*
X027156Y021455D01*
X026674Y021455D01*
X026674Y021819D01*
X027156Y021819D01*
X027156Y021642D02*
X026674Y021642D01*
X027156Y022205D02*
X027156Y022569D01*
X027156Y022205D02*
X026674Y022205D01*
X026674Y022569D01*
X027156Y022569D01*
X027156Y022392D02*
X026674Y022392D01*
X022722Y022146D02*
X022358Y022146D01*
X022358Y022628D01*
X022722Y022628D01*
X022722Y022146D01*
X022722Y022333D02*
X022358Y022333D01*
X022358Y022520D02*
X022722Y022520D01*
X021972Y022146D02*
X021608Y022146D01*
X021608Y022628D01*
X021972Y022628D01*
X021972Y022146D01*
X021972Y022333D02*
X021608Y022333D01*
X021608Y022520D02*
X021972Y022520D01*
X021972Y021396D02*
X021608Y021396D01*
X021608Y021878D01*
X021972Y021878D01*
X021972Y021396D01*
X021972Y021583D02*
X021608Y021583D01*
X021608Y021770D02*
X021972Y021770D01*
X022358Y021396D02*
X022722Y021396D01*
X022358Y021396D02*
X022358Y021878D01*
X022722Y021878D01*
X022722Y021396D01*
X022722Y021583D02*
X022358Y021583D01*
X022358Y021770D02*
X022722Y021770D01*
X022722Y020646D02*
X022358Y020646D01*
X022358Y021128D01*
X022722Y021128D01*
X022722Y020646D01*
X022722Y020833D02*
X022358Y020833D01*
X022358Y021020D02*
X022722Y021020D01*
X021972Y020646D02*
X021608Y020646D01*
X021608Y021128D01*
X021972Y021128D01*
X021972Y020646D01*
X021972Y020833D02*
X021608Y020833D01*
X021608Y021020D02*
X021972Y021020D01*
X020472Y018003D02*
X020108Y018003D01*
X020472Y018003D02*
X020472Y017521D01*
X020108Y017521D01*
X020108Y018003D01*
X020108Y017708D02*
X020472Y017708D01*
X020472Y017895D02*
X020108Y017895D01*
X019722Y018003D02*
X019358Y018003D01*
X019722Y018003D02*
X019722Y017521D01*
X019358Y017521D01*
X019358Y018003D01*
X019358Y017708D02*
X019722Y017708D01*
X019722Y017895D02*
X019358Y017895D01*
X019358Y017128D02*
X019722Y017128D01*
X019722Y016646D01*
X019358Y016646D01*
X019358Y017128D01*
X019358Y016833D02*
X019722Y016833D01*
X019722Y017020D02*
X019358Y017020D01*
X020108Y017128D02*
X020472Y017128D01*
X020472Y016646D01*
X020108Y016646D01*
X020108Y017128D01*
X020108Y016833D02*
X020472Y016833D01*
X020472Y017020D02*
X020108Y017020D01*
X033781Y018955D02*
X033781Y019319D01*
X033781Y018955D02*
X033299Y018955D01*
X033299Y019319D01*
X033781Y019319D01*
X033781Y019142D02*
X033299Y019142D01*
X033781Y019705D02*
X033781Y020069D01*
X033781Y019705D02*
X033299Y019705D01*
X033299Y020069D01*
X033781Y020069D01*
X033781Y019892D02*
X033299Y019892D01*
X034549Y020069D02*
X034549Y019705D01*
X034549Y020069D02*
X035031Y020069D01*
X035031Y019705D01*
X034549Y019705D01*
X034549Y019892D02*
X035031Y019892D01*
X034549Y019319D02*
X034549Y018955D01*
X034549Y019319D02*
X035031Y019319D01*
X035031Y018955D01*
X034549Y018955D01*
X034549Y019142D02*
X035031Y019142D01*
X034549Y020455D02*
X034549Y020819D01*
X035031Y020819D01*
X035031Y020455D01*
X034549Y020455D01*
X034549Y020642D02*
X035031Y020642D01*
X034549Y021205D02*
X034549Y021569D01*
X035031Y021569D01*
X035031Y021205D01*
X034549Y021205D01*
X034549Y021392D02*
X035031Y021392D01*
X033781Y021569D02*
X033781Y021205D01*
X033299Y021205D01*
X033299Y021569D01*
X033781Y021569D01*
X033781Y021392D02*
X033299Y021392D01*
X033781Y020819D02*
X033781Y020455D01*
X033299Y020455D01*
X033299Y020819D01*
X033781Y020819D01*
X033781Y020642D02*
X033299Y020642D01*
X038983Y019378D02*
X039347Y019378D01*
X039347Y018896D01*
X038983Y018896D01*
X038983Y019378D01*
X038983Y019083D02*
X039347Y019083D01*
X039347Y019270D02*
X038983Y019270D01*
X039733Y019378D02*
X040097Y019378D01*
X040097Y018896D01*
X039733Y018896D01*
X039733Y019378D01*
X039733Y019083D02*
X040097Y019083D01*
X040097Y019270D02*
X039733Y019270D01*
X040608Y019378D02*
X040972Y019378D01*
X040972Y018896D01*
X040608Y018896D01*
X040608Y019378D01*
X040608Y019083D02*
X040972Y019083D01*
X040972Y019270D02*
X040608Y019270D01*
X041358Y019378D02*
X041722Y019378D01*
X041722Y018896D01*
X041358Y018896D01*
X041358Y019378D01*
X041358Y019083D02*
X041722Y019083D01*
X041722Y019270D02*
X041358Y019270D01*
X042233Y018896D02*
X042597Y018896D01*
X042233Y018896D02*
X042233Y019378D01*
X042597Y019378D01*
X042597Y018896D01*
X042597Y019083D02*
X042233Y019083D01*
X042233Y019270D02*
X042597Y019270D01*
X042983Y018896D02*
X043347Y018896D01*
X042983Y018896D02*
X042983Y019378D01*
X043347Y019378D01*
X043347Y018896D01*
X043347Y019083D02*
X042983Y019083D01*
X042983Y019270D02*
X043347Y019270D01*
X048406Y021080D02*
X048406Y021444D01*
X048406Y021080D02*
X047924Y021080D01*
X047924Y021444D01*
X048406Y021444D01*
X048406Y021267D02*
X047924Y021267D01*
X048406Y021830D02*
X048406Y022194D01*
X048406Y021830D02*
X047924Y021830D01*
X047924Y022194D01*
X048406Y022194D01*
X048406Y022017D02*
X047924Y022017D01*
X057608Y017771D02*
X057972Y017771D01*
X057608Y017771D02*
X057608Y018253D01*
X057972Y018253D01*
X057972Y017771D01*
X057972Y017958D02*
X057608Y017958D01*
X057608Y018145D02*
X057972Y018145D01*
X058358Y017771D02*
X058722Y017771D01*
X058358Y017771D02*
X058358Y018253D01*
X058722Y018253D01*
X058722Y017771D01*
X058722Y017958D02*
X058358Y017958D01*
X058358Y018145D02*
X058722Y018145D01*
X058722Y016396D02*
X058358Y016396D01*
X058358Y016878D01*
X058722Y016878D01*
X058722Y016396D01*
X058722Y016583D02*
X058358Y016583D01*
X058358Y016770D02*
X058722Y016770D01*
X057972Y016396D02*
X057608Y016396D01*
X057608Y016878D01*
X057972Y016878D01*
X057972Y016396D01*
X057972Y016583D02*
X057608Y016583D01*
X057608Y016770D02*
X057972Y016770D01*
X048549Y012569D02*
X048549Y012205D01*
X048549Y012569D02*
X049031Y012569D01*
X049031Y012205D01*
X048549Y012205D01*
X048549Y012392D02*
X049031Y012392D01*
X048549Y011819D02*
X048549Y011455D01*
X048549Y011819D02*
X049031Y011819D01*
X049031Y011455D01*
X048549Y011455D01*
X048549Y011642D02*
X049031Y011642D01*
X047674Y011819D02*
X047674Y011455D01*
X047674Y011819D02*
X048156Y011819D01*
X048156Y011455D01*
X047674Y011455D01*
X047674Y011642D02*
X048156Y011642D01*
X047674Y012205D02*
X047674Y012569D01*
X048156Y012569D01*
X048156Y012205D01*
X047674Y012205D01*
X047674Y012392D02*
X048156Y012392D01*
X046799Y012569D02*
X046799Y012205D01*
X046799Y012569D02*
X047281Y012569D01*
X047281Y012205D01*
X046799Y012205D01*
X046799Y012392D02*
X047281Y012392D01*
X045924Y012569D02*
X045924Y012205D01*
X045924Y012569D02*
X046406Y012569D01*
X046406Y012205D01*
X045924Y012205D01*
X045924Y012392D02*
X046406Y012392D01*
X045924Y011819D02*
X045924Y011455D01*
X045924Y011819D02*
X046406Y011819D01*
X046406Y011455D01*
X045924Y011455D01*
X045924Y011642D02*
X046406Y011642D01*
X046799Y011819D02*
X046799Y011455D01*
X046799Y011819D02*
X047281Y011819D01*
X047281Y011455D01*
X046799Y011455D01*
X046799Y011642D02*
X047281Y011642D01*
X049983Y009771D02*
X050347Y009771D01*
X049983Y009771D02*
X049983Y010253D01*
X050347Y010253D01*
X050347Y009771D01*
X050347Y009958D02*
X049983Y009958D01*
X049983Y010145D02*
X050347Y010145D01*
X050733Y009771D02*
X051097Y009771D01*
X050733Y009771D02*
X050733Y010253D01*
X051097Y010253D01*
X051097Y009771D01*
X051097Y009958D02*
X050733Y009958D01*
X050733Y010145D02*
X051097Y010145D01*
X051222Y007146D02*
X050858Y007146D01*
X050858Y007628D01*
X051222Y007628D01*
X051222Y007146D01*
X051222Y007333D02*
X050858Y007333D01*
X050858Y007520D02*
X051222Y007520D01*
X051608Y007146D02*
X051972Y007146D01*
X051608Y007146D02*
X051608Y007628D01*
X051972Y007628D01*
X051972Y007146D01*
X051972Y007333D02*
X051608Y007333D01*
X051608Y007520D02*
X051972Y007520D01*
X052608Y007146D02*
X052972Y007146D01*
X052608Y007146D02*
X052608Y007628D01*
X052972Y007628D01*
X052972Y007146D01*
X052972Y007333D02*
X052608Y007333D01*
X052608Y007520D02*
X052972Y007520D01*
X053358Y007146D02*
X053722Y007146D01*
X053358Y007146D02*
X053358Y007628D01*
X053722Y007628D01*
X053722Y007146D01*
X053722Y007333D02*
X053358Y007333D01*
X053358Y007520D02*
X053722Y007520D01*
X054358Y007628D02*
X054722Y007628D01*
X054722Y007146D01*
X054358Y007146D01*
X054358Y007628D01*
X054358Y007333D02*
X054722Y007333D01*
X054722Y007520D02*
X054358Y007520D01*
X055108Y007628D02*
X055472Y007628D01*
X055472Y007146D01*
X055108Y007146D01*
X055108Y007628D01*
X055108Y007333D02*
X055472Y007333D01*
X055472Y007520D02*
X055108Y007520D01*
X056108Y007146D02*
X056472Y007146D01*
X056108Y007146D02*
X056108Y007628D01*
X056472Y007628D01*
X056472Y007146D01*
X056472Y007333D02*
X056108Y007333D01*
X056108Y007520D02*
X056472Y007520D01*
X056858Y007146D02*
X057222Y007146D01*
X056858Y007146D02*
X056858Y007628D01*
X057222Y007628D01*
X057222Y007146D01*
X057222Y007333D02*
X056858Y007333D01*
X056858Y007520D02*
X057222Y007520D01*
X057858Y007146D02*
X058222Y007146D01*
X057858Y007146D02*
X057858Y007628D01*
X058222Y007628D01*
X058222Y007146D01*
X058222Y007333D02*
X057858Y007333D01*
X057858Y007520D02*
X058222Y007520D01*
X058608Y007146D02*
X058972Y007146D01*
X058608Y007146D02*
X058608Y007628D01*
X058972Y007628D01*
X058972Y007146D01*
X058972Y007333D02*
X058608Y007333D01*
X058608Y007520D02*
X058972Y007520D01*
X058972Y008396D02*
X058608Y008396D01*
X058608Y008878D01*
X058972Y008878D01*
X058972Y008396D01*
X058972Y008583D02*
X058608Y008583D01*
X058608Y008770D02*
X058972Y008770D01*
X058222Y008396D02*
X057858Y008396D01*
X057858Y008878D01*
X058222Y008878D01*
X058222Y008396D01*
X058222Y008583D02*
X057858Y008583D01*
X057858Y008770D02*
X058222Y008770D01*
X058222Y009646D02*
X057858Y009646D01*
X057858Y010128D01*
X058222Y010128D01*
X058222Y009646D01*
X058222Y009833D02*
X057858Y009833D01*
X057858Y010020D02*
X058222Y010020D01*
X058608Y009646D02*
X058972Y009646D01*
X058608Y009646D02*
X058608Y010128D01*
X058972Y010128D01*
X058972Y009646D01*
X058972Y009833D02*
X058608Y009833D01*
X058608Y010020D02*
X058972Y010020D01*
X058972Y006378D02*
X058608Y006378D01*
X058972Y006378D02*
X058972Y005896D01*
X058608Y005896D01*
X058608Y006378D01*
X058608Y006083D02*
X058972Y006083D01*
X058972Y006270D02*
X058608Y006270D01*
X058222Y006378D02*
X057858Y006378D01*
X058222Y006378D02*
X058222Y005896D01*
X057858Y005896D01*
X057858Y006378D01*
X057858Y006083D02*
X058222Y006083D01*
X058222Y006270D02*
X057858Y006270D01*
X057222Y006378D02*
X056858Y006378D01*
X057222Y006378D02*
X057222Y005896D01*
X056858Y005896D01*
X056858Y006378D01*
X056858Y006083D02*
X057222Y006083D01*
X057222Y006270D02*
X056858Y006270D01*
X056472Y006378D02*
X056108Y006378D01*
X056472Y006378D02*
X056472Y005896D01*
X056108Y005896D01*
X056108Y006378D01*
X056108Y006083D02*
X056472Y006083D01*
X056472Y006270D02*
X056108Y006270D01*
X055472Y005896D02*
X055108Y005896D01*
X055108Y006378D01*
X055472Y006378D01*
X055472Y005896D01*
X055472Y006083D02*
X055108Y006083D01*
X055108Y006270D02*
X055472Y006270D01*
X054722Y005896D02*
X054358Y005896D01*
X054358Y006378D01*
X054722Y006378D01*
X054722Y005896D01*
X054722Y006083D02*
X054358Y006083D01*
X054358Y006270D02*
X054722Y006270D01*
X053722Y005896D02*
X053358Y005896D01*
X053358Y006378D01*
X053722Y006378D01*
X053722Y005896D01*
X053722Y006083D02*
X053358Y006083D01*
X053358Y006270D02*
X053722Y006270D01*
X052972Y005896D02*
X052608Y005896D01*
X052608Y006378D01*
X052972Y006378D01*
X052972Y005896D01*
X052972Y006083D02*
X052608Y006083D01*
X052608Y006270D02*
X052972Y006270D01*
X051972Y005896D02*
X051608Y005896D01*
X051608Y006378D01*
X051972Y006378D01*
X051972Y005896D01*
X051972Y006083D02*
X051608Y006083D01*
X051608Y006270D02*
X051972Y006270D01*
X051222Y005896D02*
X050858Y005896D01*
X050858Y006378D01*
X051222Y006378D01*
X051222Y005896D01*
X051222Y006083D02*
X050858Y006083D01*
X050858Y006270D02*
X051222Y006270D01*
X050222Y005896D02*
X049858Y005896D01*
X049858Y006378D01*
X050222Y006378D01*
X050222Y005896D01*
X050222Y006083D02*
X049858Y006083D01*
X049858Y006270D02*
X050222Y006270D01*
X049472Y005896D02*
X049108Y005896D01*
X049108Y006378D01*
X049472Y006378D01*
X049472Y005896D01*
X049472Y006083D02*
X049108Y006083D01*
X049108Y006270D02*
X049472Y006270D01*
X048472Y006378D02*
X048108Y006378D01*
X048472Y006378D02*
X048472Y005896D01*
X048108Y005896D01*
X048108Y006378D01*
X048108Y006083D02*
X048472Y006083D01*
X048472Y006270D02*
X048108Y006270D01*
X047722Y006378D02*
X047358Y006378D01*
X047722Y006378D02*
X047722Y005896D01*
X047358Y005896D01*
X047358Y006378D01*
X047358Y006083D02*
X047722Y006083D01*
X047722Y006270D02*
X047358Y006270D01*
X046722Y006378D02*
X046358Y006378D01*
X046722Y006378D02*
X046722Y005896D01*
X046358Y005896D01*
X046358Y006378D01*
X046358Y006083D02*
X046722Y006083D01*
X046722Y006270D02*
X046358Y006270D01*
X045972Y006378D02*
X045608Y006378D01*
X045972Y006378D02*
X045972Y005896D01*
X045608Y005896D01*
X045608Y006378D01*
X045608Y006083D02*
X045972Y006083D01*
X045972Y006270D02*
X045608Y006270D01*
X044972Y006378D02*
X044608Y006378D01*
X044972Y006378D02*
X044972Y005896D01*
X044608Y005896D01*
X044608Y006378D01*
X044608Y006083D02*
X044972Y006083D01*
X044972Y006270D02*
X044608Y006270D01*
X044222Y006378D02*
X043858Y006378D01*
X044222Y006378D02*
X044222Y005896D01*
X043858Y005896D01*
X043858Y006378D01*
X043858Y006083D02*
X044222Y006083D01*
X044222Y006270D02*
X043858Y006270D01*
X043222Y006378D02*
X042858Y006378D01*
X043222Y006378D02*
X043222Y005896D01*
X042858Y005896D01*
X042858Y006378D01*
X042858Y006083D02*
X043222Y006083D01*
X043222Y006270D02*
X042858Y006270D01*
X042472Y006378D02*
X042108Y006378D01*
X042472Y006378D02*
X042472Y005896D01*
X042108Y005896D01*
X042108Y006378D01*
X042108Y006083D02*
X042472Y006083D01*
X042472Y006270D02*
X042108Y006270D01*
X040472Y006378D02*
X040108Y006378D01*
X040472Y006378D02*
X040472Y005896D01*
X040108Y005896D01*
X040108Y006378D01*
X040108Y006083D02*
X040472Y006083D01*
X040472Y006270D02*
X040108Y006270D01*
X039722Y006378D02*
X039358Y006378D01*
X039722Y006378D02*
X039722Y005896D01*
X039358Y005896D01*
X039358Y006378D01*
X039358Y006083D02*
X039722Y006083D01*
X039722Y006270D02*
X039358Y006270D01*
X037722Y005896D02*
X037358Y005896D01*
X037358Y006378D01*
X037722Y006378D01*
X037722Y005896D01*
X037722Y006083D02*
X037358Y006083D01*
X037358Y006270D02*
X037722Y006270D01*
X036972Y005896D02*
X036608Y005896D01*
X036608Y006378D01*
X036972Y006378D01*
X036972Y005896D01*
X036972Y006083D02*
X036608Y006083D01*
X036608Y006270D02*
X036972Y006270D01*
X035972Y005896D02*
X035608Y005896D01*
X035608Y006378D01*
X035972Y006378D01*
X035972Y005896D01*
X035972Y006083D02*
X035608Y006083D01*
X035608Y006270D02*
X035972Y006270D01*
X035222Y005896D02*
X034858Y005896D01*
X034858Y006378D01*
X035222Y006378D01*
X035222Y005896D01*
X035222Y006083D02*
X034858Y006083D01*
X034858Y006270D02*
X035222Y006270D01*
X034222Y006378D02*
X033858Y006378D01*
X034222Y006378D02*
X034222Y005896D01*
X033858Y005896D01*
X033858Y006378D01*
X033858Y006083D02*
X034222Y006083D01*
X034222Y006270D02*
X033858Y006270D01*
X033472Y006378D02*
X033108Y006378D01*
X033472Y006378D02*
X033472Y005896D01*
X033108Y005896D01*
X033108Y006378D01*
X033108Y006083D02*
X033472Y006083D01*
X033472Y006270D02*
X033108Y006270D01*
X033108Y007146D02*
X033472Y007146D01*
X033108Y007146D02*
X033108Y007628D01*
X033472Y007628D01*
X033472Y007146D01*
X033472Y007333D02*
X033108Y007333D01*
X033108Y007520D02*
X033472Y007520D01*
X033858Y007146D02*
X034222Y007146D01*
X033858Y007146D02*
X033858Y007628D01*
X034222Y007628D01*
X034222Y007146D01*
X034222Y007333D02*
X033858Y007333D01*
X033858Y007520D02*
X034222Y007520D01*
X034858Y007628D02*
X035222Y007628D01*
X035222Y007146D01*
X034858Y007146D01*
X034858Y007628D01*
X034858Y007333D02*
X035222Y007333D01*
X035222Y007520D02*
X034858Y007520D01*
X035608Y007628D02*
X035972Y007628D01*
X035972Y007146D01*
X035608Y007146D01*
X035608Y007628D01*
X035608Y007333D02*
X035972Y007333D01*
X035972Y007520D02*
X035608Y007520D01*
X036608Y007146D02*
X036972Y007146D01*
X036608Y007146D02*
X036608Y007628D01*
X036972Y007628D01*
X036972Y007146D01*
X036972Y007333D02*
X036608Y007333D01*
X036608Y007520D02*
X036972Y007520D01*
X037358Y007146D02*
X037722Y007146D01*
X037358Y007146D02*
X037358Y007628D01*
X037722Y007628D01*
X037722Y007146D01*
X037722Y007333D02*
X037358Y007333D01*
X037358Y007520D02*
X037722Y007520D01*
X036924Y009705D02*
X036924Y010069D01*
X037406Y010069D01*
X037406Y009705D01*
X036924Y009705D01*
X036924Y009892D02*
X037406Y009892D01*
X038174Y010069D02*
X038174Y009705D01*
X038174Y010069D02*
X038656Y010069D01*
X038656Y009705D01*
X038174Y009705D01*
X038174Y009892D02*
X038656Y009892D01*
X039424Y010069D02*
X039424Y009705D01*
X039424Y010069D02*
X039906Y010069D01*
X039906Y009705D01*
X039424Y009705D01*
X039424Y009892D02*
X039906Y009892D01*
X041156Y010069D02*
X041156Y009705D01*
X040674Y009705D01*
X040674Y010069D01*
X041156Y010069D01*
X041156Y009892D02*
X040674Y009892D01*
X041156Y010455D02*
X041156Y010819D01*
X041156Y010455D02*
X040674Y010455D01*
X040674Y010819D01*
X041156Y010819D01*
X041156Y010642D02*
X040674Y010642D01*
X039424Y010819D02*
X039424Y010455D01*
X039424Y010819D02*
X039906Y010819D01*
X039906Y010455D01*
X039424Y010455D01*
X039424Y010642D02*
X039906Y010642D01*
X038174Y010819D02*
X038174Y010455D01*
X038174Y010819D02*
X038656Y010819D01*
X038656Y010455D01*
X038174Y010455D01*
X038174Y010642D02*
X038656Y010642D01*
X036924Y010819D02*
X036924Y010455D01*
X036924Y010819D02*
X037406Y010819D01*
X037406Y010455D01*
X036924Y010455D01*
X036924Y010642D02*
X037406Y010642D01*
X036674Y011455D02*
X036674Y011819D01*
X037156Y011819D01*
X037156Y011455D01*
X036674Y011455D01*
X036674Y011642D02*
X037156Y011642D01*
X036674Y012205D02*
X036674Y012569D01*
X037156Y012569D01*
X037156Y012205D01*
X036674Y012205D01*
X036674Y012392D02*
X037156Y012392D01*
X038174Y012569D02*
X038174Y012205D01*
X038174Y012569D02*
X038656Y012569D01*
X038656Y012205D01*
X038174Y012205D01*
X038174Y012392D02*
X038656Y012392D01*
X038174Y011819D02*
X038174Y011455D01*
X038174Y011819D02*
X038656Y011819D01*
X038656Y011455D01*
X038174Y011455D01*
X038174Y011642D02*
X038656Y011642D01*
X039906Y011819D02*
X039906Y011455D01*
X039424Y011455D01*
X039424Y011819D01*
X039906Y011819D01*
X039906Y011642D02*
X039424Y011642D01*
X039906Y012205D02*
X039906Y012569D01*
X039906Y012205D02*
X039424Y012205D01*
X039424Y012569D01*
X039906Y012569D01*
X039906Y012392D02*
X039424Y012392D01*
X041156Y012569D02*
X041156Y012205D01*
X040674Y012205D01*
X040674Y012569D01*
X041156Y012569D01*
X041156Y012392D02*
X040674Y012392D01*
X041156Y011819D02*
X041156Y011455D01*
X040674Y011455D01*
X040674Y011819D01*
X041156Y011819D01*
X041156Y011642D02*
X040674Y011642D01*
X041924Y011819D02*
X041924Y011455D01*
X041924Y011819D02*
X042406Y011819D01*
X042406Y011455D01*
X041924Y011455D01*
X041924Y011642D02*
X042406Y011642D01*
X043656Y011819D02*
X043656Y011455D01*
X043174Y011455D01*
X043174Y011819D01*
X043656Y011819D01*
X043656Y011642D02*
X043174Y011642D01*
X043656Y012205D02*
X043656Y012569D01*
X043656Y012205D02*
X043174Y012205D01*
X043174Y012569D01*
X043656Y012569D01*
X043656Y012392D02*
X043174Y012392D01*
X041924Y012569D02*
X041924Y012205D01*
X041924Y012569D02*
X042406Y012569D01*
X042406Y012205D01*
X041924Y012205D01*
X041924Y012392D02*
X042406Y012392D01*
X042406Y010819D02*
X042406Y010455D01*
X041924Y010455D01*
X041924Y010819D01*
X042406Y010819D01*
X042406Y010642D02*
X041924Y010642D01*
X043174Y010819D02*
X043174Y010455D01*
X043174Y010819D02*
X043656Y010819D01*
X043656Y010455D01*
X043174Y010455D01*
X043174Y010642D02*
X043656Y010642D01*
X043174Y010069D02*
X043174Y009705D01*
X043174Y010069D02*
X043656Y010069D01*
X043656Y009705D01*
X043174Y009705D01*
X043174Y009892D02*
X043656Y009892D01*
X042406Y010069D02*
X042406Y009705D01*
X041924Y009705D01*
X041924Y010069D01*
X042406Y010069D01*
X042406Y009892D02*
X041924Y009892D01*
X042108Y008396D02*
X042472Y008396D01*
X042108Y008396D02*
X042108Y008878D01*
X042472Y008878D01*
X042472Y008396D01*
X042472Y008583D02*
X042108Y008583D01*
X042108Y008770D02*
X042472Y008770D01*
X042858Y008396D02*
X043222Y008396D01*
X042858Y008396D02*
X042858Y008878D01*
X043222Y008878D01*
X043222Y008396D01*
X043222Y008583D02*
X042858Y008583D01*
X042858Y008770D02*
X043222Y008770D01*
X043858Y008396D02*
X044222Y008396D01*
X043858Y008396D02*
X043858Y008878D01*
X044222Y008878D01*
X044222Y008396D01*
X044222Y008583D02*
X043858Y008583D01*
X043858Y008770D02*
X044222Y008770D01*
X044608Y008396D02*
X044972Y008396D01*
X044608Y008396D02*
X044608Y008878D01*
X044972Y008878D01*
X044972Y008396D01*
X044972Y008583D02*
X044608Y008583D01*
X044608Y008770D02*
X044972Y008770D01*
X044972Y007628D02*
X044608Y007628D01*
X044972Y007628D02*
X044972Y007146D01*
X044608Y007146D01*
X044608Y007628D01*
X044608Y007333D02*
X044972Y007333D01*
X044972Y007520D02*
X044608Y007520D01*
X044222Y007628D02*
X043858Y007628D01*
X044222Y007628D02*
X044222Y007146D01*
X043858Y007146D01*
X043858Y007628D01*
X043858Y007333D02*
X044222Y007333D01*
X044222Y007520D02*
X043858Y007520D01*
X043222Y007628D02*
X042858Y007628D01*
X043222Y007628D02*
X043222Y007146D01*
X042858Y007146D01*
X042858Y007628D01*
X042858Y007333D02*
X043222Y007333D01*
X043222Y007520D02*
X042858Y007520D01*
X042472Y007628D02*
X042108Y007628D01*
X042472Y007628D02*
X042472Y007146D01*
X042108Y007146D01*
X042108Y007628D01*
X042108Y007333D02*
X042472Y007333D01*
X042472Y007520D02*
X042108Y007520D01*
X045608Y007146D02*
X045972Y007146D01*
X045608Y007146D02*
X045608Y007628D01*
X045972Y007628D01*
X045972Y007146D01*
X045972Y007333D02*
X045608Y007333D01*
X045608Y007520D02*
X045972Y007520D01*
X046358Y007146D02*
X046722Y007146D01*
X046358Y007146D02*
X046358Y007628D01*
X046722Y007628D01*
X046722Y007146D01*
X046722Y007333D02*
X046358Y007333D01*
X046358Y007520D02*
X046722Y007520D01*
X047358Y007628D02*
X047722Y007628D01*
X047722Y007146D01*
X047358Y007146D01*
X047358Y007628D01*
X047358Y007333D02*
X047722Y007333D01*
X047722Y007520D02*
X047358Y007520D01*
X048108Y007628D02*
X048472Y007628D01*
X048472Y007146D01*
X048108Y007146D01*
X048108Y007628D01*
X048108Y007333D02*
X048472Y007333D01*
X048472Y007520D02*
X048108Y007520D01*
X049108Y007146D02*
X049472Y007146D01*
X049108Y007146D02*
X049108Y007628D01*
X049472Y007628D01*
X049472Y007146D01*
X049472Y007333D02*
X049108Y007333D01*
X049108Y007520D02*
X049472Y007520D01*
X049858Y007146D02*
X050222Y007146D01*
X049858Y007146D02*
X049858Y007628D01*
X050222Y007628D01*
X050222Y007146D01*
X050222Y007333D02*
X049858Y007333D01*
X049858Y007520D02*
X050222Y007520D01*
X048472Y004646D02*
X048108Y004646D01*
X048108Y005128D01*
X048472Y005128D01*
X048472Y004646D01*
X048472Y004833D02*
X048108Y004833D01*
X048108Y005020D02*
X048472Y005020D01*
X047722Y004646D02*
X047358Y004646D01*
X047358Y005128D01*
X047722Y005128D01*
X047722Y004646D01*
X047722Y004833D02*
X047358Y004833D01*
X047358Y005020D02*
X047722Y005020D01*
X046722Y004646D02*
X046358Y004646D01*
X046358Y005128D01*
X046722Y005128D01*
X046722Y004646D01*
X046722Y004833D02*
X046358Y004833D01*
X046358Y005020D02*
X046722Y005020D01*
X045972Y004646D02*
X045608Y004646D01*
X045608Y005128D01*
X045972Y005128D01*
X045972Y004646D01*
X045972Y004833D02*
X045608Y004833D01*
X045608Y005020D02*
X045972Y005020D01*
X044972Y005128D02*
X044608Y005128D01*
X044972Y005128D02*
X044972Y004646D01*
X044608Y004646D01*
X044608Y005128D01*
X044608Y004833D02*
X044972Y004833D01*
X044972Y005020D02*
X044608Y005020D01*
X044222Y005128D02*
X043858Y005128D01*
X044222Y005128D02*
X044222Y004646D01*
X043858Y004646D01*
X043858Y005128D01*
X043858Y004833D02*
X044222Y004833D01*
X044222Y005020D02*
X043858Y005020D01*
X043222Y005128D02*
X042858Y005128D01*
X043222Y005128D02*
X043222Y004646D01*
X042858Y004646D01*
X042858Y005128D01*
X042858Y004833D02*
X043222Y004833D01*
X043222Y005020D02*
X042858Y005020D01*
X042472Y005128D02*
X042108Y005128D01*
X042472Y005128D02*
X042472Y004646D01*
X042108Y004646D01*
X042108Y005128D01*
X042108Y004833D02*
X042472Y004833D01*
X042472Y005020D02*
X042108Y005020D01*
X042108Y003396D02*
X042472Y003396D01*
X042108Y003396D02*
X042108Y003878D01*
X042472Y003878D01*
X042472Y003396D01*
X042472Y003583D02*
X042108Y003583D01*
X042108Y003770D02*
X042472Y003770D01*
X042858Y003396D02*
X043222Y003396D01*
X042858Y003396D02*
X042858Y003878D01*
X043222Y003878D01*
X043222Y003396D01*
X043222Y003583D02*
X042858Y003583D01*
X042858Y003770D02*
X043222Y003770D01*
X043858Y003878D02*
X044222Y003878D01*
X044222Y003396D01*
X043858Y003396D01*
X043858Y003878D01*
X043858Y003583D02*
X044222Y003583D01*
X044222Y003770D02*
X043858Y003770D01*
X044608Y003878D02*
X044972Y003878D01*
X044972Y003396D01*
X044608Y003396D01*
X044608Y003878D01*
X044608Y003583D02*
X044972Y003583D01*
X044972Y003770D02*
X044608Y003770D01*
X045608Y003396D02*
X045972Y003396D01*
X045608Y003396D02*
X045608Y003878D01*
X045972Y003878D01*
X045972Y003396D01*
X045972Y003583D02*
X045608Y003583D01*
X045608Y003770D02*
X045972Y003770D01*
X046358Y003396D02*
X046722Y003396D01*
X046358Y003396D02*
X046358Y003878D01*
X046722Y003878D01*
X046722Y003396D01*
X046722Y003583D02*
X046358Y003583D01*
X046358Y003770D02*
X046722Y003770D01*
X047358Y003878D02*
X047722Y003878D01*
X047722Y003396D01*
X047358Y003396D01*
X047358Y003878D01*
X047358Y003583D02*
X047722Y003583D01*
X047722Y003770D02*
X047358Y003770D01*
X048108Y003878D02*
X048472Y003878D01*
X048472Y003396D01*
X048108Y003396D01*
X048108Y003878D01*
X048108Y003583D02*
X048472Y003583D01*
X048472Y003770D02*
X048108Y003770D01*
X048108Y002146D02*
X048472Y002146D01*
X048108Y002146D02*
X048108Y002628D01*
X048472Y002628D01*
X048472Y002146D01*
X048472Y002333D02*
X048108Y002333D01*
X048108Y002520D02*
X048472Y002520D01*
X047722Y002146D02*
X047358Y002146D01*
X047358Y002628D01*
X047722Y002628D01*
X047722Y002146D01*
X047722Y002333D02*
X047358Y002333D01*
X047358Y002520D02*
X047722Y002520D01*
X046722Y002146D02*
X046358Y002146D01*
X046358Y002628D01*
X046722Y002628D01*
X046722Y002146D01*
X046722Y002333D02*
X046358Y002333D01*
X046358Y002520D02*
X046722Y002520D01*
X045972Y002146D02*
X045608Y002146D01*
X045608Y002628D01*
X045972Y002628D01*
X045972Y002146D01*
X045972Y002333D02*
X045608Y002333D01*
X045608Y002520D02*
X045972Y002520D01*
X044972Y002628D02*
X044608Y002628D01*
X044972Y002628D02*
X044972Y002146D01*
X044608Y002146D01*
X044608Y002628D01*
X044608Y002333D02*
X044972Y002333D01*
X044972Y002520D02*
X044608Y002520D01*
X044222Y002628D02*
X043858Y002628D01*
X044222Y002628D02*
X044222Y002146D01*
X043858Y002146D01*
X043858Y002628D01*
X043858Y002333D02*
X044222Y002333D01*
X044222Y002520D02*
X043858Y002520D01*
X043222Y002628D02*
X042858Y002628D01*
X043222Y002628D02*
X043222Y002146D01*
X042858Y002146D01*
X042858Y002628D01*
X042858Y002333D02*
X043222Y002333D01*
X043222Y002520D02*
X042858Y002520D01*
X042472Y002628D02*
X042108Y002628D01*
X042472Y002628D02*
X042472Y002146D01*
X042108Y002146D01*
X042108Y002628D01*
X042108Y002333D02*
X042472Y002333D01*
X042472Y002520D02*
X042108Y002520D01*
X037722Y002628D02*
X037358Y002628D01*
X037722Y002628D02*
X037722Y002146D01*
X037358Y002146D01*
X037358Y002628D01*
X037358Y002333D02*
X037722Y002333D01*
X037722Y002520D02*
X037358Y002520D01*
X036972Y002628D02*
X036608Y002628D01*
X036972Y002628D02*
X036972Y002146D01*
X036608Y002146D01*
X036608Y002628D01*
X036608Y002333D02*
X036972Y002333D01*
X036972Y002520D02*
X036608Y002520D01*
X035972Y002628D02*
X035608Y002628D01*
X035972Y002628D02*
X035972Y002146D01*
X035608Y002146D01*
X035608Y002628D01*
X035608Y002333D02*
X035972Y002333D01*
X035972Y002520D02*
X035608Y002520D01*
X035222Y002628D02*
X034858Y002628D01*
X035222Y002628D02*
X035222Y002146D01*
X034858Y002146D01*
X034858Y002628D01*
X034858Y002333D02*
X035222Y002333D01*
X035222Y002520D02*
X034858Y002520D01*
X034222Y002146D02*
X033858Y002146D01*
X033858Y002628D01*
X034222Y002628D01*
X034222Y002146D01*
X034222Y002333D02*
X033858Y002333D01*
X033858Y002520D02*
X034222Y002520D01*
X033472Y002146D02*
X033108Y002146D01*
X033108Y002628D01*
X033472Y002628D01*
X033472Y002146D01*
X033472Y002333D02*
X033108Y002333D01*
X033108Y002520D02*
X033472Y002520D01*
X033472Y003396D02*
X033108Y003396D01*
X033108Y003878D01*
X033472Y003878D01*
X033472Y003396D01*
X033472Y003583D02*
X033108Y003583D01*
X033108Y003770D02*
X033472Y003770D01*
X033858Y003396D02*
X034222Y003396D01*
X033858Y003396D02*
X033858Y003878D01*
X034222Y003878D01*
X034222Y003396D01*
X034222Y003583D02*
X033858Y003583D01*
X033858Y003770D02*
X034222Y003770D01*
X034858Y003878D02*
X035222Y003878D01*
X035222Y003396D01*
X034858Y003396D01*
X034858Y003878D01*
X034858Y003583D02*
X035222Y003583D01*
X035222Y003770D02*
X034858Y003770D01*
X035608Y003878D02*
X035972Y003878D01*
X035972Y003396D01*
X035608Y003396D01*
X035608Y003878D01*
X035608Y003583D02*
X035972Y003583D01*
X035972Y003770D02*
X035608Y003770D01*
X036608Y003878D02*
X036972Y003878D01*
X036972Y003396D01*
X036608Y003396D01*
X036608Y003878D01*
X036608Y003583D02*
X036972Y003583D01*
X036972Y003770D02*
X036608Y003770D01*
X037358Y003878D02*
X037722Y003878D01*
X037722Y003396D01*
X037358Y003396D01*
X037358Y003878D01*
X037358Y003583D02*
X037722Y003583D01*
X037722Y003770D02*
X037358Y003770D01*
X037358Y005128D02*
X037722Y005128D01*
X037722Y004646D01*
X037358Y004646D01*
X037358Y005128D01*
X037358Y004833D02*
X037722Y004833D01*
X037722Y005020D02*
X037358Y005020D01*
X036972Y005128D02*
X036608Y005128D01*
X036972Y005128D02*
X036972Y004646D01*
X036608Y004646D01*
X036608Y005128D01*
X036608Y004833D02*
X036972Y004833D01*
X036972Y005020D02*
X036608Y005020D01*
X035972Y004646D02*
X035608Y004646D01*
X035608Y005128D01*
X035972Y005128D01*
X035972Y004646D01*
X035972Y004833D02*
X035608Y004833D01*
X035608Y005020D02*
X035972Y005020D01*
X035222Y004646D02*
X034858Y004646D01*
X034858Y005128D01*
X035222Y005128D01*
X035222Y004646D01*
X035222Y004833D02*
X034858Y004833D01*
X034858Y005020D02*
X035222Y005020D01*
X034222Y004646D02*
X033858Y004646D01*
X033858Y005128D01*
X034222Y005128D01*
X034222Y004646D01*
X034222Y004833D02*
X033858Y004833D01*
X033858Y005020D02*
X034222Y005020D01*
X033472Y004646D02*
X033108Y004646D01*
X033108Y005128D01*
X033472Y005128D01*
X033472Y004646D01*
X033472Y004833D02*
X033108Y004833D01*
X033108Y005020D02*
X033472Y005020D01*
X052608Y005128D02*
X052972Y005128D01*
X052972Y004646D01*
X052608Y004646D01*
X052608Y005128D01*
X052608Y004833D02*
X052972Y004833D01*
X052972Y005020D02*
X052608Y005020D01*
X053358Y005128D02*
X053722Y005128D01*
X053722Y004646D01*
X053358Y004646D01*
X053358Y005128D01*
X053358Y004833D02*
X053722Y004833D01*
X053722Y005020D02*
X053358Y005020D01*
X054358Y005128D02*
X054722Y005128D01*
X054722Y004646D01*
X054358Y004646D01*
X054358Y005128D01*
X054358Y004833D02*
X054722Y004833D01*
X054722Y005020D02*
X054358Y005020D01*
X055108Y005128D02*
X055472Y005128D01*
X055472Y004646D01*
X055108Y004646D01*
X055108Y005128D01*
X055108Y004833D02*
X055472Y004833D01*
X055472Y005020D02*
X055108Y005020D01*
X056108Y004646D02*
X056472Y004646D01*
X056108Y004646D02*
X056108Y005128D01*
X056472Y005128D01*
X056472Y004646D01*
X056472Y004833D02*
X056108Y004833D01*
X056108Y005020D02*
X056472Y005020D01*
X056858Y004646D02*
X057222Y004646D01*
X056858Y004646D02*
X056858Y005128D01*
X057222Y005128D01*
X057222Y004646D01*
X057222Y004833D02*
X056858Y004833D01*
X056858Y005020D02*
X057222Y005020D01*
X057858Y005128D02*
X058222Y005128D01*
X058222Y004646D01*
X057858Y004646D01*
X057858Y005128D01*
X057858Y004833D02*
X058222Y004833D01*
X058222Y005020D02*
X057858Y005020D01*
X058608Y005128D02*
X058972Y005128D01*
X058972Y004646D01*
X058608Y004646D01*
X058608Y005128D01*
X058608Y004833D02*
X058972Y004833D01*
X058972Y005020D02*
X058608Y005020D01*
X058608Y003396D02*
X058972Y003396D01*
X058608Y003396D02*
X058608Y003878D01*
X058972Y003878D01*
X058972Y003396D01*
X058972Y003583D02*
X058608Y003583D01*
X058608Y003770D02*
X058972Y003770D01*
X058222Y003396D02*
X057858Y003396D01*
X057858Y003878D01*
X058222Y003878D01*
X058222Y003396D01*
X058222Y003583D02*
X057858Y003583D01*
X057858Y003770D02*
X058222Y003770D01*
X057222Y003396D02*
X056858Y003396D01*
X056858Y003878D01*
X057222Y003878D01*
X057222Y003396D01*
X057222Y003583D02*
X056858Y003583D01*
X056858Y003770D02*
X057222Y003770D01*
X056472Y003396D02*
X056108Y003396D01*
X056108Y003878D01*
X056472Y003878D01*
X056472Y003396D01*
X056472Y003583D02*
X056108Y003583D01*
X056108Y003770D02*
X056472Y003770D01*
X055472Y003396D02*
X055108Y003396D01*
X055108Y003878D01*
X055472Y003878D01*
X055472Y003396D01*
X055472Y003583D02*
X055108Y003583D01*
X055108Y003770D02*
X055472Y003770D01*
X054722Y003396D02*
X054358Y003396D01*
X054358Y003878D01*
X054722Y003878D01*
X054722Y003396D01*
X054722Y003583D02*
X054358Y003583D01*
X054358Y003770D02*
X054722Y003770D01*
X053722Y003396D02*
X053358Y003396D01*
X053358Y003878D01*
X053722Y003878D01*
X053722Y003396D01*
X053722Y003583D02*
X053358Y003583D01*
X053358Y003770D02*
X053722Y003770D01*
X052972Y003396D02*
X052608Y003396D01*
X052608Y003878D01*
X052972Y003878D01*
X052972Y003396D01*
X052972Y003583D02*
X052608Y003583D01*
X052608Y003770D02*
X052972Y003770D01*
X052972Y002146D02*
X052608Y002146D01*
X052608Y002628D01*
X052972Y002628D01*
X052972Y002146D01*
X052972Y002333D02*
X052608Y002333D01*
X052608Y002520D02*
X052972Y002520D01*
X053358Y002146D02*
X053722Y002146D01*
X053358Y002146D02*
X053358Y002628D01*
X053722Y002628D01*
X053722Y002146D01*
X053722Y002333D02*
X053358Y002333D01*
X053358Y002520D02*
X053722Y002520D01*
X054358Y002146D02*
X054722Y002146D01*
X054358Y002146D02*
X054358Y002628D01*
X054722Y002628D01*
X054722Y002146D01*
X054722Y002333D02*
X054358Y002333D01*
X054358Y002520D02*
X054722Y002520D01*
X055108Y002146D02*
X055472Y002146D01*
X055108Y002146D02*
X055108Y002628D01*
X055472Y002628D01*
X055472Y002146D01*
X055472Y002333D02*
X055108Y002333D01*
X055108Y002520D02*
X055472Y002520D01*
X056108Y002146D02*
X056472Y002146D01*
X056108Y002146D02*
X056108Y002628D01*
X056472Y002628D01*
X056472Y002146D01*
X056472Y002333D02*
X056108Y002333D01*
X056108Y002520D02*
X056472Y002520D01*
X056858Y002146D02*
X057222Y002146D01*
X056858Y002146D02*
X056858Y002628D01*
X057222Y002628D01*
X057222Y002146D01*
X057222Y002333D02*
X056858Y002333D01*
X056858Y002520D02*
X057222Y002520D01*
X057858Y002146D02*
X058222Y002146D01*
X057858Y002146D02*
X057858Y002628D01*
X058222Y002628D01*
X058222Y002146D01*
X058222Y002333D02*
X057858Y002333D01*
X057858Y002520D02*
X058222Y002520D01*
X058608Y002146D02*
X058972Y002146D01*
X058608Y002146D02*
X058608Y002628D01*
X058972Y002628D01*
X058972Y002146D01*
X058972Y002333D02*
X058608Y002333D01*
X058608Y002520D02*
X058972Y002520D01*
X041847Y027521D02*
X041483Y027521D01*
X041483Y028003D01*
X041847Y028003D01*
X041847Y027521D01*
X041847Y027708D02*
X041483Y027708D01*
X041483Y027895D02*
X041847Y027895D01*
X041097Y027521D02*
X040733Y027521D01*
X040733Y028003D01*
X041097Y028003D01*
X041097Y027521D01*
X041097Y027708D02*
X040733Y027708D01*
X040733Y027895D02*
X041097Y027895D01*
X039847Y028003D02*
X039483Y028003D01*
X039847Y028003D02*
X039847Y027521D01*
X039483Y027521D01*
X039483Y028003D01*
X039483Y027708D02*
X039847Y027708D01*
X039847Y027895D02*
X039483Y027895D01*
X039097Y028003D02*
X038733Y028003D01*
X039097Y028003D02*
X039097Y027521D01*
X038733Y027521D01*
X038733Y028003D01*
X038733Y027708D02*
X039097Y027708D01*
X039097Y027895D02*
X038733Y027895D01*
D17*
X031977Y018575D03*
X030977Y018575D03*
X027040Y011818D03*
X027040Y010818D03*
D18*
X028830Y009455D02*
X029500Y009455D01*
X029500Y008569D01*
X028830Y008569D01*
X028830Y009455D01*
X028830Y008746D02*
X029500Y008746D01*
X029500Y008923D02*
X028830Y008923D01*
X028830Y009100D02*
X029500Y009100D01*
X029500Y009277D02*
X028830Y009277D01*
X028830Y009454D02*
X029500Y009454D01*
X030080Y009455D02*
X030750Y009455D01*
X030750Y008569D01*
X030080Y008569D01*
X030080Y009455D01*
X030080Y008746D02*
X030750Y008746D01*
X030750Y008923D02*
X030080Y008923D01*
X030080Y009100D02*
X030750Y009100D01*
X030750Y009277D02*
X030080Y009277D01*
X030080Y009454D02*
X030750Y009454D01*
X035608Y011052D02*
X035608Y011722D01*
X035608Y011052D02*
X034722Y011052D01*
X034722Y011722D01*
X035608Y011722D01*
X035608Y011229D02*
X034722Y011229D01*
X034722Y011406D02*
X035608Y011406D01*
X035608Y011583D02*
X034722Y011583D01*
X035608Y012302D02*
X035608Y012972D01*
X035608Y012302D02*
X034722Y012302D01*
X034722Y012972D01*
X035608Y012972D01*
X035608Y012479D02*
X034722Y012479D01*
X034722Y012656D02*
X035608Y012656D01*
X035608Y012833D02*
X034722Y012833D01*
X045108Y012910D02*
X045108Y012240D01*
X044222Y012240D01*
X044222Y012910D01*
X045108Y012910D01*
X045108Y012417D02*
X044222Y012417D01*
X044222Y012594D02*
X045108Y012594D01*
X045108Y012771D02*
X044222Y012771D01*
X045108Y011660D02*
X045108Y010990D01*
X044222Y010990D01*
X044222Y011660D01*
X045108Y011660D01*
X045108Y011167D02*
X044222Y011167D01*
X044222Y011344D02*
X045108Y011344D01*
X045108Y011521D02*
X044222Y011521D01*
X050733Y011722D02*
X050733Y011052D01*
X049847Y011052D01*
X049847Y011722D01*
X050733Y011722D01*
X050733Y011229D02*
X049847Y011229D01*
X049847Y011406D02*
X050733Y011406D01*
X050733Y011583D02*
X049847Y011583D01*
X050733Y012302D02*
X050733Y012972D01*
X050733Y012302D02*
X049847Y012302D01*
X049847Y012972D01*
X050733Y012972D01*
X050733Y012479D02*
X049847Y012479D01*
X049847Y012656D02*
X050733Y012656D01*
X050733Y012833D02*
X049847Y012833D01*
X047295Y018802D02*
X047295Y019472D01*
X047295Y018802D02*
X046409Y018802D01*
X046409Y019472D01*
X047295Y019472D01*
X047295Y018979D02*
X046409Y018979D01*
X046409Y019156D02*
X047295Y019156D01*
X047295Y019333D02*
X046409Y019333D01*
X047295Y020052D02*
X047295Y020722D01*
X047295Y020052D02*
X046409Y020052D01*
X046409Y020722D01*
X047295Y020722D01*
X047295Y020229D02*
X046409Y020229D01*
X046409Y020406D02*
X047295Y020406D01*
X047295Y020583D02*
X046409Y020583D01*
X016222Y009972D02*
X016222Y009302D01*
X016222Y009972D02*
X017108Y009972D01*
X017108Y009302D01*
X016222Y009302D01*
X016222Y009479D02*
X017108Y009479D01*
X017108Y009656D02*
X016222Y009656D01*
X016222Y009833D02*
X017108Y009833D01*
X016222Y008722D02*
X016222Y008052D01*
X016222Y008722D02*
X017108Y008722D01*
X017108Y008052D01*
X016222Y008052D01*
X016222Y008229D02*
X017108Y008229D01*
X017108Y008406D02*
X016222Y008406D01*
X016222Y008583D02*
X017108Y008583D01*
D19*
X025441Y006736D02*
X025889Y006736D01*
X025889Y006288D01*
X025441Y006288D01*
X025441Y006736D01*
X025441Y006470D02*
X025889Y006470D01*
X025889Y006652D02*
X025441Y006652D01*
X026941Y006736D02*
X027389Y006736D01*
X027389Y006288D01*
X026941Y006288D01*
X026941Y006736D01*
X026941Y006470D02*
X027389Y006470D01*
X027389Y006652D02*
X026941Y006652D01*
X035316Y008601D02*
X035764Y008601D01*
X035316Y008601D02*
X035316Y009049D01*
X035764Y009049D01*
X035764Y008601D01*
X035764Y008783D02*
X035316Y008783D01*
X035316Y008965D02*
X035764Y008965D01*
X036816Y008601D02*
X037264Y008601D01*
X036816Y008601D02*
X036816Y009049D01*
X037264Y009049D01*
X037264Y008601D01*
X037264Y008783D02*
X036816Y008783D01*
X036816Y008965D02*
X037264Y008965D01*
X029691Y016788D02*
X029691Y017236D01*
X030139Y017236D01*
X030139Y016788D01*
X029691Y016788D01*
X029691Y016970D02*
X030139Y016970D01*
X030139Y017152D02*
X029691Y017152D01*
X029691Y018288D02*
X029691Y018736D01*
X030139Y018736D01*
X030139Y018288D01*
X029691Y018288D01*
X029691Y018470D02*
X030139Y018470D01*
X030139Y018652D02*
X029691Y018652D01*
X025764Y021038D02*
X025764Y021486D01*
X025764Y021038D02*
X025316Y021038D01*
X025316Y021486D01*
X025764Y021486D01*
X025764Y021220D02*
X025316Y021220D01*
X025316Y021402D02*
X025764Y021402D01*
X025764Y022538D02*
X025764Y022986D01*
X025764Y022538D02*
X025316Y022538D01*
X025316Y022986D01*
X025764Y022986D01*
X025764Y022720D02*
X025316Y022720D01*
X025316Y022902D02*
X025764Y022902D01*
X040066Y023134D02*
X040066Y024528D01*
X040514Y024528D01*
X040514Y023134D01*
X040066Y023134D01*
X040066Y023316D02*
X040514Y023316D01*
X040514Y023498D02*
X040066Y023498D01*
X040066Y023680D02*
X040514Y023680D01*
X040514Y023862D02*
X040066Y023862D01*
X040066Y024044D02*
X040514Y024044D01*
X040514Y024226D02*
X040066Y024226D01*
X040066Y024408D02*
X040514Y024408D01*
X040066Y025496D02*
X040066Y026890D01*
X040514Y026890D01*
X040514Y025496D01*
X040066Y025496D01*
X040066Y025678D02*
X040514Y025678D01*
X040514Y025860D02*
X040066Y025860D01*
X040066Y026042D02*
X040514Y026042D01*
X040514Y026224D02*
X040066Y026224D01*
X040066Y026406D02*
X040514Y026406D01*
X040514Y026588D02*
X040066Y026588D01*
X040066Y026770D02*
X040514Y026770D01*
D20*
X043927Y028725D02*
X043927Y024799D01*
X043927Y028725D02*
X047653Y028725D01*
X047653Y024799D01*
X043927Y024799D01*
X043927Y024953D02*
X047653Y024953D01*
X047653Y025107D02*
X043927Y025107D01*
X043927Y025261D02*
X047653Y025261D01*
X047653Y025415D02*
X043927Y025415D01*
X043927Y025569D02*
X047653Y025569D01*
X047653Y025723D02*
X043927Y025723D01*
X043927Y025877D02*
X047653Y025877D01*
X047653Y026031D02*
X043927Y026031D01*
X043927Y026185D02*
X047653Y026185D01*
X047653Y026339D02*
X043927Y026339D01*
X043927Y026493D02*
X047653Y026493D01*
X047653Y026647D02*
X043927Y026647D01*
X043927Y026801D02*
X047653Y026801D01*
X047653Y026955D02*
X043927Y026955D01*
X043927Y027109D02*
X047653Y027109D01*
X047653Y027263D02*
X043927Y027263D01*
X043927Y027417D02*
X047653Y027417D01*
X047653Y027571D02*
X043927Y027571D01*
X043927Y027725D02*
X047653Y027725D01*
X047653Y027879D02*
X043927Y027879D01*
X043927Y028033D02*
X047653Y028033D01*
X047653Y028187D02*
X043927Y028187D01*
X043927Y028341D02*
X047653Y028341D01*
X047653Y028495D02*
X043927Y028495D01*
X043927Y028649D02*
X047653Y028649D01*
X048802Y028725D02*
X048802Y024799D01*
X048802Y028725D02*
X052528Y028725D01*
X052528Y024799D01*
X048802Y024799D01*
X048802Y024953D02*
X052528Y024953D01*
X052528Y025107D02*
X048802Y025107D01*
X048802Y025261D02*
X052528Y025261D01*
X052528Y025415D02*
X048802Y025415D01*
X048802Y025569D02*
X052528Y025569D01*
X052528Y025723D02*
X048802Y025723D01*
X048802Y025877D02*
X052528Y025877D01*
X052528Y026031D02*
X048802Y026031D01*
X048802Y026185D02*
X052528Y026185D01*
X052528Y026339D02*
X048802Y026339D01*
X048802Y026493D02*
X052528Y026493D01*
X052528Y026647D02*
X048802Y026647D01*
X048802Y026801D02*
X052528Y026801D01*
X052528Y026955D02*
X048802Y026955D01*
X048802Y027109D02*
X052528Y027109D01*
X052528Y027263D02*
X048802Y027263D01*
X048802Y027417D02*
X052528Y027417D01*
X052528Y027571D02*
X048802Y027571D01*
X048802Y027725D02*
X052528Y027725D01*
X052528Y027879D02*
X048802Y027879D01*
X048802Y028033D02*
X052528Y028033D01*
X052528Y028187D02*
X048802Y028187D01*
X048802Y028341D02*
X052528Y028341D01*
X052528Y028495D02*
X048802Y028495D01*
X048802Y028649D02*
X052528Y028649D01*
X034878Y028875D02*
X030952Y028875D01*
X034878Y028875D02*
X034878Y025149D01*
X030952Y025149D01*
X030952Y028875D01*
X030952Y025303D02*
X034878Y025303D01*
X034878Y025457D02*
X030952Y025457D01*
X030952Y025611D02*
X034878Y025611D01*
X034878Y025765D02*
X030952Y025765D01*
X030952Y025919D02*
X034878Y025919D01*
X034878Y026073D02*
X030952Y026073D01*
X030952Y026227D02*
X034878Y026227D01*
X034878Y026381D02*
X030952Y026381D01*
X030952Y026535D02*
X034878Y026535D01*
X034878Y026689D02*
X030952Y026689D01*
X030952Y026843D02*
X034878Y026843D01*
X034878Y026997D02*
X030952Y026997D01*
X030952Y027151D02*
X034878Y027151D01*
X034878Y027305D02*
X030952Y027305D01*
X030952Y027459D02*
X034878Y027459D01*
X034878Y027613D02*
X030952Y027613D01*
X030952Y027767D02*
X034878Y027767D01*
X034878Y027921D02*
X030952Y027921D01*
X030952Y028075D02*
X034878Y028075D01*
X034878Y028229D02*
X030952Y028229D01*
X030952Y028383D02*
X034878Y028383D01*
X034878Y028537D02*
X030952Y028537D01*
X030952Y028691D02*
X034878Y028691D01*
X034878Y028845D02*
X030952Y028845D01*
D21*
X029365Y028371D02*
X029365Y027653D01*
X027965Y027653D01*
X027965Y028371D01*
X029365Y028371D01*
X029365Y027832D02*
X027965Y027832D01*
X027965Y028011D02*
X029365Y028011D01*
X029365Y028190D02*
X027965Y028190D01*
X027965Y028369D02*
X029365Y028369D01*
X029365Y026371D02*
X029365Y025653D01*
X027965Y025653D01*
X027965Y026371D01*
X029365Y026371D01*
X029365Y025832D02*
X027965Y025832D01*
X027965Y026011D02*
X029365Y026011D01*
X029365Y026190D02*
X027965Y026190D01*
X027965Y026369D02*
X029365Y026369D01*
X044431Y023212D02*
X045149Y023212D01*
X045149Y021812D01*
X044431Y021812D01*
X044431Y023212D01*
X044431Y021991D02*
X045149Y021991D01*
X045149Y022170D02*
X044431Y022170D01*
X044431Y022349D02*
X045149Y022349D01*
X045149Y022528D02*
X044431Y022528D01*
X044431Y022707D02*
X045149Y022707D01*
X045149Y022886D02*
X044431Y022886D01*
X044431Y023065D02*
X045149Y023065D01*
X046431Y023212D02*
X047149Y023212D01*
X047149Y021812D01*
X046431Y021812D01*
X046431Y023212D01*
X046431Y021991D02*
X047149Y021991D01*
X047149Y022170D02*
X046431Y022170D01*
X046431Y022349D02*
X047149Y022349D01*
X047149Y022528D02*
X046431Y022528D01*
X046431Y022707D02*
X047149Y022707D01*
X047149Y022886D02*
X046431Y022886D01*
X046431Y023065D02*
X047149Y023065D01*
X049306Y023212D02*
X050024Y023212D01*
X050024Y021812D01*
X049306Y021812D01*
X049306Y023212D01*
X049306Y021991D02*
X050024Y021991D01*
X050024Y022170D02*
X049306Y022170D01*
X049306Y022349D02*
X050024Y022349D01*
X050024Y022528D02*
X049306Y022528D01*
X049306Y022707D02*
X050024Y022707D01*
X050024Y022886D02*
X049306Y022886D01*
X049306Y023065D02*
X050024Y023065D01*
X051306Y023212D02*
X052024Y023212D01*
X052024Y021812D01*
X051306Y021812D01*
X051306Y023212D01*
X051306Y021991D02*
X052024Y021991D01*
X052024Y022170D02*
X051306Y022170D01*
X051306Y022349D02*
X052024Y022349D01*
X052024Y022528D02*
X051306Y022528D01*
X051306Y022707D02*
X052024Y022707D01*
X052024Y022886D02*
X051306Y022886D01*
X051306Y023065D02*
X052024Y023065D01*
D22*
X040915Y007387D03*
X018415Y002887D03*
X013165Y013012D03*
D23*
X012165Y013012D03*
X012165Y014012D03*
X013165Y014012D03*
X013165Y015012D03*
X012165Y015012D03*
X012165Y016012D03*
X013165Y016012D03*
X013165Y017012D03*
X012165Y017012D03*
X012165Y018012D03*
X013165Y018012D03*
X013165Y019012D03*
X012165Y019012D03*
X003852Y020887D03*
D24*
X012574Y021793D03*
X012574Y010251D03*
X055343Y010250D03*
X055343Y021793D03*
D25*
X055324Y021793D03*
X055324Y010230D03*
X012574Y010230D03*
X012574Y021793D03*
D26*
X020339Y019950D02*
X020339Y019756D01*
X019869Y019756D01*
X019869Y019950D01*
X020339Y019950D01*
X020339Y019359D02*
X020339Y019165D01*
X019869Y019165D01*
X019869Y019359D01*
X020339Y019359D01*
X020339Y018769D02*
X020339Y018575D01*
X019869Y018575D01*
X019869Y018769D01*
X020339Y018769D01*
X019762Y006708D02*
X019568Y006708D01*
X019762Y006708D02*
X019762Y006316D01*
X019568Y006316D01*
X019568Y006708D01*
X019568Y006516D02*
X019762Y006516D01*
X019262Y006708D02*
X019068Y006708D01*
X019262Y006708D02*
X019262Y006316D01*
X019068Y006316D01*
X019068Y006708D01*
X019068Y006516D02*
X019262Y006516D01*
X018762Y006708D02*
X018568Y006708D01*
X018762Y006708D02*
X018762Y006316D01*
X018568Y006316D01*
X018568Y006708D01*
X018568Y006516D02*
X018762Y006516D01*
X018262Y006708D02*
X018068Y006708D01*
X018262Y006708D02*
X018262Y006316D01*
X018068Y006316D01*
X018068Y006708D01*
X018068Y006516D02*
X018262Y006516D01*
X018262Y005458D02*
X018068Y005458D01*
X018262Y005458D02*
X018262Y005066D01*
X018068Y005066D01*
X018068Y005458D01*
X018068Y005266D02*
X018262Y005266D01*
X018568Y005458D02*
X018762Y005458D01*
X018762Y005066D01*
X018568Y005066D01*
X018568Y005458D01*
X018568Y005266D02*
X018762Y005266D01*
X019068Y005458D02*
X019262Y005458D01*
X019262Y005066D01*
X019068Y005066D01*
X019068Y005458D01*
X019068Y005266D02*
X019262Y005266D01*
X019568Y005458D02*
X019762Y005458D01*
X019762Y005066D01*
X019568Y005066D01*
X019568Y005458D01*
X019568Y005266D02*
X019762Y005266D01*
X051089Y019012D02*
X051089Y019206D01*
X051089Y019012D02*
X050619Y019012D01*
X050619Y019206D01*
X051089Y019206D01*
X051089Y019603D02*
X051089Y019797D01*
X051089Y019603D02*
X050619Y019603D01*
X050619Y019797D01*
X051089Y019797D01*
X051089Y020193D02*
X051089Y020387D01*
X051089Y020193D02*
X050619Y020193D01*
X050619Y020387D01*
X051089Y020387D01*
D27*
X050296Y020147D02*
X050296Y019253D01*
X049206Y019253D01*
X049206Y020147D01*
X050296Y020147D01*
X050296Y019422D02*
X049206Y019422D01*
X049206Y019591D02*
X050296Y019591D01*
X050296Y019760D02*
X049206Y019760D01*
X049206Y019929D02*
X050296Y019929D01*
X050296Y020098D02*
X049206Y020098D01*
X019546Y019709D02*
X019546Y018815D01*
X018456Y018815D01*
X018456Y019709D01*
X019546Y019709D01*
X019546Y018984D02*
X018456Y018984D01*
X018456Y019153D02*
X019546Y019153D01*
X019546Y019322D02*
X018456Y019322D01*
X018456Y019491D02*
X019546Y019491D01*
X019546Y019660D02*
X018456Y019660D01*
D28*
X017235Y019637D02*
X016595Y019637D01*
X016595Y018637D02*
X017235Y018637D01*
X061845Y021762D02*
X062485Y021762D01*
X062485Y022762D02*
X061845Y022762D01*
X061845Y023762D02*
X062485Y023762D01*
X062485Y024762D02*
X061845Y024762D01*
X061845Y025762D02*
X062485Y025762D01*
X062485Y026762D02*
X061845Y026762D01*
X061845Y027762D02*
X062485Y027762D01*
X062485Y028762D02*
X061845Y028762D01*
D29*
X018094Y017618D02*
X017486Y017618D01*
X018094Y017618D02*
X018094Y016656D01*
X017486Y016656D01*
X017486Y017618D01*
X017486Y016836D02*
X018094Y016836D01*
X018094Y017016D02*
X017486Y017016D01*
X017486Y017196D02*
X018094Y017196D01*
X018094Y017376D02*
X017486Y017376D01*
X017486Y017556D02*
X018094Y017556D01*
X016344Y017618D02*
X015736Y017618D01*
X016344Y017618D02*
X016344Y016656D01*
X015736Y016656D01*
X015736Y017618D01*
X015736Y016836D02*
X016344Y016836D01*
X016344Y017016D02*
X015736Y017016D01*
X015736Y017196D02*
X016344Y017196D01*
X016344Y017376D02*
X015736Y017376D01*
X015736Y017556D02*
X016344Y017556D01*
D30*
X006127Y024903D02*
X005327Y024903D01*
X005327Y026872D02*
X006127Y026872D01*
D31*
X058883Y026762D02*
X059571Y026762D01*
X059571Y025762D02*
X058883Y025762D01*
X058883Y024762D02*
X059571Y024762D01*
X059571Y023762D02*
X058883Y023762D01*
X058883Y022762D02*
X059571Y022762D01*
X059571Y021762D02*
X058883Y021762D01*
X058883Y027762D02*
X059571Y027762D01*
X059571Y028762D02*
X058883Y028762D01*
D32*
X045992Y021277D02*
X045712Y021277D01*
X045992Y021277D02*
X045992Y020997D01*
X045712Y020997D01*
X045712Y021277D01*
X045712Y021190D02*
X045992Y021190D01*
X034930Y022247D02*
X034930Y022527D01*
X034930Y022247D02*
X034650Y022247D01*
X034650Y022527D01*
X034930Y022527D01*
X034930Y022440D02*
X034650Y022440D01*
X029304Y018038D02*
X029024Y018038D01*
X029304Y018038D02*
X029304Y017602D01*
X029024Y017602D01*
X029024Y018038D01*
X029024Y017795D02*
X029304Y017795D01*
X029304Y017988D02*
X029024Y017988D01*
X028556Y018038D02*
X028276Y018038D01*
X028556Y018038D02*
X028556Y017602D01*
X028276Y017602D01*
X028276Y018038D01*
X028276Y017795D02*
X028556Y017795D01*
X028556Y017988D02*
X028276Y017988D01*
X028650Y017172D02*
X028930Y017172D01*
X028930Y016736D01*
X028650Y016736D01*
X028650Y017172D01*
X028650Y016929D02*
X028930Y016929D01*
X028930Y017122D02*
X028650Y017122D01*
X032525Y009902D02*
X032525Y009622D01*
X032525Y009902D02*
X032805Y009902D01*
X032805Y009622D01*
X032525Y009622D01*
X032525Y009815D02*
X032805Y009815D01*
X034650Y009902D02*
X034650Y009622D01*
X034650Y009902D02*
X034930Y009902D01*
X034930Y009622D01*
X034650Y009622D01*
X034650Y009815D02*
X034930Y009815D01*
X032025Y006902D02*
X032025Y006622D01*
X032025Y006902D02*
X032305Y006902D01*
X032305Y006622D01*
X032025Y006622D01*
X032025Y006815D02*
X032305Y006815D01*
X044555Y009747D02*
X044555Y010027D01*
X044555Y009747D02*
X044275Y009747D01*
X044275Y010027D01*
X044555Y010027D01*
X044555Y009940D02*
X044275Y009940D01*
X045680Y009997D02*
X045680Y010277D01*
X045680Y009997D02*
X045400Y009997D01*
X045400Y010277D01*
X045680Y010277D01*
X045680Y010190D02*
X045400Y010190D01*
X018741Y009538D02*
X018461Y009538D01*
X018741Y009538D02*
X018741Y009102D01*
X018461Y009102D01*
X018461Y009538D01*
X018461Y009295D02*
X018741Y009295D01*
X018741Y009488D02*
X018461Y009488D01*
X017993Y009538D02*
X017713Y009538D01*
X017993Y009538D02*
X017993Y009102D01*
X017713Y009102D01*
X017713Y009538D01*
X017713Y009295D02*
X017993Y009295D01*
X017993Y009488D02*
X017713Y009488D01*
X018087Y008672D02*
X018367Y008672D01*
X018367Y008236D01*
X018087Y008236D01*
X018087Y008672D01*
X018087Y008429D02*
X018367Y008429D01*
X018367Y008622D02*
X018087Y008622D01*
X010816Y011936D02*
X010816Y012216D01*
X010816Y011936D02*
X010380Y011936D01*
X010380Y012216D01*
X010816Y012216D01*
X010816Y012129D02*
X010380Y012129D01*
X009950Y012310D02*
X009950Y012590D01*
X009950Y012310D02*
X009514Y012310D01*
X009514Y012590D01*
X009950Y012590D01*
X009950Y012503D02*
X009514Y012503D01*
X010816Y012684D02*
X010816Y012964D01*
X010816Y012684D02*
X010380Y012684D01*
X010380Y012964D01*
X010816Y012964D01*
X010816Y012877D02*
X010380Y012877D01*
X020525Y023997D02*
X020805Y023997D01*
X020525Y023997D02*
X020525Y024277D01*
X020805Y024277D01*
X020805Y023997D01*
X020805Y024190D02*
X020525Y024190D01*
D33*
X038464Y020961D02*
X039866Y020961D01*
X038464Y020961D02*
X038464Y021563D01*
X039866Y021563D01*
X039866Y020961D01*
X039866Y021139D02*
X038464Y021139D01*
X038464Y021317D02*
X039866Y021317D01*
X039866Y021495D02*
X038464Y021495D01*
X042464Y020961D02*
X043866Y020961D01*
X042464Y020961D02*
X042464Y021563D01*
X043866Y021563D01*
X043866Y020961D01*
X043866Y021139D02*
X042464Y021139D01*
X042464Y021317D02*
X043866Y021317D01*
X043866Y021495D02*
X042464Y021495D01*
D34*
X013292Y023578D02*
X013292Y024782D01*
X013292Y023578D02*
X012288Y023578D01*
X012288Y024782D01*
X013292Y024782D01*
X013292Y023754D02*
X012288Y023754D01*
X012288Y023930D02*
X013292Y023930D01*
X013292Y024106D02*
X012288Y024106D01*
X012288Y024282D02*
X013292Y024282D01*
X013292Y024458D02*
X012288Y024458D01*
X012288Y024634D02*
X013292Y024634D01*
X013292Y027867D02*
X013292Y029071D01*
X013292Y027867D02*
X012288Y027867D01*
X012288Y029071D01*
X013292Y029071D01*
X013292Y028043D02*
X012288Y028043D01*
X012288Y028219D02*
X013292Y028219D01*
X013292Y028395D02*
X012288Y028395D01*
X012288Y028571D02*
X013292Y028571D01*
X013292Y028747D02*
X012288Y028747D01*
X012288Y028923D02*
X013292Y028923D01*
D35*
X057502Y011512D03*
X058487Y010823D03*
X058487Y012201D03*
X015854Y002815D03*
X014476Y002815D03*
X015165Y003800D03*
D36*
X030864Y014317D02*
X030966Y014317D01*
X030966Y013585D01*
X030864Y013585D01*
X030864Y014317D01*
X030864Y013799D02*
X030966Y013799D01*
X030966Y014013D02*
X030864Y014013D01*
X030864Y014227D02*
X030966Y014227D01*
X031364Y014317D02*
X031466Y014317D01*
X031466Y013585D01*
X031364Y013585D01*
X031364Y014317D01*
X031364Y013799D02*
X031466Y013799D01*
X031466Y014013D02*
X031364Y014013D01*
X031364Y014227D02*
X031466Y014227D01*
X031864Y014317D02*
X031966Y014317D01*
X031966Y013585D01*
X031864Y013585D01*
X031864Y014317D01*
X031864Y013799D02*
X031966Y013799D01*
X031966Y014013D02*
X031864Y014013D01*
X031864Y014227D02*
X031966Y014227D01*
X032364Y014317D02*
X032466Y014317D01*
X032466Y013585D01*
X032364Y013585D01*
X032364Y014317D01*
X032364Y013799D02*
X032466Y013799D01*
X032466Y014013D02*
X032364Y014013D01*
X032364Y014227D02*
X032466Y014227D01*
X032864Y014317D02*
X032966Y014317D01*
X032966Y013585D01*
X032864Y013585D01*
X032864Y014317D01*
X032864Y013799D02*
X032966Y013799D01*
X032966Y014013D02*
X032864Y014013D01*
X032864Y014227D02*
X032966Y014227D01*
X033364Y014317D02*
X033466Y014317D01*
X033466Y013585D01*
X033364Y013585D01*
X033364Y014317D01*
X033364Y013799D02*
X033466Y013799D01*
X033466Y014013D02*
X033364Y014013D01*
X033364Y014227D02*
X033466Y014227D01*
X033864Y014317D02*
X033966Y014317D01*
X033966Y013585D01*
X033864Y013585D01*
X033864Y014317D01*
X033864Y013799D02*
X033966Y013799D01*
X033966Y014013D02*
X033864Y014013D01*
X033864Y014227D02*
X033966Y014227D01*
X034364Y014317D02*
X034466Y014317D01*
X034466Y013585D01*
X034364Y013585D01*
X034364Y014317D01*
X034364Y013799D02*
X034466Y013799D01*
X034466Y014013D02*
X034364Y014013D01*
X034364Y014227D02*
X034466Y014227D01*
X034864Y014317D02*
X034966Y014317D01*
X034966Y013585D01*
X034864Y013585D01*
X034864Y014317D01*
X034864Y013799D02*
X034966Y013799D01*
X034966Y014013D02*
X034864Y014013D01*
X034864Y014227D02*
X034966Y014227D01*
X036614Y014317D02*
X036716Y014317D01*
X036716Y013585D01*
X036614Y013585D01*
X036614Y014317D01*
X036614Y013799D02*
X036716Y013799D01*
X036716Y014013D02*
X036614Y014013D01*
X036614Y014227D02*
X036716Y014227D01*
X037114Y014317D02*
X037216Y014317D01*
X037216Y013585D01*
X037114Y013585D01*
X037114Y014317D01*
X037114Y013799D02*
X037216Y013799D01*
X037216Y014013D02*
X037114Y014013D01*
X037114Y014227D02*
X037216Y014227D01*
X037614Y014317D02*
X037716Y014317D01*
X037716Y013585D01*
X037614Y013585D01*
X037614Y014317D01*
X037614Y013799D02*
X037716Y013799D01*
X037716Y014013D02*
X037614Y014013D01*
X037614Y014227D02*
X037716Y014227D01*
X038114Y014317D02*
X038216Y014317D01*
X038216Y013585D01*
X038114Y013585D01*
X038114Y014317D01*
X038114Y013799D02*
X038216Y013799D01*
X038216Y014013D02*
X038114Y014013D01*
X038114Y014227D02*
X038216Y014227D01*
X038614Y014317D02*
X038716Y014317D01*
X038716Y013585D01*
X038614Y013585D01*
X038614Y014317D01*
X038614Y013799D02*
X038716Y013799D01*
X038716Y014013D02*
X038614Y014013D01*
X038614Y014227D02*
X038716Y014227D01*
X039114Y014317D02*
X039216Y014317D01*
X039216Y013585D01*
X039114Y013585D01*
X039114Y014317D01*
X039114Y013799D02*
X039216Y013799D01*
X039216Y014013D02*
X039114Y014013D01*
X039114Y014227D02*
X039216Y014227D01*
X039614Y014317D02*
X039716Y014317D01*
X039716Y013585D01*
X039614Y013585D01*
X039614Y014317D01*
X039614Y013799D02*
X039716Y013799D01*
X039716Y014013D02*
X039614Y014013D01*
X039614Y014227D02*
X039716Y014227D01*
X040114Y014317D02*
X040216Y014317D01*
X040216Y013585D01*
X040114Y013585D01*
X040114Y014317D01*
X040114Y013799D02*
X040216Y013799D01*
X040216Y014013D02*
X040114Y014013D01*
X040114Y014227D02*
X040216Y014227D01*
X040614Y014317D02*
X040716Y014317D01*
X040716Y013585D01*
X040614Y013585D01*
X040614Y014317D01*
X040614Y013799D02*
X040716Y013799D01*
X040716Y014013D02*
X040614Y014013D01*
X040614Y014227D02*
X040716Y014227D01*
X041114Y014317D02*
X041216Y014317D01*
X041216Y013585D01*
X041114Y013585D01*
X041114Y014317D01*
X041114Y013799D02*
X041216Y013799D01*
X041216Y014013D02*
X041114Y014013D01*
X041114Y014227D02*
X041216Y014227D01*
X041614Y014317D02*
X041716Y014317D01*
X041716Y013585D01*
X041614Y013585D01*
X041614Y014317D01*
X041614Y013799D02*
X041716Y013799D01*
X041716Y014013D02*
X041614Y014013D01*
X041614Y014227D02*
X041716Y014227D01*
X042114Y014317D02*
X042216Y014317D01*
X042216Y013585D01*
X042114Y013585D01*
X042114Y014317D01*
X042114Y013799D02*
X042216Y013799D01*
X042216Y014013D02*
X042114Y014013D01*
X042114Y014227D02*
X042216Y014227D01*
X043864Y014317D02*
X043966Y014317D01*
X043966Y013585D01*
X043864Y013585D01*
X043864Y014317D01*
X043864Y013799D02*
X043966Y013799D01*
X043966Y014013D02*
X043864Y014013D01*
X043864Y014227D02*
X043966Y014227D01*
X044364Y014317D02*
X044466Y014317D01*
X044466Y013585D01*
X044364Y013585D01*
X044364Y014317D01*
X044364Y013799D02*
X044466Y013799D01*
X044466Y014013D02*
X044364Y014013D01*
X044364Y014227D02*
X044466Y014227D01*
X044864Y014317D02*
X044966Y014317D01*
X044966Y013585D01*
X044864Y013585D01*
X044864Y014317D01*
X044864Y013799D02*
X044966Y013799D01*
X044966Y014013D02*
X044864Y014013D01*
X044864Y014227D02*
X044966Y014227D01*
X045364Y014317D02*
X045466Y014317D01*
X045466Y013585D01*
X045364Y013585D01*
X045364Y014317D01*
X045364Y013799D02*
X045466Y013799D01*
X045466Y014013D02*
X045364Y014013D01*
X045364Y014227D02*
X045466Y014227D01*
X045864Y014317D02*
X045966Y014317D01*
X045966Y013585D01*
X045864Y013585D01*
X045864Y014317D01*
X045864Y013799D02*
X045966Y013799D01*
X045966Y014013D02*
X045864Y014013D01*
X045864Y014227D02*
X045966Y014227D01*
X046364Y014317D02*
X046466Y014317D01*
X046466Y013585D01*
X046364Y013585D01*
X046364Y014317D01*
X046364Y013799D02*
X046466Y013799D01*
X046466Y014013D02*
X046364Y014013D01*
X046364Y014227D02*
X046466Y014227D01*
X046864Y014317D02*
X046966Y014317D01*
X046966Y013585D01*
X046864Y013585D01*
X046864Y014317D01*
X046864Y013799D02*
X046966Y013799D01*
X046966Y014013D02*
X046864Y014013D01*
X046864Y014227D02*
X046966Y014227D01*
X047364Y014317D02*
X047466Y014317D01*
X047466Y013585D01*
X047364Y013585D01*
X047364Y014317D01*
X047364Y013799D02*
X047466Y013799D01*
X047466Y014013D02*
X047364Y014013D01*
X047364Y014227D02*
X047466Y014227D01*
X047864Y014317D02*
X047966Y014317D01*
X047966Y013585D01*
X047864Y013585D01*
X047864Y014317D01*
X047864Y013799D02*
X047966Y013799D01*
X047966Y014013D02*
X047864Y014013D01*
X047864Y014227D02*
X047966Y014227D01*
X048364Y014317D02*
X048466Y014317D01*
X048466Y013585D01*
X048364Y013585D01*
X048364Y014317D01*
X048364Y013799D02*
X048466Y013799D01*
X048466Y014013D02*
X048364Y014013D01*
X048364Y014227D02*
X048466Y014227D01*
X048864Y014317D02*
X048966Y014317D01*
X048966Y013585D01*
X048864Y013585D01*
X048864Y014317D01*
X048864Y013799D02*
X048966Y013799D01*
X048966Y014013D02*
X048864Y014013D01*
X048864Y014227D02*
X048966Y014227D01*
X049364Y014317D02*
X049466Y014317D01*
X049466Y013585D01*
X049364Y013585D01*
X049364Y014317D01*
X049364Y013799D02*
X049466Y013799D01*
X049466Y014013D02*
X049364Y014013D01*
X049364Y014227D02*
X049466Y014227D01*
X049864Y014317D02*
X049966Y014317D01*
X049966Y013585D01*
X049864Y013585D01*
X049864Y014317D01*
X049864Y013799D02*
X049966Y013799D01*
X049966Y014013D02*
X049864Y014013D01*
X049864Y014227D02*
X049966Y014227D01*
X050364Y014317D02*
X050466Y014317D01*
X050466Y013585D01*
X050364Y013585D01*
X050364Y014317D01*
X050364Y013799D02*
X050466Y013799D01*
X050466Y014013D02*
X050364Y014013D01*
X050364Y014227D02*
X050466Y014227D01*
X050466Y017939D02*
X050364Y017939D01*
X050466Y017939D02*
X050466Y017207D01*
X050364Y017207D01*
X050364Y017939D01*
X050364Y017421D02*
X050466Y017421D01*
X050466Y017635D02*
X050364Y017635D01*
X050364Y017849D02*
X050466Y017849D01*
X049966Y017939D02*
X049864Y017939D01*
X049966Y017939D02*
X049966Y017207D01*
X049864Y017207D01*
X049864Y017939D01*
X049864Y017421D02*
X049966Y017421D01*
X049966Y017635D02*
X049864Y017635D01*
X049864Y017849D02*
X049966Y017849D01*
X049466Y017939D02*
X049364Y017939D01*
X049466Y017939D02*
X049466Y017207D01*
X049364Y017207D01*
X049364Y017939D01*
X049364Y017421D02*
X049466Y017421D01*
X049466Y017635D02*
X049364Y017635D01*
X049364Y017849D02*
X049466Y017849D01*
X048966Y017939D02*
X048864Y017939D01*
X048966Y017939D02*
X048966Y017207D01*
X048864Y017207D01*
X048864Y017939D01*
X048864Y017421D02*
X048966Y017421D01*
X048966Y017635D02*
X048864Y017635D01*
X048864Y017849D02*
X048966Y017849D01*
X048466Y017939D02*
X048364Y017939D01*
X048466Y017939D02*
X048466Y017207D01*
X048364Y017207D01*
X048364Y017939D01*
X048364Y017421D02*
X048466Y017421D01*
X048466Y017635D02*
X048364Y017635D01*
X048364Y017849D02*
X048466Y017849D01*
X047966Y017939D02*
X047864Y017939D01*
X047966Y017939D02*
X047966Y017207D01*
X047864Y017207D01*
X047864Y017939D01*
X047864Y017421D02*
X047966Y017421D01*
X047966Y017635D02*
X047864Y017635D01*
X047864Y017849D02*
X047966Y017849D01*
X047466Y017939D02*
X047364Y017939D01*
X047466Y017939D02*
X047466Y017207D01*
X047364Y017207D01*
X047364Y017939D01*
X047364Y017421D02*
X047466Y017421D01*
X047466Y017635D02*
X047364Y017635D01*
X047364Y017849D02*
X047466Y017849D01*
X046966Y017939D02*
X046864Y017939D01*
X046966Y017939D02*
X046966Y017207D01*
X046864Y017207D01*
X046864Y017939D01*
X046864Y017421D02*
X046966Y017421D01*
X046966Y017635D02*
X046864Y017635D01*
X046864Y017849D02*
X046966Y017849D01*
X046466Y017939D02*
X046364Y017939D01*
X046466Y017939D02*
X046466Y017207D01*
X046364Y017207D01*
X046364Y017939D01*
X046364Y017421D02*
X046466Y017421D01*
X046466Y017635D02*
X046364Y017635D01*
X046364Y017849D02*
X046466Y017849D01*
X045966Y017939D02*
X045864Y017939D01*
X045966Y017939D02*
X045966Y017207D01*
X045864Y017207D01*
X045864Y017939D01*
X045864Y017421D02*
X045966Y017421D01*
X045966Y017635D02*
X045864Y017635D01*
X045864Y017849D02*
X045966Y017849D01*
X045466Y017939D02*
X045364Y017939D01*
X045466Y017939D02*
X045466Y017207D01*
X045364Y017207D01*
X045364Y017939D01*
X045364Y017421D02*
X045466Y017421D01*
X045466Y017635D02*
X045364Y017635D01*
X045364Y017849D02*
X045466Y017849D01*
X044966Y017939D02*
X044864Y017939D01*
X044966Y017939D02*
X044966Y017207D01*
X044864Y017207D01*
X044864Y017939D01*
X044864Y017421D02*
X044966Y017421D01*
X044966Y017635D02*
X044864Y017635D01*
X044864Y017849D02*
X044966Y017849D01*
X044466Y017939D02*
X044364Y017939D01*
X044466Y017939D02*
X044466Y017207D01*
X044364Y017207D01*
X044364Y017939D01*
X044364Y017421D02*
X044466Y017421D01*
X044466Y017635D02*
X044364Y017635D01*
X044364Y017849D02*
X044466Y017849D01*
X043966Y017939D02*
X043864Y017939D01*
X043966Y017939D02*
X043966Y017207D01*
X043864Y017207D01*
X043864Y017939D01*
X043864Y017421D02*
X043966Y017421D01*
X043966Y017635D02*
X043864Y017635D01*
X043864Y017849D02*
X043966Y017849D01*
X042216Y017939D02*
X042114Y017939D01*
X042216Y017939D02*
X042216Y017207D01*
X042114Y017207D01*
X042114Y017939D01*
X042114Y017421D02*
X042216Y017421D01*
X042216Y017635D02*
X042114Y017635D01*
X042114Y017849D02*
X042216Y017849D01*
X041716Y017939D02*
X041614Y017939D01*
X041716Y017939D02*
X041716Y017207D01*
X041614Y017207D01*
X041614Y017939D01*
X041614Y017421D02*
X041716Y017421D01*
X041716Y017635D02*
X041614Y017635D01*
X041614Y017849D02*
X041716Y017849D01*
X041216Y017939D02*
X041114Y017939D01*
X041216Y017939D02*
X041216Y017207D01*
X041114Y017207D01*
X041114Y017939D01*
X041114Y017421D02*
X041216Y017421D01*
X041216Y017635D02*
X041114Y017635D01*
X041114Y017849D02*
X041216Y017849D01*
X040716Y017939D02*
X040614Y017939D01*
X040716Y017939D02*
X040716Y017207D01*
X040614Y017207D01*
X040614Y017939D01*
X040614Y017421D02*
X040716Y017421D01*
X040716Y017635D02*
X040614Y017635D01*
X040614Y017849D02*
X040716Y017849D01*
X040216Y017939D02*
X040114Y017939D01*
X040216Y017939D02*
X040216Y017207D01*
X040114Y017207D01*
X040114Y017939D01*
X040114Y017421D02*
X040216Y017421D01*
X040216Y017635D02*
X040114Y017635D01*
X040114Y017849D02*
X040216Y017849D01*
X039716Y017939D02*
X039614Y017939D01*
X039716Y017939D02*
X039716Y017207D01*
X039614Y017207D01*
X039614Y017939D01*
X039614Y017421D02*
X039716Y017421D01*
X039716Y017635D02*
X039614Y017635D01*
X039614Y017849D02*
X039716Y017849D01*
X039216Y017939D02*
X039114Y017939D01*
X039216Y017939D02*
X039216Y017207D01*
X039114Y017207D01*
X039114Y017939D01*
X039114Y017421D02*
X039216Y017421D01*
X039216Y017635D02*
X039114Y017635D01*
X039114Y017849D02*
X039216Y017849D01*
X038716Y017939D02*
X038614Y017939D01*
X038716Y017939D02*
X038716Y017207D01*
X038614Y017207D01*
X038614Y017939D01*
X038614Y017421D02*
X038716Y017421D01*
X038716Y017635D02*
X038614Y017635D01*
X038614Y017849D02*
X038716Y017849D01*
X038216Y017939D02*
X038114Y017939D01*
X038216Y017939D02*
X038216Y017207D01*
X038114Y017207D01*
X038114Y017939D01*
X038114Y017421D02*
X038216Y017421D01*
X038216Y017635D02*
X038114Y017635D01*
X038114Y017849D02*
X038216Y017849D01*
X037716Y017939D02*
X037614Y017939D01*
X037716Y017939D02*
X037716Y017207D01*
X037614Y017207D01*
X037614Y017939D01*
X037614Y017421D02*
X037716Y017421D01*
X037716Y017635D02*
X037614Y017635D01*
X037614Y017849D02*
X037716Y017849D01*
X037216Y017939D02*
X037114Y017939D01*
X037216Y017939D02*
X037216Y017207D01*
X037114Y017207D01*
X037114Y017939D01*
X037114Y017421D02*
X037216Y017421D01*
X037216Y017635D02*
X037114Y017635D01*
X037114Y017849D02*
X037216Y017849D01*
X036716Y017939D02*
X036614Y017939D01*
X036716Y017939D02*
X036716Y017207D01*
X036614Y017207D01*
X036614Y017939D01*
X036614Y017421D02*
X036716Y017421D01*
X036716Y017635D02*
X036614Y017635D01*
X036614Y017849D02*
X036716Y017849D01*
X034966Y017939D02*
X034864Y017939D01*
X034966Y017939D02*
X034966Y017207D01*
X034864Y017207D01*
X034864Y017939D01*
X034864Y017421D02*
X034966Y017421D01*
X034966Y017635D02*
X034864Y017635D01*
X034864Y017849D02*
X034966Y017849D01*
X034466Y017939D02*
X034364Y017939D01*
X034466Y017939D02*
X034466Y017207D01*
X034364Y017207D01*
X034364Y017939D01*
X034364Y017421D02*
X034466Y017421D01*
X034466Y017635D02*
X034364Y017635D01*
X034364Y017849D02*
X034466Y017849D01*
X033966Y017939D02*
X033864Y017939D01*
X033966Y017939D02*
X033966Y017207D01*
X033864Y017207D01*
X033864Y017939D01*
X033864Y017421D02*
X033966Y017421D01*
X033966Y017635D02*
X033864Y017635D01*
X033864Y017849D02*
X033966Y017849D01*
X033466Y017939D02*
X033364Y017939D01*
X033466Y017939D02*
X033466Y017207D01*
X033364Y017207D01*
X033364Y017939D01*
X033364Y017421D02*
X033466Y017421D01*
X033466Y017635D02*
X033364Y017635D01*
X033364Y017849D02*
X033466Y017849D01*
X032966Y017939D02*
X032864Y017939D01*
X032966Y017939D02*
X032966Y017207D01*
X032864Y017207D01*
X032864Y017939D01*
X032864Y017421D02*
X032966Y017421D01*
X032966Y017635D02*
X032864Y017635D01*
X032864Y017849D02*
X032966Y017849D01*
X032466Y017939D02*
X032364Y017939D01*
X032466Y017939D02*
X032466Y017207D01*
X032364Y017207D01*
X032364Y017939D01*
X032364Y017421D02*
X032466Y017421D01*
X032466Y017635D02*
X032364Y017635D01*
X032364Y017849D02*
X032466Y017849D01*
X031966Y017939D02*
X031864Y017939D01*
X031966Y017939D02*
X031966Y017207D01*
X031864Y017207D01*
X031864Y017939D01*
X031864Y017421D02*
X031966Y017421D01*
X031966Y017635D02*
X031864Y017635D01*
X031864Y017849D02*
X031966Y017849D01*
X031466Y017939D02*
X031364Y017939D01*
X031466Y017939D02*
X031466Y017207D01*
X031364Y017207D01*
X031364Y017939D01*
X031364Y017421D02*
X031466Y017421D01*
X031466Y017635D02*
X031364Y017635D01*
X031364Y017849D02*
X031466Y017849D01*
X030966Y017207D02*
X030864Y017207D01*
X030864Y017939D01*
X030966Y017939D01*
X030966Y017207D01*
X030966Y017421D02*
X030864Y017421D01*
X030864Y017635D02*
X030966Y017635D01*
X030966Y017849D02*
X030864Y017849D01*
X020197Y020836D02*
X020197Y020938D01*
X020929Y020938D01*
X020929Y020836D01*
X020197Y020836D01*
X020197Y021336D02*
X020197Y021438D01*
X020929Y021438D01*
X020929Y021336D01*
X020197Y021336D01*
X020197Y021836D02*
X020197Y021938D01*
X020929Y021938D01*
X020929Y021836D01*
X020197Y021836D01*
X020197Y022336D02*
X020197Y022438D01*
X020929Y022438D01*
X020929Y022336D01*
X020197Y022336D01*
X018150Y022336D02*
X018150Y022438D01*
X018882Y022438D01*
X018882Y022336D01*
X018150Y022336D01*
X018150Y021938D02*
X018150Y021836D01*
X018150Y021938D02*
X018882Y021938D01*
X018882Y021836D01*
X018150Y021836D01*
X018150Y021438D02*
X018150Y021336D01*
X018150Y021438D02*
X018882Y021438D01*
X018882Y021336D01*
X018150Y021336D01*
X018150Y020938D02*
X018150Y020836D01*
X018150Y020938D02*
X018882Y020938D01*
X018882Y020836D01*
X018150Y020836D01*
X046525Y010188D02*
X046525Y010086D01*
X046525Y010188D02*
X047257Y010188D01*
X047257Y010086D01*
X046525Y010086D01*
X046525Y009688D02*
X046525Y009586D01*
X046525Y009688D02*
X047257Y009688D01*
X047257Y009586D01*
X046525Y009586D01*
X046525Y009188D02*
X046525Y009086D01*
X046525Y009188D02*
X047257Y009188D01*
X047257Y009086D01*
X046525Y009086D01*
X046525Y008688D02*
X046525Y008586D01*
X046525Y008688D02*
X047257Y008688D01*
X047257Y008586D01*
X046525Y008586D01*
X048572Y008586D02*
X048572Y008688D01*
X049304Y008688D01*
X049304Y008586D01*
X048572Y008586D01*
X048572Y009086D02*
X048572Y009188D01*
X049304Y009188D01*
X049304Y009086D01*
X048572Y009086D01*
X048572Y009586D02*
X048572Y009688D01*
X049304Y009688D01*
X049304Y009586D01*
X048572Y009586D01*
X048572Y010086D02*
X048572Y010188D01*
X049304Y010188D01*
X049304Y010086D01*
X048572Y010086D01*
X049882Y005438D02*
X049882Y005336D01*
X049150Y005336D01*
X049150Y005438D01*
X049882Y005438D01*
X049882Y004938D02*
X049882Y004836D01*
X049150Y004836D01*
X049150Y004938D01*
X049882Y004938D01*
X049882Y004438D02*
X049882Y004336D01*
X049150Y004336D01*
X049150Y004438D01*
X049882Y004438D01*
X049882Y003938D02*
X049882Y003836D01*
X049150Y003836D01*
X049150Y003938D01*
X049882Y003938D01*
X049882Y003438D02*
X049882Y003336D01*
X049150Y003336D01*
X049150Y003438D01*
X049882Y003438D01*
X049882Y002938D02*
X049882Y002836D01*
X049150Y002836D01*
X049150Y002938D01*
X049882Y002938D01*
X049882Y002438D02*
X049882Y002336D01*
X049150Y002336D01*
X049150Y002438D01*
X049882Y002438D01*
X051929Y002438D02*
X051929Y002336D01*
X051197Y002336D01*
X051197Y002438D01*
X051929Y002438D01*
X051929Y002836D02*
X051929Y002938D01*
X051929Y002836D02*
X051197Y002836D01*
X051197Y002938D01*
X051929Y002938D01*
X051929Y003336D02*
X051929Y003438D01*
X051929Y003336D02*
X051197Y003336D01*
X051197Y003438D01*
X051929Y003438D01*
X051929Y003836D02*
X051929Y003938D01*
X051929Y003836D02*
X051197Y003836D01*
X051197Y003938D01*
X051929Y003938D01*
X051929Y004336D02*
X051929Y004438D01*
X051929Y004336D02*
X051197Y004336D01*
X051197Y004438D01*
X051929Y004438D01*
X051929Y004836D02*
X051929Y004938D01*
X051929Y004836D02*
X051197Y004836D01*
X051197Y004938D01*
X051929Y004938D01*
X051929Y005336D02*
X051929Y005438D01*
X051929Y005336D02*
X051197Y005336D01*
X051197Y005438D01*
X051929Y005438D01*
X041304Y005438D02*
X041304Y005336D01*
X040572Y005336D01*
X040572Y005438D01*
X041304Y005438D01*
X041304Y004938D02*
X041304Y004836D01*
X040572Y004836D01*
X040572Y004938D01*
X041304Y004938D01*
X041304Y004438D02*
X041304Y004336D01*
X040572Y004336D01*
X040572Y004438D01*
X041304Y004438D01*
X041304Y003938D02*
X041304Y003836D01*
X040572Y003836D01*
X040572Y003938D01*
X041304Y003938D01*
X041304Y003438D02*
X041304Y003336D01*
X040572Y003336D01*
X040572Y003438D01*
X041304Y003438D01*
X041304Y002938D02*
X041304Y002836D01*
X040572Y002836D01*
X040572Y002938D01*
X041304Y002938D01*
X041304Y002438D02*
X041304Y002336D01*
X040572Y002336D01*
X040572Y002438D01*
X041304Y002438D01*
X039257Y002438D02*
X039257Y002336D01*
X038525Y002336D01*
X038525Y002438D01*
X039257Y002438D01*
X039257Y002836D02*
X039257Y002938D01*
X039257Y002836D02*
X038525Y002836D01*
X038525Y002938D01*
X039257Y002938D01*
X039257Y003336D02*
X039257Y003438D01*
X039257Y003336D02*
X038525Y003336D01*
X038525Y003438D01*
X039257Y003438D01*
X039257Y003836D02*
X039257Y003938D01*
X039257Y003836D02*
X038525Y003836D01*
X038525Y003938D01*
X039257Y003938D01*
X039257Y004336D02*
X039257Y004438D01*
X039257Y004336D02*
X038525Y004336D01*
X038525Y004438D01*
X039257Y004438D01*
X039257Y004836D02*
X039257Y004938D01*
X039257Y004836D02*
X038525Y004836D01*
X038525Y004938D01*
X039257Y004938D01*
X039257Y005336D02*
X039257Y005438D01*
X039257Y005336D02*
X038525Y005336D01*
X038525Y005438D01*
X039257Y005438D01*
D37*
X034588Y009073D02*
X033992Y009073D01*
X034588Y009073D02*
X034588Y008577D01*
X033992Y008577D01*
X033992Y009073D01*
X033992Y008760D02*
X034588Y008760D01*
X034588Y008943D02*
X033992Y008943D01*
X033338Y009073D02*
X032742Y009073D01*
X033338Y009073D02*
X033338Y008577D01*
X032742Y008577D01*
X032742Y009073D01*
X032742Y008760D02*
X033338Y008760D01*
X033338Y008943D02*
X032742Y008943D01*
X035917Y018714D02*
X035917Y019310D01*
X036413Y019310D01*
X036413Y018714D01*
X035917Y018714D01*
X035917Y018897D02*
X036413Y018897D01*
X036413Y019080D02*
X035917Y019080D01*
X035917Y019263D02*
X036413Y019263D01*
X037417Y019310D02*
X037417Y018714D01*
X037417Y019310D02*
X037913Y019310D01*
X037913Y018714D01*
X037417Y018714D01*
X037417Y018897D02*
X037913Y018897D01*
X037913Y019080D02*
X037417Y019080D01*
X037417Y019263D02*
X037913Y019263D01*
X037417Y019964D02*
X037417Y020560D01*
X037913Y020560D01*
X037913Y019964D01*
X037417Y019964D01*
X037417Y020147D02*
X037913Y020147D01*
X037913Y020330D02*
X037417Y020330D01*
X037417Y020513D02*
X037913Y020513D01*
X035917Y020560D02*
X035917Y019964D01*
X035917Y020560D02*
X036413Y020560D01*
X036413Y019964D01*
X035917Y019964D01*
X035917Y020147D02*
X036413Y020147D01*
X036413Y020330D02*
X035917Y020330D01*
X035917Y020513D02*
X036413Y020513D01*
X045038Y020685D02*
X045038Y020089D01*
X044542Y020089D01*
X044542Y020685D01*
X045038Y020685D01*
X045038Y020272D02*
X044542Y020272D01*
X044542Y020455D02*
X045038Y020455D01*
X045038Y020638D02*
X044542Y020638D01*
X045038Y019435D02*
X045038Y018839D01*
X044542Y018839D01*
X044542Y019435D01*
X045038Y019435D01*
X045038Y019022D02*
X044542Y019022D01*
X044542Y019205D02*
X045038Y019205D01*
X045038Y019388D02*
X044542Y019388D01*
D38*
X052290Y019512D03*
X053290Y019512D03*
X053290Y018512D03*
X052290Y018512D03*
X052290Y017512D03*
X053290Y017512D03*
X053290Y016512D03*
X052290Y016512D03*
X052290Y015512D03*
X053290Y015512D03*
X053290Y014512D03*
X052290Y014512D03*
X052290Y013512D03*
X053290Y013512D03*
X053290Y012512D03*
X052290Y012512D03*
X052290Y011512D03*
X062415Y011903D03*
X062415Y010872D03*
X062415Y008903D03*
X062415Y007872D03*
X062415Y005903D03*
X062415Y004872D03*
X062415Y002903D03*
X062415Y013872D03*
X062415Y014903D03*
X062415Y016872D03*
X062415Y017903D03*
X062415Y019872D03*
X053290Y020512D03*
X052290Y020512D03*
X029790Y003887D03*
X028790Y003887D03*
X027790Y003887D03*
X026790Y003887D03*
X025790Y003887D03*
X026790Y002887D03*
X027790Y002887D03*
X028790Y002887D03*
X029790Y002887D03*
X023540Y002887D03*
X022540Y002887D03*
X022540Y003887D03*
X021540Y003887D03*
X023540Y003887D03*
D39*
X061430Y003887D03*
X061430Y006887D03*
X061430Y009887D03*
X061430Y012887D03*
X061430Y015887D03*
X061430Y018887D03*
D40*
X017540Y021637D03*
X017540Y022637D03*
D41*
X007442Y010442D03*
X006352Y009897D03*
X007442Y009352D03*
X006352Y008807D03*
X007442Y008262D03*
X006352Y007717D03*
X007442Y007172D03*
X006352Y006627D03*
X007442Y006082D03*
D42*
X006897Y003357D03*
X006897Y013167D03*
D43*
X018415Y003887D03*
X019415Y003887D03*
X019415Y002887D03*
X038915Y007387D03*
X039915Y007387D03*
D44*
X004852Y020887D03*
D45*
X021540Y002887D03*
X025790Y002887D03*
X053290Y011512D03*
D46*
X037665Y022012D03*
X009540Y003012D03*
D47*
X019290Y008387D03*
D48*
X036840Y023462D02*
X036840Y024312D01*
X036840Y023462D02*
X035990Y023462D01*
X035990Y024312D01*
X036840Y024312D01*
X036840Y023635D02*
X035990Y023635D01*
X035990Y023808D02*
X036840Y023808D01*
X036840Y023981D02*
X035990Y023981D01*
X035990Y024154D02*
X036840Y024154D01*
X036840Y025212D02*
X036840Y026062D01*
X036840Y025212D02*
X035990Y025212D01*
X035990Y026062D01*
X036840Y026062D01*
X036840Y025385D02*
X035990Y025385D01*
X035990Y025558D02*
X036840Y025558D01*
X036840Y025731D02*
X035990Y025731D01*
X035990Y025904D02*
X036840Y025904D01*
X028840Y023837D02*
X027990Y023837D01*
X027990Y024687D01*
X028840Y024687D01*
X028840Y023837D01*
X028840Y024010D02*
X027990Y024010D01*
X027990Y024183D02*
X028840Y024183D01*
X028840Y024356D02*
X027990Y024356D01*
X027990Y024529D02*
X028840Y024529D01*
X027090Y023837D02*
X026240Y023837D01*
X026240Y024687D01*
X027090Y024687D01*
X027090Y023837D01*
X027090Y024010D02*
X026240Y024010D01*
X026240Y024183D02*
X027090Y024183D01*
X027090Y024356D02*
X026240Y024356D01*
X026240Y024529D02*
X027090Y024529D01*
X018090Y024562D02*
X018090Y023712D01*
X017240Y023712D01*
X017240Y024562D01*
X018090Y024562D01*
X018090Y023885D02*
X017240Y023885D01*
X017240Y024058D02*
X018090Y024058D01*
X018090Y024231D02*
X017240Y024231D01*
X017240Y024404D02*
X018090Y024404D01*
X016215Y024562D02*
X016215Y023712D01*
X015365Y023712D01*
X015365Y024562D01*
X016215Y024562D01*
X016215Y023885D02*
X015365Y023885D01*
X015365Y024058D02*
X016215Y024058D01*
X016215Y024231D02*
X015365Y024231D01*
X015365Y024404D02*
X016215Y024404D01*
X016215Y025462D02*
X016215Y026312D01*
X016215Y025462D02*
X015365Y025462D01*
X015365Y026312D01*
X016215Y026312D01*
X016215Y025635D02*
X015365Y025635D01*
X015365Y025808D02*
X016215Y025808D01*
X016215Y025981D02*
X015365Y025981D01*
X015365Y026154D02*
X016215Y026154D01*
X018090Y026312D02*
X018090Y025462D01*
X017240Y025462D01*
X017240Y026312D01*
X018090Y026312D01*
X018090Y025635D02*
X017240Y025635D01*
X017240Y025808D02*
X018090Y025808D01*
X018090Y025981D02*
X017240Y025981D01*
X017240Y026154D02*
X018090Y026154D01*
D49*
X020219Y014874D02*
X020219Y014542D01*
X020137Y014542D01*
X020137Y014874D01*
X020219Y014874D01*
X020219Y014760D02*
X020137Y014760D01*
X020533Y014874D02*
X020533Y014542D01*
X020451Y014542D01*
X020451Y014874D01*
X020533Y014874D01*
X020533Y014760D02*
X020451Y014760D01*
X020848Y014874D02*
X020848Y014542D01*
X020766Y014542D01*
X020766Y014874D01*
X020848Y014874D01*
X020848Y014760D02*
X020766Y014760D01*
X021163Y014874D02*
X021163Y014542D01*
X021081Y014542D01*
X021081Y014874D01*
X021163Y014874D01*
X021163Y014760D02*
X021081Y014760D01*
X021478Y014874D02*
X021478Y014542D01*
X021396Y014542D01*
X021396Y014874D01*
X021478Y014874D01*
X021478Y014760D02*
X021396Y014760D01*
X021793Y014874D02*
X021793Y014542D01*
X021711Y014542D01*
X021711Y014874D01*
X021793Y014874D01*
X021793Y014760D02*
X021711Y014760D01*
X022108Y014874D02*
X022108Y014542D01*
X022026Y014542D01*
X022026Y014874D01*
X022108Y014874D01*
X022108Y014760D02*
X022026Y014760D01*
X022423Y014874D02*
X022423Y014542D01*
X022341Y014542D01*
X022341Y014874D01*
X022423Y014874D01*
X022423Y014760D02*
X022341Y014760D01*
X022738Y014874D02*
X022738Y014542D01*
X022656Y014542D01*
X022656Y014874D01*
X022738Y014874D01*
X022738Y014760D02*
X022656Y014760D01*
X023053Y014874D02*
X023053Y014542D01*
X022971Y014542D01*
X022971Y014874D01*
X023053Y014874D01*
X023053Y014760D02*
X022971Y014760D01*
X023368Y014874D02*
X023368Y014542D01*
X023286Y014542D01*
X023286Y014874D01*
X023368Y014874D01*
X023368Y014760D02*
X023286Y014760D01*
X023683Y014874D02*
X023683Y014542D01*
X023601Y014542D01*
X023601Y014874D01*
X023683Y014874D01*
X023683Y014760D02*
X023601Y014760D01*
X023998Y014874D02*
X023998Y014542D01*
X023916Y014542D01*
X023916Y014874D01*
X023998Y014874D01*
X023998Y014760D02*
X023916Y014760D01*
X024313Y014874D02*
X024313Y014542D01*
X024231Y014542D01*
X024231Y014874D01*
X024313Y014874D01*
X024313Y014760D02*
X024231Y014760D01*
X024628Y014874D02*
X024628Y014542D01*
X024546Y014542D01*
X024546Y014874D01*
X024628Y014874D01*
X024628Y014760D02*
X024546Y014760D01*
X024943Y014874D02*
X024943Y014542D01*
X024861Y014542D01*
X024861Y014874D01*
X024943Y014874D01*
X024943Y014760D02*
X024861Y014760D01*
X025777Y014040D02*
X025777Y013958D01*
X025445Y013958D01*
X025445Y014040D01*
X025777Y014040D01*
X025777Y013726D02*
X025777Y013644D01*
X025445Y013644D01*
X025445Y013726D01*
X025777Y013726D01*
X025777Y013411D02*
X025777Y013329D01*
X025445Y013329D01*
X025445Y013411D01*
X025777Y013411D01*
X025777Y013096D02*
X025777Y013014D01*
X025445Y013014D01*
X025445Y013096D01*
X025777Y013096D01*
X025777Y012781D02*
X025777Y012699D01*
X025445Y012699D01*
X025445Y012781D01*
X025777Y012781D01*
X025777Y012466D02*
X025777Y012384D01*
X025445Y012384D01*
X025445Y012466D01*
X025777Y012466D01*
X025777Y012151D02*
X025777Y012069D01*
X025445Y012069D01*
X025445Y012151D01*
X025777Y012151D01*
X025777Y011836D02*
X025777Y011754D01*
X025445Y011754D01*
X025445Y011836D01*
X025777Y011836D01*
X025777Y011521D02*
X025777Y011439D01*
X025445Y011439D01*
X025445Y011521D01*
X025777Y011521D01*
X025777Y011206D02*
X025777Y011124D01*
X025445Y011124D01*
X025445Y011206D01*
X025777Y011206D01*
X025777Y010891D02*
X025777Y010809D01*
X025445Y010809D01*
X025445Y010891D01*
X025777Y010891D01*
X025777Y010576D02*
X025777Y010494D01*
X025445Y010494D01*
X025445Y010576D01*
X025777Y010576D01*
X025777Y010261D02*
X025777Y010179D01*
X025445Y010179D01*
X025445Y010261D01*
X025777Y010261D01*
X025777Y009946D02*
X025777Y009864D01*
X025445Y009864D01*
X025445Y009946D01*
X025777Y009946D01*
X025777Y009631D02*
X025777Y009549D01*
X025445Y009549D01*
X025445Y009631D01*
X025777Y009631D01*
X025777Y009316D02*
X025777Y009234D01*
X025445Y009234D01*
X025445Y009316D01*
X025777Y009316D01*
X024943Y008732D02*
X024943Y008400D01*
X024861Y008400D01*
X024861Y008732D01*
X024943Y008732D01*
X024943Y008618D02*
X024861Y008618D01*
X024628Y008732D02*
X024628Y008400D01*
X024546Y008400D01*
X024546Y008732D01*
X024628Y008732D01*
X024628Y008618D02*
X024546Y008618D01*
X024313Y008732D02*
X024313Y008400D01*
X024231Y008400D01*
X024231Y008732D01*
X024313Y008732D01*
X024313Y008618D02*
X024231Y008618D01*
X023998Y008732D02*
X023998Y008400D01*
X023916Y008400D01*
X023916Y008732D01*
X023998Y008732D01*
X023998Y008618D02*
X023916Y008618D01*
X023683Y008732D02*
X023683Y008400D01*
X023601Y008400D01*
X023601Y008732D01*
X023683Y008732D01*
X023683Y008618D02*
X023601Y008618D01*
X023368Y008732D02*
X023368Y008400D01*
X023286Y008400D01*
X023286Y008732D01*
X023368Y008732D01*
X023368Y008618D02*
X023286Y008618D01*
X023053Y008732D02*
X023053Y008400D01*
X022971Y008400D01*
X022971Y008732D01*
X023053Y008732D01*
X023053Y008618D02*
X022971Y008618D01*
X022738Y008732D02*
X022738Y008400D01*
X022656Y008400D01*
X022656Y008732D01*
X022738Y008732D01*
X022738Y008618D02*
X022656Y008618D01*
X022423Y008732D02*
X022423Y008400D01*
X022341Y008400D01*
X022341Y008732D01*
X022423Y008732D01*
X022423Y008618D02*
X022341Y008618D01*
X022108Y008732D02*
X022108Y008400D01*
X022026Y008400D01*
X022026Y008732D01*
X022108Y008732D01*
X022108Y008618D02*
X022026Y008618D01*
X021793Y008732D02*
X021793Y008400D01*
X021711Y008400D01*
X021711Y008732D01*
X021793Y008732D01*
X021793Y008618D02*
X021711Y008618D01*
X021478Y008732D02*
X021478Y008400D01*
X021396Y008400D01*
X021396Y008732D01*
X021478Y008732D01*
X021478Y008618D02*
X021396Y008618D01*
X021163Y008732D02*
X021163Y008400D01*
X021081Y008400D01*
X021081Y008732D01*
X021163Y008732D01*
X021163Y008618D02*
X021081Y008618D01*
X020848Y008732D02*
X020848Y008400D01*
X020766Y008400D01*
X020766Y008732D01*
X020848Y008732D01*
X020848Y008618D02*
X020766Y008618D01*
X020533Y008732D02*
X020533Y008400D01*
X020451Y008400D01*
X020451Y008732D01*
X020533Y008732D01*
X020533Y008618D02*
X020451Y008618D01*
X020219Y008732D02*
X020219Y008400D01*
X020137Y008400D01*
X020137Y008732D01*
X020219Y008732D01*
X020219Y008618D02*
X020137Y008618D01*
X019635Y009234D02*
X019635Y009316D01*
X019635Y009234D02*
X019303Y009234D01*
X019303Y009316D01*
X019635Y009316D01*
X019635Y009549D02*
X019635Y009631D01*
X019635Y009549D02*
X019303Y009549D01*
X019303Y009631D01*
X019635Y009631D01*
X019635Y009864D02*
X019635Y009946D01*
X019635Y009864D02*
X019303Y009864D01*
X019303Y009946D01*
X019635Y009946D01*
X019635Y010179D02*
X019635Y010261D01*
X019635Y010179D02*
X019303Y010179D01*
X019303Y010261D01*
X019635Y010261D01*
X019635Y010494D02*
X019635Y010576D01*
X019635Y010494D02*
X019303Y010494D01*
X019303Y010576D01*
X019635Y010576D01*
X019635Y010809D02*
X019635Y010891D01*
X019635Y010809D02*
X019303Y010809D01*
X019303Y010891D01*
X019635Y010891D01*
X019635Y011124D02*
X019635Y011206D01*
X019635Y011124D02*
X019303Y011124D01*
X019303Y011206D01*
X019635Y011206D01*
X019635Y011439D02*
X019635Y011521D01*
X019635Y011439D02*
X019303Y011439D01*
X019303Y011521D01*
X019635Y011521D01*
X019635Y011754D02*
X019635Y011836D01*
X019635Y011754D02*
X019303Y011754D01*
X019303Y011836D01*
X019635Y011836D01*
X019635Y012069D02*
X019635Y012151D01*
X019635Y012069D02*
X019303Y012069D01*
X019303Y012151D01*
X019635Y012151D01*
X019635Y012384D02*
X019635Y012466D01*
X019635Y012384D02*
X019303Y012384D01*
X019303Y012466D01*
X019635Y012466D01*
X019635Y012699D02*
X019635Y012781D01*
X019635Y012699D02*
X019303Y012699D01*
X019303Y012781D01*
X019635Y012781D01*
X019635Y013014D02*
X019635Y013096D01*
X019635Y013014D02*
X019303Y013014D01*
X019303Y013096D01*
X019635Y013096D01*
X019635Y013329D02*
X019635Y013411D01*
X019635Y013329D02*
X019303Y013329D01*
X019303Y013411D01*
X019635Y013411D01*
X019635Y013644D02*
X019635Y013726D01*
X019635Y013644D02*
X019303Y013644D01*
X019303Y013726D01*
X019635Y013726D01*
X019635Y013958D02*
X019635Y014040D01*
X019635Y013958D02*
X019303Y013958D01*
X019303Y014040D01*
X019635Y014040D01*
D50*
X009892Y025765D02*
X009460Y025765D01*
X009892Y025765D02*
X009892Y025393D01*
X009460Y025393D01*
X009460Y025765D01*
X009460Y025764D02*
X009892Y025764D01*
X009892Y026631D02*
X009460Y026631D01*
X009892Y026631D02*
X009892Y026259D01*
X009460Y026259D01*
X009460Y026631D01*
X009460Y026630D02*
X009892Y026630D01*
X008120Y026631D02*
X007688Y026631D01*
X008120Y026631D02*
X008120Y026259D01*
X007688Y026259D01*
X007688Y026631D01*
X007688Y026630D02*
X008120Y026630D01*
X008120Y025765D02*
X007688Y025765D01*
X008120Y025765D02*
X008120Y025393D01*
X007688Y025393D01*
X007688Y025765D01*
X007688Y025764D02*
X008120Y025764D01*
D51*
X028937Y007040D02*
X029711Y007040D01*
X028937Y007040D02*
X028937Y007734D01*
X029711Y007734D01*
X029711Y007040D01*
X029711Y007212D02*
X028937Y007212D01*
X028937Y007384D02*
X029711Y007384D01*
X029711Y007556D02*
X028937Y007556D01*
X028937Y007728D02*
X029711Y007728D01*
X030118Y007040D02*
X030892Y007040D01*
X030118Y007040D02*
X030118Y007734D01*
X030892Y007734D01*
X030892Y007040D01*
X030892Y007212D02*
X030118Y007212D01*
X030118Y007384D02*
X030892Y007384D01*
X030892Y007556D02*
X030118Y007556D01*
X030118Y007728D02*
X030892Y007728D01*
D52*
X028473Y009296D02*
X027787Y009296D01*
X028473Y009296D02*
X028473Y008728D01*
X027787Y008728D01*
X027787Y009296D01*
X027787Y008907D02*
X028473Y008907D01*
X028473Y009086D02*
X027787Y009086D01*
X027787Y009265D02*
X028473Y009265D01*
X027292Y009296D02*
X026606Y009296D01*
X027292Y009296D02*
X027292Y008728D01*
X026606Y008728D01*
X026606Y009296D01*
X026606Y008907D02*
X027292Y008907D01*
X027292Y009086D02*
X026606Y009086D01*
X026606Y009265D02*
X027292Y009265D01*
D53*
X026554Y017887D03*
D54*
X022420Y017887D03*
D55*
X005040Y018637D03*
X005040Y016637D03*
D56*
X010040Y015787D03*
X010040Y017637D03*
X010040Y019487D03*
D57*
X008336Y020683D02*
X008336Y021591D01*
X009494Y021591D01*
X009494Y020683D01*
X008336Y020683D01*
X008336Y020855D02*
X009494Y020855D01*
X009494Y021027D02*
X008336Y021027D01*
X008336Y021199D02*
X009494Y021199D01*
X009494Y021371D02*
X008336Y021371D01*
X008336Y021543D02*
X009494Y021543D01*
X008336Y023683D02*
X008336Y024591D01*
X009494Y024591D01*
X009494Y023683D01*
X008336Y023683D01*
X008336Y023855D02*
X009494Y023855D01*
X009494Y024027D02*
X008336Y024027D01*
X008336Y024199D02*
X009494Y024199D01*
X009494Y024371D02*
X008336Y024371D01*
X008336Y024543D02*
X009494Y024543D01*
D58*
X011131Y006676D02*
X011401Y006676D01*
X011401Y006420D02*
X011131Y006420D01*
X011131Y006164D02*
X011401Y006164D01*
X011401Y005908D02*
X011131Y005908D01*
X011131Y005652D02*
X011401Y005652D01*
X011401Y005396D02*
X011131Y005396D01*
X011131Y005140D02*
X011401Y005140D01*
X011401Y004884D02*
X011131Y004884D01*
X011131Y004628D02*
X011401Y004628D01*
X011401Y004373D02*
X011131Y004373D01*
X011131Y004117D02*
X011401Y004117D01*
X011401Y003861D02*
X011131Y003861D01*
X011131Y003605D02*
X011401Y003605D01*
X011401Y003349D02*
X011131Y003349D01*
X013428Y003349D02*
X013698Y003349D01*
X013698Y003605D02*
X013428Y003605D01*
X013428Y003861D02*
X013698Y003861D01*
X013698Y004117D02*
X013428Y004117D01*
X013428Y004373D02*
X013698Y004373D01*
X013698Y004628D02*
X013428Y004628D01*
X013428Y004884D02*
X013698Y004884D01*
X013698Y005140D02*
X013428Y005140D01*
X013428Y005396D02*
X013698Y005396D01*
X013698Y005652D02*
X013428Y005652D01*
X013428Y005908D02*
X013698Y005908D01*
X013698Y006164D02*
X013428Y006164D01*
X013428Y006420D02*
X013698Y006420D01*
X013698Y006676D02*
X013428Y006676D01*
D59*
X004265Y003787D03*
D60*
X029415Y010387D03*
X029415Y012262D03*
X030571Y021387D03*
X032384Y021387D03*
X038290Y027512D03*
X038290Y028012D03*
X040290Y028012D03*
X040290Y027512D03*
X042290Y027512D03*
X042290Y028012D03*
X015946Y022887D03*
X015946Y021387D03*
M02*
