G75*
G70*
%OFA0B0*%
%FSLAX24Y24*%
%IPPOS*%
%LPD*%
%AMOC8*
5,1,8,0,0,1.08239X$1,22.5*
%
%ADD10C,0.0100*%
%ADD11C,0.0070*%
%ADD12C,0.0130*%
%ADD13C,0.0177*%
%ADD14C,0.0080*%
%ADD15C,0.0060*%
%ADD16R,0.0177X0.1191*%
%ADD17R,0.0375X0.0500*%
%ADD18R,0.0375X0.0500*%
%ADD19C,0.0000*%
%ADD20R,0.0394X0.0079*%
%ADD21R,0.1191X0.0177*%
%ADD22C,0.0020*%
%ADD23C,0.0250*%
%ADD24R,0.0787X0.0118*%
%ADD25R,0.0118X0.0945*%
%ADD26C,0.0090*%
%ADD27R,0.0079X0.0394*%
%ADD28C,0.0120*%
%ADD29R,0.0118X0.0787*%
%ADD30C,0.0200*%
%ADD31C,0.0240*%
%ADD32C,0.0401*%
%ADD33R,0.0500X0.0375*%
%ADD34R,0.0500X0.0375*%
%ADD35C,0.0279*%
D10*
X003165Y000762D02*
X003165Y031012D01*
X063915Y031012D01*
X063915Y000762D01*
X003165Y000762D01*
X003102Y002012D02*
X003102Y014512D01*
X008602Y014512D01*
X008602Y002012D01*
X003102Y002012D01*
X015665Y001950D02*
X016040Y001950D01*
X016165Y001950D01*
X016290Y001950D02*
X016040Y002075D01*
X016040Y001950D01*
X016040Y001825D01*
X016290Y001950D01*
X017915Y002387D02*
X018915Y002387D01*
X018915Y003387D01*
X017915Y003387D01*
X017915Y004387D01*
X019915Y004387D01*
X019915Y002387D01*
X018915Y002387D01*
X017915Y002387D02*
X017915Y003387D01*
X021040Y003387D02*
X022040Y003387D01*
X022040Y002387D01*
X021040Y002387D02*
X021040Y004387D01*
X024040Y004387D01*
X024040Y002387D01*
X021040Y002387D01*
X025290Y002387D02*
X025290Y004387D01*
X030290Y004387D01*
X030290Y002387D01*
X025290Y002387D01*
X026290Y002387D02*
X026290Y003387D01*
X025290Y003387D01*
X038415Y006887D02*
X041415Y006887D01*
X041415Y007887D01*
X040415Y007887D01*
X040415Y006887D01*
X040415Y007887D02*
X038415Y007887D01*
X038415Y006887D01*
X051790Y011012D02*
X051790Y021012D01*
X053790Y021012D01*
X053790Y012012D01*
X052790Y012012D01*
X052790Y011012D01*
X053790Y011012D01*
X053790Y012012D01*
X054727Y013012D02*
X055977Y013012D01*
X055977Y016637D01*
X057227Y016637D01*
X057227Y013012D01*
X055977Y013012D01*
X054727Y013012D02*
X054727Y019262D01*
X055977Y019262D01*
X055977Y016637D01*
X056469Y015954D02*
X056402Y015887D01*
X056402Y015754D01*
X056469Y015687D01*
X056736Y015687D01*
X056802Y015754D01*
X056802Y015887D01*
X056736Y015954D01*
X056602Y015460D02*
X056602Y015193D01*
X056669Y015000D02*
X056402Y015000D01*
X056669Y015000D02*
X056802Y014866D01*
X056669Y014733D01*
X056402Y014733D01*
X056402Y014539D02*
X056402Y014273D01*
X056802Y014273D01*
X056802Y014539D01*
X056602Y014406D02*
X056602Y014273D01*
X056602Y014079D02*
X056669Y014012D01*
X056669Y013812D01*
X056802Y013812D02*
X056402Y013812D01*
X056402Y014012D01*
X056469Y014079D01*
X056602Y014079D01*
X056669Y013946D02*
X056802Y014079D01*
X057665Y013262D02*
X057540Y013012D01*
X057665Y013012D01*
X057665Y013137D01*
X057665Y013012D02*
X057790Y013012D01*
X057665Y013262D01*
X057665Y013012D02*
X057665Y012637D01*
X052790Y011012D02*
X051790Y011012D01*
X057227Y016637D02*
X057227Y019262D01*
X055977Y019262D01*
X059977Y020825D02*
X064540Y020825D01*
X064540Y023637D01*
X064540Y029700D01*
X059977Y029700D01*
X059977Y020825D01*
X060790Y021262D02*
X060790Y029262D01*
X061290Y029262D01*
X063290Y029262D01*
X063290Y021262D01*
X061290Y021262D01*
X060790Y021262D01*
X061290Y021262D02*
X061290Y029262D01*
X018040Y020262D02*
X018040Y018012D01*
X015915Y018012D01*
X015915Y020262D01*
X015665Y020262D01*
X015665Y018012D01*
X015915Y018012D01*
X013665Y019512D02*
X013665Y012512D01*
X011665Y012512D01*
X011665Y019512D01*
X013665Y019512D01*
X015915Y020262D02*
X018040Y020262D01*
X008290Y019887D02*
X008290Y015487D01*
X005040Y015487D01*
X005040Y015812D01*
X005040Y017462D02*
X005040Y017812D01*
X005040Y019462D02*
X005040Y019887D01*
X008290Y019887D01*
X006515Y021832D02*
X003168Y021832D01*
X003168Y030037D01*
X006515Y030037D01*
X006515Y021832D01*
X003168Y021832D02*
X001790Y021832D01*
X001790Y030037D01*
X003168Y030037D01*
D11*
X006737Y029651D02*
X006847Y029541D01*
X006737Y029651D02*
X007067Y029651D01*
X007067Y029541D02*
X007067Y029761D01*
X007067Y029392D02*
X006737Y029172D01*
X006737Y029392D02*
X007067Y029172D01*
X008200Y028823D02*
X008200Y028602D01*
X008255Y028547D01*
X008365Y028547D01*
X008420Y028602D01*
X008568Y028602D02*
X008568Y028657D01*
X008623Y028712D01*
X008733Y028712D01*
X008788Y028657D01*
X008788Y028602D01*
X008733Y028547D01*
X008623Y028547D01*
X008568Y028602D01*
X008623Y028712D02*
X008568Y028767D01*
X008568Y028823D01*
X008623Y028878D01*
X008733Y028878D01*
X008788Y028823D01*
X008788Y028767D01*
X008733Y028712D01*
X008936Y028602D02*
X008936Y028823D01*
X008991Y028878D01*
X009101Y028878D01*
X009156Y028823D01*
X008936Y028602D01*
X008991Y028547D01*
X009101Y028547D01*
X009156Y028602D01*
X009156Y028823D01*
X008420Y028823D02*
X008365Y028878D01*
X008255Y028878D01*
X008200Y028823D01*
X009387Y029727D02*
X009442Y029672D01*
X009552Y029672D01*
X009607Y029727D01*
X009756Y029672D02*
X009976Y029892D01*
X009976Y029947D01*
X009921Y030003D01*
X009811Y030003D01*
X009756Y029947D01*
X009607Y029947D02*
X009552Y030003D01*
X009442Y030003D01*
X009387Y029947D01*
X009387Y029727D01*
X009756Y029672D02*
X009976Y029672D01*
X010124Y029727D02*
X010179Y029672D01*
X010289Y029672D01*
X010344Y029727D01*
X010344Y029782D01*
X010289Y029837D01*
X010234Y029837D01*
X010289Y029837D02*
X010344Y029892D01*
X010344Y029947D01*
X010289Y030003D01*
X010179Y030003D01*
X010124Y029947D01*
X015612Y030074D02*
X015777Y029909D01*
X015777Y030129D01*
X015942Y030074D02*
X015612Y030074D01*
X015667Y029761D02*
X015612Y029706D01*
X015612Y029596D01*
X015667Y029541D01*
X015667Y029392D02*
X015612Y029337D01*
X015612Y029227D01*
X015667Y029172D01*
X015887Y029172D01*
X015942Y029227D01*
X015942Y029337D01*
X015887Y029392D01*
X015942Y029541D02*
X015722Y029761D01*
X015667Y029761D01*
X015942Y029761D02*
X015942Y029541D01*
X017487Y029596D02*
X017542Y029541D01*
X017487Y029596D02*
X017487Y029706D01*
X017542Y029761D01*
X017597Y029761D01*
X017817Y029541D01*
X017817Y029761D01*
X017762Y029909D02*
X017817Y029964D01*
X017817Y030074D01*
X017762Y030129D01*
X017652Y030129D01*
X017597Y030074D01*
X017597Y030019D01*
X017652Y029909D01*
X017487Y029909D01*
X017487Y030129D01*
X017542Y029392D02*
X017487Y029337D01*
X017487Y029227D01*
X017542Y029172D01*
X017762Y029172D01*
X017817Y029227D01*
X017817Y029337D01*
X017762Y029392D01*
X021575Y029602D02*
X021630Y029547D01*
X021740Y029547D01*
X021795Y029602D01*
X021943Y029547D02*
X022163Y029767D01*
X022163Y029822D01*
X022108Y029878D01*
X021998Y029878D01*
X021943Y029822D01*
X021795Y029822D02*
X021740Y029878D01*
X021630Y029878D01*
X021575Y029822D01*
X021575Y029602D01*
X021943Y029547D02*
X022163Y029547D01*
X022311Y029547D02*
X022311Y029602D01*
X022531Y029822D01*
X022531Y029878D01*
X022311Y029878D01*
X026075Y029822D02*
X026075Y029602D01*
X026130Y029547D01*
X026240Y029547D01*
X026295Y029602D01*
X026443Y029547D02*
X026663Y029767D01*
X026663Y029822D01*
X026608Y029878D01*
X026498Y029878D01*
X026443Y029822D01*
X026295Y029822D02*
X026240Y029878D01*
X026130Y029878D01*
X026075Y029822D01*
X026443Y029547D02*
X026663Y029547D01*
X026811Y029602D02*
X026866Y029547D01*
X026976Y029547D01*
X027031Y029602D01*
X027031Y029657D01*
X026976Y029712D01*
X026811Y029712D01*
X026811Y029602D01*
X026811Y029712D02*
X026921Y029822D01*
X027031Y029878D01*
X034302Y029777D02*
X034357Y029722D01*
X034467Y029722D01*
X034522Y029777D01*
X034302Y029777D02*
X034302Y029998D01*
X034357Y030053D01*
X034467Y030053D01*
X034522Y029998D01*
X037299Y028144D02*
X037630Y028144D01*
X037630Y028034D02*
X037630Y028254D01*
X037410Y028034D02*
X037299Y028144D01*
X037355Y027886D02*
X037410Y027886D01*
X037465Y027831D01*
X037465Y027721D01*
X037410Y027666D01*
X037355Y027666D01*
X037299Y027721D01*
X037299Y027831D01*
X037355Y027886D01*
X037465Y027831D02*
X037520Y027886D01*
X037575Y027886D01*
X037630Y027831D01*
X037630Y027721D01*
X037575Y027666D01*
X037520Y027666D01*
X037465Y027721D01*
X037465Y027517D02*
X037520Y027462D01*
X037520Y027297D01*
X037630Y027297D02*
X037299Y027297D01*
X037299Y027462D01*
X037355Y027517D01*
X037465Y027517D01*
X037520Y027407D02*
X037630Y027517D01*
X037590Y025636D02*
X037590Y025471D01*
X037535Y025416D01*
X037480Y025416D01*
X037424Y025471D01*
X037424Y025581D01*
X037480Y025636D01*
X037700Y025636D01*
X037755Y025581D01*
X037755Y025471D01*
X037700Y025416D01*
X037700Y025267D02*
X037480Y025267D01*
X037424Y025212D01*
X037424Y025047D01*
X037755Y025047D01*
X037755Y025212D01*
X037700Y025267D01*
X035288Y024003D02*
X035288Y023782D01*
X035178Y023672D01*
X035068Y023782D01*
X035068Y024003D01*
X034920Y024003D02*
X034700Y024003D01*
X034700Y023837D01*
X034810Y023892D01*
X034865Y023892D01*
X034920Y023837D01*
X034920Y023727D01*
X034865Y023672D01*
X034755Y023672D01*
X034700Y023727D01*
X033906Y024160D02*
X033686Y024160D01*
X033796Y024160D02*
X033796Y024490D01*
X033686Y024380D01*
X033538Y024160D02*
X033318Y024160D01*
X033428Y024160D02*
X033428Y024490D01*
X033318Y024380D01*
X033170Y024490D02*
X033170Y024215D01*
X033115Y024160D01*
X033005Y024160D01*
X032950Y024215D01*
X032950Y024490D01*
X032929Y022748D02*
X032874Y022693D01*
X032874Y022583D01*
X032929Y022528D01*
X032929Y022380D02*
X032874Y022380D01*
X032929Y022380D02*
X033040Y022270D01*
X033205Y022270D01*
X033040Y022270D02*
X032929Y022160D01*
X032874Y022160D01*
X033205Y022528D02*
X032985Y022748D01*
X032929Y022748D01*
X033205Y022748D02*
X033205Y022528D01*
X034477Y022700D02*
X034477Y022075D01*
X035102Y022075D01*
X035102Y022700D01*
X034477Y022700D01*
X035481Y022565D02*
X035701Y022565D01*
X035591Y022565D02*
X035591Y022235D01*
X035849Y022235D02*
X035849Y022565D01*
X036014Y022565D01*
X036069Y022510D01*
X036069Y022400D01*
X036014Y022345D01*
X035849Y022345D01*
X036218Y022400D02*
X036383Y022400D01*
X036438Y022345D01*
X036438Y022290D01*
X036383Y022235D01*
X036273Y022235D01*
X036218Y022290D01*
X036218Y022400D01*
X036328Y022510D01*
X036438Y022565D01*
X035575Y021504D02*
X035630Y021449D01*
X035630Y021339D01*
X035575Y021284D01*
X035465Y021394D02*
X035465Y021449D01*
X035520Y021504D01*
X035575Y021504D01*
X035465Y021449D02*
X035410Y021504D01*
X035355Y021504D01*
X035299Y021449D01*
X035299Y021339D01*
X035355Y021284D01*
X035465Y021136D02*
X035465Y020916D01*
X035299Y021081D01*
X035630Y021081D01*
X035575Y020767D02*
X035630Y020712D01*
X035630Y020602D01*
X035575Y020547D01*
X035355Y020547D01*
X035299Y020602D01*
X035299Y020712D01*
X035355Y020767D01*
X035299Y020004D02*
X035299Y019784D01*
X035465Y019784D01*
X035410Y019894D01*
X035410Y019949D01*
X035465Y020004D01*
X035575Y020004D01*
X035630Y019949D01*
X035630Y019839D01*
X035575Y019784D01*
X035465Y019636D02*
X035465Y019416D01*
X035299Y019581D01*
X035630Y019581D01*
X035630Y019267D02*
X035520Y019157D01*
X035520Y019212D02*
X035520Y019047D01*
X035630Y019047D02*
X035299Y019047D01*
X035299Y019212D01*
X035355Y019267D01*
X035465Y019267D01*
X035520Y019212D01*
X034317Y019267D02*
X034207Y019157D01*
X034207Y019212D02*
X034207Y019047D01*
X034317Y019047D02*
X033987Y019047D01*
X033987Y019212D01*
X034042Y019267D01*
X034152Y019267D01*
X034207Y019212D01*
X034152Y019416D02*
X034152Y019636D01*
X034097Y019784D02*
X033987Y019894D01*
X034317Y019894D01*
X034317Y019784D02*
X034317Y020004D01*
X034262Y020547D02*
X034317Y020602D01*
X034317Y020712D01*
X034262Y020767D01*
X034152Y020916D02*
X034152Y021136D01*
X033987Y021081D02*
X034152Y020916D01*
X034042Y020767D02*
X033987Y020712D01*
X033987Y020602D01*
X034042Y020547D01*
X034262Y020547D01*
X034317Y021081D02*
X033987Y021081D01*
X034042Y021284D02*
X033987Y021339D01*
X033987Y021449D01*
X034042Y021504D01*
X034262Y021284D01*
X034317Y021339D01*
X034317Y021449D01*
X034262Y021504D01*
X034042Y021504D01*
X034042Y021284D02*
X034262Y021284D01*
X036737Y019754D02*
X036792Y019644D01*
X036902Y019534D01*
X036902Y019699D01*
X036957Y019754D01*
X037012Y019754D01*
X037067Y019699D01*
X037067Y019589D01*
X037012Y019534D01*
X036902Y019534D01*
X036902Y019386D02*
X037012Y019386D01*
X037067Y019331D01*
X037067Y019221D01*
X037012Y019166D01*
X036902Y019166D02*
X036847Y019276D01*
X036847Y019331D01*
X036902Y019386D01*
X036737Y019386D02*
X036737Y019166D01*
X036902Y019166D01*
X036792Y019017D02*
X036737Y018962D01*
X036737Y018852D01*
X036792Y018797D01*
X037012Y018797D01*
X037067Y018852D01*
X037067Y018962D01*
X037012Y019017D01*
X038237Y018962D02*
X038237Y018852D01*
X038292Y018797D01*
X038512Y018797D01*
X038567Y018852D01*
X038567Y018962D01*
X038512Y019017D01*
X038512Y019166D02*
X038567Y019221D01*
X038567Y019331D01*
X038512Y019386D01*
X038402Y019386D01*
X038347Y019331D01*
X038347Y019276D01*
X038402Y019166D01*
X038237Y019166D01*
X038237Y019386D01*
X038237Y019534D02*
X038402Y019534D01*
X038347Y019644D01*
X038347Y019699D01*
X038402Y019754D01*
X038512Y019754D01*
X038567Y019699D01*
X038567Y019589D01*
X038512Y019534D01*
X038237Y019534D02*
X038237Y019754D01*
X038292Y019017D02*
X038237Y018962D01*
X039137Y019665D02*
X039192Y019610D01*
X039302Y019610D01*
X039357Y019665D01*
X039506Y019665D02*
X039561Y019610D01*
X039671Y019610D01*
X039726Y019665D01*
X039726Y019775D01*
X039671Y019830D01*
X039616Y019830D01*
X039506Y019775D01*
X039506Y019940D01*
X039726Y019940D01*
X039874Y019885D02*
X039929Y019940D01*
X040039Y019940D01*
X040094Y019885D01*
X040094Y019830D01*
X040039Y019775D01*
X040094Y019720D01*
X040094Y019665D01*
X040039Y019610D01*
X039929Y019610D01*
X039874Y019665D01*
X039984Y019775D02*
X040039Y019775D01*
X039357Y019885D02*
X039302Y019940D01*
X039192Y019940D01*
X039137Y019885D01*
X039137Y019665D01*
X040762Y019610D02*
X040762Y019940D01*
X040927Y019940D01*
X040982Y019885D01*
X040982Y019775D01*
X040927Y019720D01*
X040762Y019720D01*
X040872Y019720D02*
X040982Y019610D01*
X041130Y019665D02*
X041185Y019610D01*
X041296Y019610D01*
X041351Y019665D01*
X041351Y019775D01*
X041296Y019830D01*
X041241Y019830D01*
X041130Y019775D01*
X041130Y019940D01*
X041351Y019940D01*
X041499Y019940D02*
X041499Y019775D01*
X041609Y019830D01*
X041664Y019830D01*
X041719Y019775D01*
X041719Y019665D01*
X041664Y019610D01*
X041554Y019610D01*
X041499Y019665D01*
X041499Y019940D02*
X041719Y019940D01*
X042387Y019885D02*
X042387Y019665D01*
X042442Y019610D01*
X042552Y019610D01*
X042607Y019665D01*
X042756Y019665D02*
X042811Y019610D01*
X042921Y019610D01*
X042976Y019665D01*
X042976Y019775D01*
X042921Y019830D01*
X042866Y019830D01*
X042756Y019775D01*
X042756Y019940D01*
X042976Y019940D01*
X043124Y019775D02*
X043344Y019775D01*
X043289Y019940D02*
X043124Y019775D01*
X043289Y019610D02*
X043289Y019940D01*
X043862Y019817D02*
X043862Y019596D01*
X043862Y019448D02*
X043917Y019338D01*
X044027Y019228D01*
X044027Y019393D01*
X044082Y019448D01*
X044137Y019448D01*
X044192Y019393D01*
X044192Y019283D01*
X044137Y019228D01*
X044027Y019228D01*
X043917Y019080D02*
X043862Y019025D01*
X043862Y018915D01*
X043917Y018860D01*
X044137Y018860D01*
X044192Y018915D01*
X044192Y019025D01*
X044137Y019080D01*
X044137Y019596D02*
X044192Y019596D01*
X044137Y019596D02*
X043917Y019817D01*
X043862Y019817D01*
X042607Y019885D02*
X042552Y019940D01*
X042442Y019940D01*
X042387Y019885D01*
X045540Y020825D02*
X045540Y021450D01*
X046165Y021450D01*
X046165Y020825D01*
X045540Y020825D01*
X045612Y021735D02*
X045612Y021955D01*
X045612Y021845D02*
X045942Y021845D01*
X045942Y022103D02*
X045612Y022103D01*
X045612Y022268D01*
X045667Y022323D01*
X045777Y022323D01*
X045832Y022268D01*
X045832Y022103D01*
X045942Y022471D02*
X045722Y022692D01*
X045667Y022692D01*
X045612Y022637D01*
X045612Y022526D01*
X045667Y022471D01*
X045942Y022471D02*
X045942Y022692D01*
X043913Y023227D02*
X043858Y023172D01*
X043748Y023172D01*
X043693Y023227D01*
X043545Y023227D02*
X043490Y023172D01*
X043380Y023172D01*
X043325Y023227D01*
X043325Y023447D01*
X043380Y023503D01*
X043490Y023503D01*
X043545Y023447D01*
X043545Y023227D01*
X043545Y023172D02*
X043435Y023282D01*
X043693Y023447D02*
X043748Y023503D01*
X043858Y023503D01*
X043913Y023447D01*
X043913Y023392D01*
X043858Y023337D01*
X043913Y023282D01*
X043913Y023227D01*
X043858Y023337D02*
X043803Y023337D01*
X042442Y024352D02*
X042387Y024297D01*
X042167Y024297D01*
X042112Y024352D01*
X042112Y024462D01*
X042167Y024517D01*
X042167Y024666D02*
X042112Y024721D01*
X042112Y024831D01*
X042167Y024886D01*
X042222Y024886D01*
X042442Y024666D01*
X042442Y024886D01*
X042387Y025034D02*
X042332Y025034D01*
X042277Y025089D01*
X042277Y025199D01*
X042332Y025254D01*
X042387Y025254D01*
X042442Y025199D01*
X042442Y025089D01*
X042387Y025034D01*
X042277Y025089D02*
X042222Y025034D01*
X042167Y025034D01*
X042112Y025089D01*
X042112Y025199D01*
X042167Y025254D01*
X042222Y025254D01*
X042277Y025199D01*
X042387Y024517D02*
X042442Y024462D01*
X042442Y024352D01*
X039713Y022685D02*
X039713Y022630D01*
X039658Y022575D01*
X039713Y022520D01*
X039713Y022465D01*
X039658Y022410D01*
X039548Y022410D01*
X039493Y022465D01*
X039603Y022575D02*
X039658Y022575D01*
X039713Y022685D02*
X039658Y022740D01*
X039548Y022740D01*
X039493Y022685D01*
X039345Y022685D02*
X039345Y022740D01*
X039345Y022685D02*
X039235Y022575D01*
X039235Y022410D01*
X039235Y022575D02*
X039125Y022685D01*
X039125Y022740D01*
X034317Y019581D02*
X033987Y019581D01*
X034152Y019416D01*
X030192Y019422D02*
X029862Y019422D01*
X029862Y019587D01*
X029917Y019642D01*
X030027Y019642D01*
X030082Y019587D01*
X030082Y019422D01*
X030082Y019532D02*
X030192Y019642D01*
X030192Y019791D02*
X030192Y020011D01*
X030192Y019901D02*
X029862Y019901D01*
X029972Y019791D01*
X029972Y020159D02*
X030027Y020214D01*
X030027Y020379D01*
X029917Y020379D02*
X029862Y020324D01*
X029862Y020214D01*
X029917Y020159D01*
X029972Y020159D01*
X030137Y020159D02*
X030192Y020214D01*
X030192Y020324D01*
X030137Y020379D01*
X029917Y020379D01*
X028942Y020159D02*
X028887Y020159D01*
X028667Y020379D01*
X028612Y020379D01*
X028612Y020159D01*
X028612Y019901D02*
X028942Y019901D01*
X028942Y019791D02*
X028942Y020011D01*
X028722Y019791D02*
X028612Y019901D01*
X028667Y019642D02*
X028777Y019642D01*
X028832Y019587D01*
X028832Y019422D01*
X028942Y019422D02*
X028612Y019422D01*
X028612Y019587D01*
X028667Y019642D01*
X028832Y019532D02*
X028942Y019642D01*
X027692Y019642D02*
X027582Y019532D01*
X027582Y019587D02*
X027582Y019422D01*
X027692Y019422D02*
X027362Y019422D01*
X027362Y019587D01*
X027417Y019642D01*
X027527Y019642D01*
X027582Y019587D01*
X027472Y019791D02*
X027362Y019901D01*
X027692Y019901D01*
X027692Y019791D02*
X027692Y020011D01*
X027637Y020159D02*
X027692Y020214D01*
X027692Y020324D01*
X027637Y020379D01*
X027527Y020379D01*
X027472Y020324D01*
X027472Y020269D01*
X027527Y020159D01*
X027362Y020159D01*
X027362Y020379D01*
X027362Y021422D02*
X027362Y021587D01*
X027417Y021642D01*
X027527Y021642D01*
X027582Y021587D01*
X027582Y021422D01*
X027692Y021422D02*
X027362Y021422D01*
X027582Y021532D02*
X027692Y021642D01*
X027692Y021791D02*
X027472Y022011D01*
X027417Y022011D01*
X027362Y021956D01*
X027362Y021846D01*
X027417Y021791D01*
X027692Y021791D02*
X027692Y022011D01*
X027692Y022159D02*
X027692Y022379D01*
X027692Y022269D02*
X027362Y022269D01*
X027472Y022159D01*
X028612Y022214D02*
X028612Y022324D01*
X028667Y022379D01*
X028887Y022159D01*
X028942Y022214D01*
X028942Y022324D01*
X028887Y022379D01*
X028667Y022379D01*
X028612Y022214D02*
X028667Y022159D01*
X028887Y022159D01*
X028942Y022011D02*
X028942Y021791D01*
X028722Y022011D01*
X028667Y022011D01*
X028612Y021956D01*
X028612Y021846D01*
X028667Y021791D01*
X028667Y021642D02*
X028612Y021587D01*
X028612Y021477D01*
X028667Y021422D01*
X028887Y021422D01*
X028942Y021477D01*
X028942Y021587D01*
X028887Y021642D01*
X029862Y021587D02*
X029862Y021422D01*
X030192Y021422D01*
X030082Y021422D02*
X030082Y021587D01*
X030027Y021642D01*
X029917Y021642D01*
X029862Y021587D01*
X029917Y021791D02*
X029862Y021846D01*
X029862Y021956D01*
X029917Y022011D01*
X029972Y022011D01*
X030192Y021791D01*
X030192Y022011D01*
X030137Y022159D02*
X030192Y022214D01*
X030192Y022324D01*
X030137Y022379D01*
X030082Y022379D01*
X030027Y022324D01*
X030027Y022269D01*
X030027Y022324D02*
X029972Y022379D01*
X029917Y022379D01*
X029862Y022324D01*
X029862Y022214D01*
X029917Y022159D01*
X030192Y021642D02*
X030082Y021532D01*
X026317Y021587D02*
X026317Y021422D01*
X025987Y021422D01*
X025987Y021587D01*
X026042Y021642D01*
X026262Y021642D01*
X026317Y021587D01*
X026317Y021791D02*
X026262Y021791D01*
X026042Y022011D01*
X025987Y022011D01*
X025987Y021791D01*
X024406Y021822D02*
X024186Y021602D01*
X024241Y021547D01*
X024351Y021547D01*
X024406Y021602D01*
X024406Y021822D01*
X024351Y021878D01*
X024241Y021878D01*
X024186Y021822D01*
X024186Y021602D01*
X024038Y021547D02*
X023818Y021547D01*
X023928Y021547D02*
X023928Y021878D01*
X023818Y021767D01*
X023670Y021712D02*
X023615Y021657D01*
X023450Y021657D01*
X023450Y021547D02*
X023450Y021878D01*
X023615Y021878D01*
X023670Y021822D01*
X023670Y021712D01*
X023560Y021657D02*
X023670Y021547D01*
X023615Y021128D02*
X023670Y021072D01*
X023670Y020962D01*
X023615Y020907D01*
X023450Y020907D01*
X023450Y020797D02*
X023450Y021128D01*
X023615Y021128D01*
X023560Y020907D02*
X023670Y020797D01*
X023818Y020797D02*
X024038Y020797D01*
X023928Y020797D02*
X023928Y021128D01*
X023818Y021017D01*
X024186Y021017D02*
X024296Y021128D01*
X024296Y020797D01*
X024186Y020797D02*
X024406Y020797D01*
X023983Y022235D02*
X024038Y022290D01*
X024038Y022510D01*
X023983Y022565D01*
X023873Y022565D01*
X023818Y022510D01*
X023818Y022455D01*
X023873Y022400D01*
X024038Y022400D01*
X023983Y022235D02*
X023873Y022235D01*
X023818Y022290D01*
X023670Y022290D02*
X023615Y022235D01*
X023505Y022235D01*
X023450Y022290D01*
X023450Y022510D01*
X023505Y022565D01*
X023615Y022565D01*
X023670Y022510D01*
X024512Y023985D02*
X024732Y023985D01*
X024622Y023985D02*
X024622Y024315D01*
X024512Y024205D01*
X024881Y024260D02*
X024936Y024315D01*
X025046Y024315D01*
X025101Y024260D01*
X025101Y024205D01*
X024881Y023985D01*
X025101Y023985D01*
X025249Y024095D02*
X025359Y023985D01*
X025469Y024095D01*
X025469Y024315D01*
X025249Y024315D02*
X025249Y024095D01*
X022250Y024040D02*
X022195Y023985D01*
X022085Y023985D01*
X022030Y024040D01*
X022085Y024150D02*
X022030Y024205D01*
X022030Y024260D01*
X022085Y024315D01*
X022195Y024315D01*
X022250Y024260D01*
X022250Y024040D01*
X022250Y024150D02*
X022085Y024150D01*
X021882Y024150D02*
X021827Y024095D01*
X021662Y024095D01*
X021662Y023985D02*
X021662Y024315D01*
X021827Y024315D01*
X021882Y024260D01*
X021882Y024150D01*
X021514Y024315D02*
X021293Y024315D01*
X021404Y024315D02*
X021404Y023985D01*
X020977Y023825D02*
X020977Y024450D01*
X020352Y024450D01*
X020352Y023825D01*
X020977Y023825D01*
X019553Y023253D02*
X019553Y022922D01*
X019443Y022922D02*
X019663Y022922D01*
X019443Y023142D02*
X019553Y023253D01*
X019295Y023253D02*
X019295Y022977D01*
X019240Y022922D01*
X019130Y022922D01*
X019075Y022977D01*
X019075Y023253D01*
X018942Y023860D02*
X018612Y023860D01*
X018612Y024025D01*
X018667Y024080D01*
X018887Y024080D01*
X018942Y024025D01*
X018942Y023860D01*
X018887Y024228D02*
X018832Y024228D01*
X018777Y024283D01*
X018777Y024393D01*
X018832Y024448D01*
X018887Y024448D01*
X018942Y024393D01*
X018942Y024283D01*
X018887Y024228D01*
X018777Y024283D02*
X018722Y024228D01*
X018667Y024228D01*
X018612Y024283D01*
X018612Y024393D01*
X018667Y024448D01*
X018722Y024448D01*
X018777Y024393D01*
X016783Y023053D02*
X016618Y022887D01*
X016838Y022887D01*
X016783Y022722D02*
X016783Y023053D01*
X016470Y023053D02*
X016470Y022997D01*
X016360Y022887D01*
X016360Y022722D01*
X016360Y022887D02*
X016250Y022997D01*
X016250Y023053D01*
X014755Y023922D02*
X014755Y024087D01*
X014700Y024142D01*
X014480Y024142D01*
X014424Y024087D01*
X014424Y023922D01*
X014755Y023922D01*
X014700Y024291D02*
X014755Y024346D01*
X014755Y024456D01*
X014700Y024511D01*
X014645Y024511D01*
X014590Y024456D01*
X014590Y024291D01*
X014700Y024291D01*
X014590Y024291D02*
X014480Y024401D01*
X014424Y024511D01*
X011505Y024268D02*
X011174Y024268D01*
X011340Y024103D01*
X011340Y024323D01*
X011505Y023955D02*
X011505Y023735D01*
X011174Y023735D01*
X010064Y024398D02*
X010064Y024618D01*
X010064Y024767D02*
X010064Y024987D01*
X010064Y024877D02*
X009734Y024877D01*
X009844Y024767D01*
X009734Y024398D02*
X010064Y024398D01*
X010630Y022254D02*
X010630Y022034D01*
X010630Y022144D02*
X010299Y022144D01*
X010410Y022034D01*
X010299Y021886D02*
X010299Y021666D01*
X010630Y021666D01*
X010465Y021666D02*
X010465Y021776D01*
X010465Y021517D02*
X010520Y021462D01*
X010520Y021297D01*
X010630Y021297D02*
X010299Y021297D01*
X010299Y021462D01*
X010355Y021517D01*
X010465Y021517D01*
X006017Y021379D02*
X006017Y021159D01*
X006017Y021269D02*
X005687Y021269D01*
X005797Y021159D01*
X006017Y021011D02*
X006017Y020791D01*
X006017Y020901D02*
X005687Y020901D01*
X005797Y020791D01*
X005742Y020642D02*
X005687Y020587D01*
X005687Y020422D01*
X006017Y020422D01*
X006017Y020587D01*
X005962Y020642D01*
X005742Y020642D01*
X004531Y020128D02*
X004531Y019852D01*
X004476Y019797D01*
X004366Y019797D01*
X004311Y019852D01*
X004311Y020128D01*
X004163Y020072D02*
X004163Y019962D01*
X004108Y019907D01*
X003943Y019907D01*
X003943Y019797D02*
X003943Y020128D01*
X004108Y020128D01*
X004163Y020072D01*
X003795Y020072D02*
X003740Y020128D01*
X003630Y020128D01*
X003575Y020072D01*
X003575Y019852D01*
X003630Y019797D01*
X003740Y019797D01*
X003795Y019852D01*
X003740Y019253D02*
X003630Y019253D01*
X003575Y019197D01*
X003575Y019142D01*
X003630Y019087D01*
X003740Y019087D01*
X003795Y019032D01*
X003795Y018977D01*
X003740Y018922D01*
X003630Y018922D01*
X003575Y018977D01*
X003795Y019197D02*
X003740Y019253D01*
X003943Y019142D02*
X004053Y019253D01*
X004053Y018922D01*
X003943Y018922D02*
X004163Y018922D01*
X004163Y015753D02*
X004163Y015422D01*
X004053Y015532D01*
X003943Y015422D01*
X003943Y015753D01*
X003795Y015697D02*
X003795Y015587D01*
X003740Y015532D01*
X003575Y015532D01*
X003575Y015422D02*
X003575Y015753D01*
X003740Y015753D01*
X003795Y015697D01*
X004311Y015753D02*
X004311Y015422D01*
X004311Y015532D02*
X004476Y015532D01*
X004531Y015587D01*
X004531Y015697D01*
X004476Y015753D01*
X004311Y015753D01*
X004421Y015532D02*
X004531Y015422D01*
X007637Y015065D02*
X007857Y014735D01*
X008006Y014735D02*
X008226Y014955D01*
X008226Y015010D01*
X008171Y015065D01*
X008061Y015065D01*
X008006Y015010D01*
X007857Y015065D02*
X007637Y014735D01*
X008006Y014735D02*
X008226Y014735D01*
X009137Y013253D02*
X009302Y013253D01*
X009357Y013197D01*
X009357Y013087D01*
X009302Y013032D01*
X009137Y013032D01*
X009137Y012922D02*
X009137Y013253D01*
X009247Y013032D02*
X009357Y012922D01*
X009506Y012922D02*
X009506Y012977D01*
X009726Y013197D01*
X009726Y013253D01*
X009506Y013253D01*
X010255Y011628D02*
X010365Y011628D01*
X010420Y011572D01*
X010420Y011352D01*
X010365Y011297D01*
X010255Y011297D01*
X010200Y011352D01*
X010200Y011572D01*
X010255Y011628D01*
X010310Y011407D02*
X010420Y011297D01*
X010568Y011297D02*
X010788Y011297D01*
X010678Y011297D02*
X010678Y011628D01*
X010568Y011517D01*
X015487Y009261D02*
X015487Y009151D01*
X015542Y009096D01*
X015597Y009096D01*
X015652Y009151D01*
X015652Y009316D01*
X015762Y009316D02*
X015542Y009316D01*
X015487Y009261D01*
X015762Y009316D02*
X015817Y009261D01*
X015817Y009151D01*
X015762Y009096D01*
X015542Y008948D02*
X015762Y008728D01*
X015817Y008728D01*
X015762Y008580D02*
X015817Y008525D01*
X015817Y008415D01*
X015762Y008360D01*
X015542Y008360D01*
X015487Y008415D01*
X015487Y008525D01*
X015542Y008580D01*
X015487Y008728D02*
X015487Y008948D01*
X015542Y008948D01*
X013406Y008260D02*
X013186Y008040D01*
X013241Y007985D01*
X013351Y007985D01*
X013406Y008040D01*
X013406Y008260D01*
X013351Y008315D01*
X013241Y008315D01*
X013186Y008260D01*
X013186Y008040D01*
X013038Y007985D02*
X012818Y007985D01*
X012928Y007985D02*
X012928Y008315D01*
X012818Y008205D01*
X012670Y008260D02*
X012615Y008315D01*
X012505Y008315D01*
X012450Y008260D01*
X012450Y008040D01*
X012505Y007985D01*
X012615Y007985D01*
X012670Y008040D01*
X014575Y007010D02*
X014575Y006790D01*
X014630Y006735D01*
X014740Y006735D01*
X014795Y006790D01*
X014943Y006735D02*
X015163Y006735D01*
X015053Y006735D02*
X015053Y007065D01*
X014943Y006955D01*
X014795Y007010D02*
X014740Y007065D01*
X014630Y007065D01*
X014575Y007010D01*
X015311Y006955D02*
X015421Y007065D01*
X015421Y006735D01*
X015311Y006735D02*
X015531Y006735D01*
X017049Y006581D02*
X017160Y006471D01*
X017049Y006581D02*
X017380Y006581D01*
X017380Y006471D02*
X017380Y006692D01*
X017380Y006323D02*
X017049Y006323D01*
X017049Y006103D02*
X017380Y006323D01*
X017380Y006103D02*
X017049Y006103D01*
X017105Y005955D02*
X017215Y005955D01*
X017270Y005900D01*
X017270Y005735D01*
X017380Y005735D02*
X017049Y005735D01*
X017049Y005900D01*
X017105Y005955D01*
X017270Y005845D02*
X017380Y005955D01*
X017414Y004690D02*
X017304Y004690D01*
X017249Y004635D01*
X017414Y004690D02*
X017469Y004635D01*
X017469Y004580D01*
X017249Y004360D01*
X017469Y004360D01*
X017101Y004360D02*
X016881Y004360D01*
X016991Y004360D02*
X016991Y004690D01*
X016881Y004580D01*
X016732Y004635D02*
X016677Y004690D01*
X016512Y004690D01*
X016512Y004360D01*
X016512Y004470D02*
X016677Y004470D01*
X016732Y004525D01*
X016732Y004635D01*
X016622Y004470D02*
X016732Y004360D01*
X016677Y003440D02*
X016732Y003385D01*
X016732Y003275D01*
X016677Y003220D01*
X016512Y003220D01*
X016512Y003110D02*
X016512Y003440D01*
X016677Y003440D01*
X016622Y003220D02*
X016732Y003110D01*
X016881Y003110D02*
X017101Y003110D01*
X016991Y003110D02*
X016991Y003440D01*
X016881Y003330D01*
X017249Y003275D02*
X017469Y003275D01*
X017414Y003440D02*
X017249Y003275D01*
X017414Y003110D02*
X017414Y003440D01*
X015531Y004360D02*
X015311Y004360D01*
X015531Y004580D01*
X015531Y004635D01*
X015476Y004690D01*
X015366Y004690D01*
X015311Y004635D01*
X015163Y004635D02*
X015108Y004690D01*
X014998Y004690D01*
X014943Y004635D01*
X014795Y004635D02*
X014740Y004690D01*
X014630Y004690D01*
X014575Y004635D01*
X014575Y004415D01*
X014630Y004360D01*
X014740Y004360D01*
X014795Y004415D01*
X014943Y004360D02*
X015163Y004580D01*
X015163Y004635D01*
X015163Y004360D02*
X014943Y004360D01*
X013921Y002753D02*
X013811Y002753D01*
X013756Y002697D01*
X013607Y002697D02*
X013607Y002587D01*
X013552Y002532D01*
X013387Y002532D01*
X013387Y002422D02*
X013387Y002753D01*
X013552Y002753D01*
X013607Y002697D01*
X013497Y002532D02*
X013607Y002422D01*
X013756Y002422D02*
X013976Y002642D01*
X013976Y002697D01*
X013921Y002753D01*
X013976Y002422D02*
X013756Y002422D01*
X014005Y001690D02*
X013950Y001635D01*
X013950Y001415D01*
X014005Y001360D01*
X014115Y001360D01*
X014170Y001415D01*
X014318Y001415D02*
X014318Y001635D01*
X014373Y001690D01*
X014483Y001690D01*
X014538Y001635D01*
X014538Y001415D01*
X014483Y001360D01*
X014373Y001360D01*
X014318Y001415D01*
X014170Y001635D02*
X014115Y001690D01*
X014005Y001690D01*
X014686Y001690D02*
X014906Y001360D01*
X014906Y001690D01*
X015055Y001690D02*
X015275Y001690D01*
X015165Y001690D02*
X015165Y001360D01*
X015423Y001360D02*
X015423Y001690D01*
X015588Y001690D01*
X015643Y001635D01*
X015643Y001525D01*
X015588Y001470D01*
X015423Y001470D01*
X015533Y001470D02*
X015643Y001360D01*
X015791Y001360D02*
X015791Y001580D01*
X015901Y001690D01*
X016011Y001580D01*
X016011Y001360D01*
X016160Y001415D02*
X016215Y001360D01*
X016325Y001360D01*
X016380Y001415D01*
X016380Y001470D01*
X016325Y001525D01*
X016215Y001525D01*
X016160Y001580D01*
X016160Y001635D01*
X016215Y001690D01*
X016325Y001690D01*
X016380Y001635D01*
X016528Y001690D02*
X016748Y001690D01*
X016638Y001690D02*
X016638Y001360D01*
X016011Y001525D02*
X015791Y001525D01*
X014686Y001360D02*
X014686Y001690D01*
X011601Y002602D02*
X011546Y002547D01*
X011436Y002547D01*
X011381Y002602D01*
X011232Y002602D02*
X011232Y002878D01*
X011381Y002822D02*
X011436Y002878D01*
X011546Y002878D01*
X011601Y002822D01*
X011601Y002767D01*
X011546Y002712D01*
X011601Y002657D01*
X011601Y002602D01*
X011546Y002712D02*
X011491Y002712D01*
X011232Y002602D02*
X011177Y002547D01*
X011067Y002547D01*
X011012Y002602D01*
X011012Y002878D01*
X005581Y001697D02*
X005526Y001753D01*
X005415Y001753D01*
X005360Y001697D01*
X005212Y001697D02*
X005212Y001642D01*
X005157Y001587D01*
X005212Y001532D01*
X005212Y001477D01*
X005157Y001422D01*
X005047Y001422D01*
X004992Y001477D01*
X005102Y001587D02*
X005157Y001587D01*
X005212Y001697D02*
X005157Y001753D01*
X005047Y001753D01*
X004992Y001697D01*
X004844Y001697D02*
X004789Y001753D01*
X004679Y001753D01*
X004624Y001697D01*
X004476Y001697D02*
X004421Y001753D01*
X004311Y001753D01*
X004256Y001697D01*
X004256Y001642D01*
X004311Y001587D01*
X004421Y001587D01*
X004476Y001532D01*
X004476Y001477D01*
X004421Y001422D01*
X004311Y001422D01*
X004256Y001477D01*
X004107Y001422D02*
X003997Y001532D01*
X004052Y001532D02*
X003887Y001532D01*
X003887Y001422D02*
X003887Y001753D01*
X004052Y001753D01*
X004107Y001697D01*
X004107Y001587D01*
X004052Y001532D01*
X004624Y001422D02*
X004844Y001642D01*
X004844Y001697D01*
X004844Y001422D02*
X004624Y001422D01*
X005360Y001422D02*
X005581Y001642D01*
X005581Y001697D01*
X005581Y001422D02*
X005360Y001422D01*
X009380Y006735D02*
X009490Y006735D01*
X009545Y006790D01*
X009693Y006735D02*
X009913Y006735D01*
X009803Y006735D02*
X009803Y007065D01*
X009693Y006955D01*
X009545Y007010D02*
X009490Y007065D01*
X009380Y007065D01*
X009325Y007010D01*
X009325Y006790D01*
X009380Y006735D01*
X010061Y006735D02*
X010281Y006955D01*
X010281Y007010D01*
X010226Y007065D01*
X010116Y007065D01*
X010061Y007010D01*
X010061Y006735D02*
X010281Y006735D01*
X010226Y007985D02*
X010116Y007985D01*
X010061Y008040D01*
X010171Y008150D02*
X010226Y008150D01*
X010281Y008095D01*
X010281Y008040D01*
X010226Y007985D01*
X010226Y008150D02*
X010281Y008205D01*
X010281Y008260D01*
X010226Y008315D01*
X010116Y008315D01*
X010061Y008260D01*
X009803Y008315D02*
X009803Y007985D01*
X009693Y007985D02*
X009913Y007985D01*
X009693Y008205D02*
X009803Y008315D01*
X009545Y008260D02*
X009490Y008315D01*
X009380Y008315D01*
X009325Y008260D01*
X009325Y008040D01*
X009380Y007985D01*
X009490Y007985D01*
X009545Y008040D01*
X016174Y011165D02*
X016230Y011110D01*
X016450Y011110D01*
X016505Y011165D01*
X016505Y011275D01*
X016450Y011330D01*
X016450Y011478D02*
X016395Y011478D01*
X016340Y011533D01*
X016340Y011643D01*
X016395Y011698D01*
X016450Y011698D01*
X016505Y011643D01*
X016505Y011533D01*
X016450Y011478D01*
X016340Y011533D02*
X016285Y011478D01*
X016230Y011478D01*
X016174Y011533D01*
X016174Y011643D01*
X016230Y011698D01*
X016285Y011698D01*
X016340Y011643D01*
X016230Y011330D02*
X016174Y011275D01*
X016174Y011165D01*
X018487Y010831D02*
X018652Y010666D01*
X018652Y010886D01*
X018817Y010831D02*
X018487Y010831D01*
X018542Y010517D02*
X018487Y010462D01*
X018487Y010352D01*
X018542Y010297D01*
X018762Y010297D01*
X018817Y010352D01*
X018817Y010462D01*
X018762Y010517D01*
X018387Y012672D02*
X018442Y012727D01*
X018442Y012837D01*
X018387Y012892D01*
X018442Y013041D02*
X018222Y013261D01*
X018167Y013261D01*
X018112Y013206D01*
X018112Y013096D01*
X018167Y013041D01*
X018167Y012892D02*
X018112Y012837D01*
X018112Y012727D01*
X018167Y012672D01*
X018387Y012672D01*
X018442Y013041D02*
X018442Y013261D01*
X016567Y013547D02*
X016237Y013547D01*
X016237Y013712D01*
X016292Y013767D01*
X016402Y013767D01*
X016457Y013712D01*
X016457Y013547D01*
X016457Y013657D02*
X016567Y013767D01*
X016512Y013916D02*
X016457Y013916D01*
X016402Y013971D01*
X016402Y014081D01*
X016457Y014136D01*
X016512Y014136D01*
X016567Y014081D01*
X016567Y013971D01*
X016512Y013916D01*
X016402Y013971D02*
X016347Y013916D01*
X016292Y013916D01*
X016237Y013971D01*
X016237Y014081D01*
X016292Y014136D01*
X016347Y014136D01*
X016402Y014081D01*
X016436Y015297D02*
X016601Y015297D01*
X016656Y015352D01*
X016656Y015572D01*
X016601Y015628D01*
X016436Y015628D01*
X016436Y015297D01*
X016288Y015297D02*
X016288Y015517D01*
X016178Y015628D01*
X016068Y015517D01*
X016068Y015297D01*
X015920Y015297D02*
X015920Y015628D01*
X015810Y015517D01*
X015700Y015628D01*
X015700Y015297D01*
X016068Y015462D02*
X016288Y015462D01*
X016805Y015462D02*
X016915Y015462D01*
X016805Y015297D02*
X017025Y015297D01*
X016805Y015297D02*
X016805Y015628D01*
X017025Y015628D01*
X017541Y015628D02*
X017651Y015628D01*
X017596Y015628D02*
X017596Y015297D01*
X017541Y015297D02*
X017651Y015297D01*
X017787Y015297D02*
X017787Y015628D01*
X018007Y015297D01*
X018007Y015628D01*
X018523Y015628D02*
X018523Y015352D01*
X018578Y015297D01*
X018689Y015297D01*
X018744Y015352D01*
X018744Y015628D01*
X018892Y015572D02*
X018892Y015517D01*
X018947Y015462D01*
X019057Y015462D01*
X019112Y015407D01*
X019112Y015352D01*
X019057Y015297D01*
X018947Y015297D01*
X018892Y015352D01*
X018892Y015572D02*
X018947Y015628D01*
X019057Y015628D01*
X019112Y015572D01*
X019260Y015517D02*
X019370Y015628D01*
X019480Y015517D01*
X019480Y015297D01*
X019480Y015462D02*
X019260Y015462D01*
X019260Y015517D02*
X019260Y015297D01*
X020737Y016485D02*
X020737Y016650D01*
X020792Y016705D01*
X020902Y016705D01*
X020957Y016650D01*
X020957Y016485D01*
X020957Y016595D02*
X021067Y016705D01*
X021067Y016853D02*
X021012Y016853D01*
X020792Y017073D01*
X020737Y017073D01*
X020737Y016853D01*
X020792Y017221D02*
X020737Y017276D01*
X020737Y017386D01*
X020792Y017442D01*
X021012Y017442D01*
X021067Y017386D01*
X021067Y017276D01*
X021012Y017221D01*
X020902Y017276D02*
X020902Y017442D01*
X020902Y017276D02*
X020847Y017221D01*
X020792Y017221D01*
X020737Y016485D02*
X021067Y016485D01*
X019067Y017360D02*
X018737Y017360D01*
X018737Y017525D01*
X018792Y017580D01*
X018902Y017580D01*
X018957Y017525D01*
X018957Y017360D01*
X018957Y017470D02*
X019067Y017580D01*
X019012Y017728D02*
X019067Y017783D01*
X019067Y017893D01*
X019012Y017948D01*
X018792Y017948D01*
X018737Y017893D01*
X018737Y017783D01*
X018792Y017728D01*
X018847Y017728D01*
X018902Y017783D01*
X018902Y017948D01*
X020533Y019509D02*
X020533Y019619D01*
X020588Y019674D01*
X020808Y019674D01*
X020863Y019619D01*
X020863Y019509D01*
X020808Y019454D01*
X020588Y019454D01*
X020533Y019509D01*
X020753Y019564D02*
X020863Y019674D01*
X020863Y019822D02*
X020643Y020043D01*
X020588Y020043D01*
X020533Y019988D01*
X020533Y019878D01*
X020588Y019822D01*
X020863Y019822D02*
X020863Y020043D01*
X016163Y020712D02*
X015943Y020712D01*
X016108Y020878D01*
X016108Y020547D01*
X015795Y020547D02*
X015575Y020878D01*
X015795Y020878D02*
X015575Y020547D01*
X015380Y020111D02*
X015380Y019891D01*
X015049Y019891D01*
X015049Y020111D01*
X015215Y020001D02*
X015215Y019891D01*
X015049Y019743D02*
X015049Y019523D01*
X015049Y019633D02*
X015380Y019633D01*
X015380Y019387D02*
X015380Y019277D01*
X015380Y019332D02*
X015049Y019332D01*
X015049Y019277D02*
X015049Y019387D01*
X015380Y019129D02*
X015380Y018909D01*
X015049Y018909D01*
X015049Y018761D02*
X015270Y018541D01*
X015215Y018596D02*
X015380Y018761D01*
X015380Y018541D02*
X015049Y018541D01*
X015105Y018392D02*
X015160Y018392D01*
X015215Y018337D01*
X015215Y018172D01*
X015380Y018172D02*
X015380Y018337D01*
X015325Y018392D01*
X015270Y018392D01*
X015215Y018337D01*
X015105Y018392D02*
X015049Y018337D01*
X015049Y018172D01*
X015380Y018172D01*
X015325Y017386D02*
X015270Y017386D01*
X015215Y017331D01*
X015215Y017166D01*
X015325Y017166D01*
X015380Y017221D01*
X015380Y017331D01*
X015325Y017386D01*
X015215Y017166D02*
X015104Y017276D01*
X015049Y017386D01*
X015104Y017017D02*
X015215Y017017D01*
X015270Y016962D01*
X015270Y016797D01*
X015380Y016797D02*
X015049Y016797D01*
X015049Y016962D01*
X015104Y017017D01*
X015270Y016907D02*
X015380Y017017D01*
X014380Y016449D02*
X014325Y016504D01*
X014105Y016504D01*
X014049Y016449D01*
X014049Y016284D01*
X014380Y016284D01*
X014380Y016449D01*
X014325Y016136D02*
X014380Y016081D01*
X014380Y015971D01*
X014325Y015916D01*
X014105Y015916D01*
X014049Y015971D01*
X014049Y016081D01*
X014105Y016136D01*
X014380Y015767D02*
X014380Y015547D01*
X014049Y015547D01*
X011325Y018422D02*
X011380Y018477D01*
X011380Y018532D01*
X011325Y018587D01*
X011049Y018587D01*
X011049Y018532D02*
X011049Y018642D01*
X011160Y018791D02*
X011049Y018901D01*
X011380Y018901D01*
X011380Y018791D02*
X011380Y019011D01*
X026450Y016378D02*
X026450Y016047D01*
X026615Y016047D01*
X026670Y016102D01*
X026670Y016157D01*
X026615Y016212D01*
X026450Y016212D01*
X026615Y016212D02*
X026670Y016267D01*
X026670Y016322D01*
X026615Y016378D01*
X026450Y016378D01*
X026818Y016267D02*
X026928Y016378D01*
X026928Y016047D01*
X026818Y016047D02*
X027038Y016047D01*
X027549Y016026D02*
X027880Y016026D01*
X027880Y015916D02*
X027880Y016136D01*
X027825Y016284D02*
X027770Y016284D01*
X027715Y016339D01*
X027715Y016449D01*
X027770Y016504D01*
X027825Y016504D01*
X027880Y016449D01*
X027880Y016339D01*
X027825Y016284D01*
X027715Y016339D02*
X027660Y016284D01*
X027605Y016284D01*
X027549Y016339D01*
X027549Y016449D01*
X027605Y016504D01*
X027660Y016504D01*
X027715Y016449D01*
X027549Y016026D02*
X027660Y015916D01*
X027715Y015767D02*
X027770Y015712D01*
X027770Y015547D01*
X027880Y015547D02*
X027549Y015547D01*
X027549Y015712D01*
X027605Y015767D01*
X027715Y015767D01*
X027770Y015657D02*
X027880Y015767D01*
X028674Y015852D02*
X028674Y015962D01*
X028730Y016017D01*
X028950Y016017D01*
X029005Y015962D01*
X029005Y015852D01*
X028950Y015797D01*
X028730Y015797D01*
X028674Y015852D01*
X028895Y015907D02*
X029005Y016017D01*
X028950Y016166D02*
X029005Y016221D01*
X029005Y016331D01*
X028950Y016386D01*
X028840Y016386D01*
X028785Y016331D01*
X028785Y016276D01*
X028840Y016166D01*
X028674Y016166D01*
X028674Y016386D01*
X029799Y016331D02*
X029799Y016221D01*
X029855Y016166D01*
X029855Y016017D02*
X029799Y015962D01*
X029799Y015797D01*
X030130Y015797D01*
X030130Y015962D01*
X030075Y016017D01*
X029855Y016017D01*
X030130Y016166D02*
X029910Y016386D01*
X029855Y016386D01*
X029799Y016331D01*
X030130Y016386D02*
X030130Y016166D01*
X026788Y014697D02*
X026788Y014642D01*
X026568Y014422D01*
X026788Y014422D01*
X026788Y014697D02*
X026733Y014753D01*
X026623Y014753D01*
X026568Y014697D01*
X026420Y014753D02*
X026420Y014477D01*
X026365Y014422D01*
X026255Y014422D01*
X026200Y014477D01*
X026200Y014753D01*
X026512Y013690D02*
X026677Y013690D01*
X026732Y013635D01*
X026732Y013525D01*
X026677Y013470D01*
X026512Y013470D01*
X026512Y013360D02*
X026512Y013690D01*
X026622Y013470D02*
X026732Y013360D01*
X026881Y013415D02*
X026936Y013360D01*
X027046Y013360D01*
X027101Y013415D01*
X027101Y013525D01*
X027046Y013580D01*
X026991Y013580D01*
X026881Y013525D01*
X026881Y013690D01*
X027101Y013690D01*
X027249Y013635D02*
X027304Y013690D01*
X027414Y013690D01*
X027469Y013635D01*
X027249Y013415D01*
X027304Y013360D01*
X027414Y013360D01*
X027469Y013415D01*
X027469Y013635D01*
X027249Y013635D02*
X027249Y013415D01*
X027242Y012627D02*
X027462Y012627D01*
X027462Y012572D01*
X027242Y012352D01*
X027242Y012297D01*
X027094Y012352D02*
X027039Y012297D01*
X026929Y012297D01*
X026874Y012352D01*
X026874Y012572D01*
X026929Y012627D01*
X027039Y012627D01*
X027094Y012572D01*
X029975Y013148D02*
X030085Y013038D01*
X030085Y012873D01*
X030085Y013038D02*
X030195Y013148D01*
X030195Y013203D01*
X030343Y013093D02*
X030453Y013203D01*
X030453Y012873D01*
X030343Y012873D02*
X030563Y012873D01*
X029975Y013148D02*
X029975Y013203D01*
X031480Y011254D02*
X031424Y011199D01*
X031424Y011089D01*
X031480Y011034D01*
X031480Y010886D02*
X031535Y010886D01*
X031590Y010831D01*
X031645Y010886D01*
X031700Y010886D01*
X031755Y010831D01*
X031755Y010721D01*
X031700Y010666D01*
X031590Y010776D02*
X031590Y010831D01*
X031480Y010886D02*
X031424Y010831D01*
X031424Y010721D01*
X031480Y010666D01*
X031480Y010517D02*
X031590Y010517D01*
X031645Y010462D01*
X031645Y010297D01*
X031755Y010297D02*
X031424Y010297D01*
X031424Y010462D01*
X031480Y010517D01*
X031645Y010407D02*
X031755Y010517D01*
X032352Y010075D02*
X032352Y009450D01*
X032977Y009450D01*
X032977Y010075D01*
X032352Y010075D01*
X032078Y009940D02*
X032078Y009610D01*
X031968Y009610D02*
X032188Y009610D01*
X031968Y009830D02*
X032078Y009940D01*
X031819Y009885D02*
X031819Y009775D01*
X031764Y009720D01*
X031599Y009720D01*
X031599Y009610D02*
X031599Y009940D01*
X031764Y009940D01*
X031819Y009885D01*
X031451Y009940D02*
X031231Y009940D01*
X031341Y009940D02*
X031341Y009610D01*
X031605Y009261D02*
X031660Y009261D01*
X031715Y009206D01*
X031770Y009261D01*
X031825Y009261D01*
X031880Y009206D01*
X031880Y009096D01*
X031825Y009041D01*
X031825Y008892D02*
X031880Y008837D01*
X031880Y008727D01*
X031825Y008672D01*
X031605Y008672D01*
X031549Y008727D01*
X031549Y008837D01*
X031605Y008892D01*
X031605Y009041D02*
X031549Y009096D01*
X031549Y009206D01*
X031605Y009261D01*
X031715Y009206D02*
X031715Y009151D01*
X032174Y009074D02*
X032174Y008964D01*
X032230Y008909D01*
X032285Y008909D01*
X032340Y008964D01*
X032340Y009074D01*
X032395Y009129D01*
X032450Y009129D01*
X032505Y009074D01*
X032505Y008964D01*
X032450Y008909D01*
X032395Y008909D01*
X032340Y008964D01*
X032340Y009074D02*
X032285Y009129D01*
X032230Y009129D01*
X032174Y009074D01*
X032174Y008761D02*
X032230Y008761D01*
X032450Y008541D01*
X032505Y008541D01*
X032450Y008392D02*
X032505Y008337D01*
X032505Y008227D01*
X032450Y008172D01*
X032230Y008172D01*
X032174Y008227D01*
X032174Y008337D01*
X032230Y008392D01*
X032174Y008541D02*
X032174Y008761D01*
X031733Y008253D02*
X031788Y008197D01*
X031788Y008142D01*
X031733Y008087D01*
X031788Y008032D01*
X031788Y007977D01*
X031733Y007922D01*
X031623Y007922D01*
X031568Y007977D01*
X031678Y008087D02*
X031733Y008087D01*
X031733Y008253D02*
X031623Y008253D01*
X031568Y008197D01*
X031420Y007922D02*
X031200Y007922D01*
X031200Y008253D01*
X033200Y008159D02*
X033200Y007829D01*
X033200Y007939D02*
X033365Y007939D01*
X033420Y007994D01*
X033420Y008104D01*
X033365Y008159D01*
X033200Y008159D01*
X033310Y007939D02*
X033420Y007829D01*
X033568Y007884D02*
X033623Y007829D01*
X033733Y007829D01*
X033788Y007884D01*
X033788Y007939D01*
X033733Y007994D01*
X033568Y007994D01*
X033568Y007884D01*
X033568Y007994D02*
X033678Y008104D01*
X033788Y008159D01*
X033936Y008104D02*
X033936Y008049D01*
X033991Y007994D01*
X034101Y007994D01*
X034156Y007939D01*
X034156Y007884D01*
X034101Y007829D01*
X033991Y007829D01*
X033936Y007884D01*
X033936Y007939D01*
X033991Y007994D01*
X034101Y007994D02*
X034156Y008049D01*
X034156Y008104D01*
X034101Y008159D01*
X033991Y008159D01*
X033936Y008104D01*
X034950Y008159D02*
X034950Y007829D01*
X034950Y007939D02*
X035115Y007939D01*
X035170Y007994D01*
X035170Y008104D01*
X035115Y008159D01*
X034950Y008159D01*
X035060Y007939D02*
X035170Y007829D01*
X035318Y007884D02*
X035373Y007829D01*
X035483Y007829D01*
X035538Y007884D01*
X035538Y007939D01*
X035483Y007994D01*
X035428Y007994D01*
X035483Y007994D02*
X035538Y008049D01*
X035538Y008104D01*
X035483Y008159D01*
X035373Y008159D01*
X035318Y008104D01*
X035686Y008049D02*
X035796Y008159D01*
X035796Y007829D01*
X035686Y007829D02*
X035906Y007829D01*
X036700Y007829D02*
X036700Y008159D01*
X036865Y008159D01*
X036920Y008104D01*
X036920Y007994D01*
X036865Y007939D01*
X036700Y007939D01*
X036810Y007939D02*
X036920Y007829D01*
X037068Y007884D02*
X037123Y007829D01*
X037233Y007829D01*
X037288Y007884D01*
X037288Y007939D01*
X037233Y007994D01*
X037178Y007994D01*
X037233Y007994D02*
X037288Y008049D01*
X037288Y008104D01*
X037233Y008159D01*
X037123Y008159D01*
X037068Y008104D01*
X037436Y008159D02*
X037656Y008159D01*
X037656Y008104D01*
X037436Y007884D01*
X037436Y007829D01*
X037924Y007824D02*
X038090Y007659D01*
X038090Y007879D01*
X038255Y007824D02*
X037924Y007824D01*
X037980Y007511D02*
X038090Y007511D01*
X038145Y007456D01*
X038145Y007291D01*
X038255Y007291D02*
X037924Y007291D01*
X037924Y007456D01*
X037980Y007511D01*
X037924Y007142D02*
X037924Y007032D01*
X037924Y007087D02*
X038200Y007087D01*
X038255Y007032D01*
X038255Y006977D01*
X038200Y006922D01*
X037656Y006854D02*
X037601Y006909D01*
X037491Y006909D01*
X037436Y006854D01*
X037436Y006799D01*
X037491Y006744D01*
X037656Y006744D01*
X037656Y006634D02*
X037656Y006854D01*
X037656Y006634D02*
X037601Y006579D01*
X037491Y006579D01*
X037436Y006634D01*
X037288Y006579D02*
X037068Y006579D01*
X037288Y006799D01*
X037288Y006854D01*
X037233Y006909D01*
X037123Y006909D01*
X037068Y006854D01*
X036920Y006854D02*
X036865Y006909D01*
X036700Y006909D01*
X036700Y006579D01*
X036700Y006689D02*
X036865Y006689D01*
X036920Y006744D01*
X036920Y006854D01*
X036810Y006689D02*
X036920Y006579D01*
X035906Y006744D02*
X035686Y006744D01*
X035851Y006909D01*
X035851Y006579D01*
X035538Y006634D02*
X035483Y006579D01*
X035373Y006579D01*
X035318Y006634D01*
X035428Y006744D02*
X035483Y006744D01*
X035538Y006689D01*
X035538Y006634D01*
X035483Y006744D02*
X035538Y006799D01*
X035538Y006854D01*
X035483Y006909D01*
X035373Y006909D01*
X035318Y006854D01*
X035170Y006854D02*
X035170Y006744D01*
X035115Y006689D01*
X034950Y006689D01*
X035060Y006689D02*
X035170Y006579D01*
X034950Y006579D02*
X034950Y006909D01*
X035115Y006909D01*
X035170Y006854D01*
X034156Y006579D02*
X033936Y006579D01*
X034046Y006579D02*
X034046Y006909D01*
X033936Y006799D01*
X033788Y006909D02*
X033678Y006854D01*
X033568Y006744D01*
X033733Y006744D01*
X033788Y006689D01*
X033788Y006634D01*
X033733Y006579D01*
X033623Y006579D01*
X033568Y006634D01*
X033568Y006744D01*
X033420Y006854D02*
X033365Y006909D01*
X033255Y006909D01*
X033200Y006854D01*
X033200Y006634D01*
X033255Y006579D01*
X033365Y006579D01*
X033420Y006634D01*
X032781Y006253D02*
X032781Y006197D01*
X032561Y005977D01*
X032561Y005922D01*
X032413Y006087D02*
X032358Y006032D01*
X032193Y006032D01*
X032193Y005922D02*
X032193Y006253D01*
X032358Y006253D01*
X032413Y006197D01*
X032413Y006087D01*
X032561Y006253D02*
X032781Y006253D01*
X032477Y006450D02*
X032477Y007075D01*
X031852Y007075D01*
X031852Y006450D01*
X032477Y006450D01*
X032045Y006253D02*
X031825Y006253D01*
X031935Y006253D02*
X031935Y005922D01*
X031227Y006075D02*
X031227Y006575D01*
X031225Y006596D01*
X031220Y006616D01*
X031212Y006634D01*
X031201Y006652D01*
X031187Y006667D01*
X031170Y006680D01*
X031152Y006689D01*
X031133Y006696D01*
X031112Y006700D01*
X031092Y006700D01*
X031071Y006696D01*
X031052Y006689D01*
X031034Y006680D01*
X031017Y006667D01*
X031003Y006652D01*
X030992Y006634D01*
X030984Y006616D01*
X030979Y006596D01*
X030977Y006575D01*
X030977Y006075D01*
X031039Y005887D02*
X031057Y005932D01*
X031102Y005950D01*
X031147Y005932D01*
X031165Y005887D01*
X031147Y005842D01*
X031102Y005824D01*
X031057Y005842D01*
X031039Y005887D01*
X031102Y005887D02*
X031102Y006387D01*
X030977Y006075D02*
X030953Y006057D01*
X030931Y006036D01*
X030912Y006013D01*
X030896Y005987D01*
X030884Y005960D01*
X030875Y005931D01*
X030870Y005902D01*
X030869Y005872D01*
X030872Y005842D01*
X030878Y005813D01*
X030889Y005785D01*
X030902Y005758D01*
X030919Y005733D01*
X030939Y005711D01*
X030962Y005692D01*
X030987Y005675D01*
X031014Y005662D01*
X031043Y005653D01*
X031072Y005647D01*
X031102Y005645D01*
X031132Y005647D01*
X031161Y005653D01*
X031190Y005662D01*
X031217Y005675D01*
X031242Y005692D01*
X031265Y005711D01*
X031285Y005733D01*
X031302Y005758D01*
X031315Y005785D01*
X031326Y005813D01*
X031332Y005842D01*
X031335Y005872D01*
X031334Y005902D01*
X031329Y005931D01*
X031320Y005960D01*
X031308Y005987D01*
X031292Y006013D01*
X031273Y006036D01*
X031251Y006057D01*
X031227Y006075D01*
X031115Y005315D02*
X031005Y005315D01*
X030950Y005260D01*
X030950Y005040D01*
X031005Y004985D01*
X031115Y004985D01*
X031170Y005040D01*
X031318Y004985D02*
X031538Y004985D01*
X031428Y004985D02*
X031428Y005315D01*
X031318Y005205D01*
X031170Y005260D02*
X031115Y005315D01*
X031686Y005260D02*
X031686Y005205D01*
X031741Y005150D01*
X031906Y005150D01*
X031906Y005260D02*
X031851Y005315D01*
X031741Y005315D01*
X031686Y005260D01*
X031686Y005040D02*
X031741Y004985D01*
X031851Y004985D01*
X031906Y005040D01*
X031906Y005260D01*
X033200Y005329D02*
X033200Y005659D01*
X033365Y005659D01*
X033420Y005604D01*
X033420Y005494D01*
X033365Y005439D01*
X033200Y005439D01*
X033310Y005439D02*
X033420Y005329D01*
X033568Y005384D02*
X033623Y005329D01*
X033733Y005329D01*
X033788Y005384D01*
X033788Y005439D01*
X033733Y005494D01*
X033678Y005494D01*
X033733Y005494D02*
X033788Y005549D01*
X033788Y005604D01*
X033733Y005659D01*
X033623Y005659D01*
X033568Y005604D01*
X033936Y005604D02*
X033991Y005659D01*
X034101Y005659D01*
X034156Y005604D01*
X034156Y005549D01*
X034101Y005494D01*
X033991Y005494D01*
X033936Y005549D01*
X033936Y005604D01*
X033991Y005494D02*
X033936Y005439D01*
X033936Y005384D01*
X033991Y005329D01*
X034101Y005329D01*
X034156Y005384D01*
X034156Y005439D01*
X034101Y005494D01*
X034950Y005604D02*
X035005Y005659D01*
X035115Y005659D01*
X035170Y005604D01*
X035318Y005604D02*
X035373Y005659D01*
X035483Y005659D01*
X035538Y005604D01*
X035538Y005549D01*
X035483Y005494D01*
X035538Y005439D01*
X035538Y005384D01*
X035483Y005329D01*
X035373Y005329D01*
X035318Y005384D01*
X035170Y005384D02*
X035115Y005329D01*
X035005Y005329D01*
X034950Y005384D01*
X034950Y005604D01*
X035428Y005494D02*
X035483Y005494D01*
X035686Y005494D02*
X035851Y005494D01*
X035906Y005439D01*
X035906Y005384D01*
X035851Y005329D01*
X035741Y005329D01*
X035686Y005384D01*
X035686Y005494D01*
X035796Y005604D01*
X035906Y005659D01*
X036700Y005659D02*
X036700Y005329D01*
X036700Y005439D02*
X036865Y005439D01*
X036920Y005494D01*
X036920Y005604D01*
X036865Y005659D01*
X036700Y005659D01*
X036810Y005439D02*
X036920Y005329D01*
X037068Y005384D02*
X037123Y005329D01*
X037233Y005329D01*
X037288Y005384D01*
X037288Y005439D01*
X037233Y005494D01*
X037178Y005494D01*
X037233Y005494D02*
X037288Y005549D01*
X037288Y005604D01*
X037233Y005659D01*
X037123Y005659D01*
X037068Y005604D01*
X037436Y005604D02*
X037436Y005549D01*
X037491Y005494D01*
X037656Y005494D01*
X037656Y005604D02*
X037601Y005659D01*
X037491Y005659D01*
X037436Y005604D01*
X037436Y005384D02*
X037491Y005329D01*
X037601Y005329D01*
X037656Y005384D01*
X037656Y005604D01*
X037601Y004409D02*
X037656Y004354D01*
X037656Y004299D01*
X037601Y004244D01*
X037491Y004244D01*
X037436Y004299D01*
X037436Y004354D01*
X037491Y004409D01*
X037601Y004409D01*
X037601Y004244D02*
X037656Y004189D01*
X037656Y004134D01*
X037601Y004079D01*
X037491Y004079D01*
X037436Y004134D01*
X037436Y004189D01*
X037491Y004244D01*
X037288Y004299D02*
X037233Y004244D01*
X037288Y004189D01*
X037288Y004134D01*
X037233Y004079D01*
X037123Y004079D01*
X037068Y004134D01*
X036920Y004134D02*
X036865Y004079D01*
X036755Y004079D01*
X036700Y004134D01*
X036700Y004354D01*
X036755Y004409D01*
X036865Y004409D01*
X036920Y004354D01*
X037068Y004354D02*
X037123Y004409D01*
X037233Y004409D01*
X037288Y004354D01*
X037288Y004299D01*
X037233Y004244D02*
X037178Y004244D01*
X035906Y004354D02*
X035686Y004134D01*
X035686Y004079D01*
X035538Y004134D02*
X035483Y004079D01*
X035373Y004079D01*
X035318Y004134D01*
X035170Y004134D02*
X035115Y004079D01*
X035005Y004079D01*
X034950Y004134D01*
X034950Y004354D01*
X035005Y004409D01*
X035115Y004409D01*
X035170Y004354D01*
X035318Y004354D02*
X035373Y004409D01*
X035483Y004409D01*
X035538Y004354D01*
X035538Y004299D01*
X035483Y004244D01*
X035538Y004189D01*
X035538Y004134D01*
X035483Y004244D02*
X035428Y004244D01*
X035686Y004409D02*
X035906Y004409D01*
X035906Y004354D01*
X035851Y003159D02*
X035906Y003104D01*
X035686Y002884D01*
X035741Y002829D01*
X035851Y002829D01*
X035906Y002884D01*
X035906Y003104D01*
X035851Y003159D02*
X035741Y003159D01*
X035686Y003104D01*
X035686Y002884D01*
X035538Y002994D02*
X035318Y002994D01*
X035483Y003159D01*
X035483Y002829D01*
X035170Y002829D02*
X035060Y002939D01*
X035115Y002939D02*
X034950Y002939D01*
X034950Y002829D02*
X034950Y003159D01*
X035115Y003159D01*
X035170Y003104D01*
X035170Y002994D01*
X035115Y002939D01*
X034156Y002884D02*
X034101Y002829D01*
X033991Y002829D01*
X033936Y002884D01*
X034156Y003104D01*
X034156Y002884D01*
X033936Y002884D02*
X033936Y003104D01*
X033991Y003159D01*
X034101Y003159D01*
X034156Y003104D01*
X033788Y003104D02*
X033788Y003049D01*
X033733Y002994D01*
X033788Y002939D01*
X033788Y002884D01*
X033733Y002829D01*
X033623Y002829D01*
X033568Y002884D01*
X033678Y002994D02*
X033733Y002994D01*
X033788Y003104D02*
X033733Y003159D01*
X033623Y003159D01*
X033568Y003104D01*
X033420Y003104D02*
X033420Y002994D01*
X033365Y002939D01*
X033200Y002939D01*
X033310Y002939D02*
X033420Y002829D01*
X033200Y002829D02*
X033200Y003159D01*
X033365Y003159D01*
X033420Y003104D01*
X033365Y004079D02*
X033420Y004134D01*
X033365Y004079D02*
X033255Y004079D01*
X033200Y004134D01*
X033200Y004354D01*
X033255Y004409D01*
X033365Y004409D01*
X033420Y004354D01*
X033568Y004354D02*
X033623Y004409D01*
X033733Y004409D01*
X033788Y004354D01*
X033788Y004299D01*
X033733Y004244D01*
X033788Y004189D01*
X033788Y004134D01*
X033733Y004079D01*
X033623Y004079D01*
X033568Y004134D01*
X033678Y004244D02*
X033733Y004244D01*
X033936Y004244D02*
X034046Y004299D01*
X034101Y004299D01*
X034156Y004244D01*
X034156Y004134D01*
X034101Y004079D01*
X033991Y004079D01*
X033936Y004134D01*
X033936Y004244D02*
X033936Y004409D01*
X034156Y004409D01*
X036700Y003159D02*
X036865Y003159D01*
X036920Y003104D01*
X036920Y002994D01*
X036865Y002939D01*
X036700Y002939D01*
X036810Y002939D02*
X036920Y002829D01*
X037068Y002884D02*
X037123Y002829D01*
X037233Y002829D01*
X037288Y002884D01*
X037288Y002939D01*
X037233Y002994D01*
X037178Y002994D01*
X037233Y002994D02*
X037288Y003049D01*
X037288Y003104D01*
X037233Y003159D01*
X037123Y003159D01*
X037068Y003104D01*
X036700Y003159D02*
X036700Y002829D01*
X037436Y002884D02*
X037491Y002829D01*
X037601Y002829D01*
X037656Y002884D01*
X037656Y002994D01*
X037601Y003049D01*
X037546Y003049D01*
X037436Y002994D01*
X037436Y003159D01*
X037656Y003159D01*
X039575Y001878D02*
X039575Y001602D01*
X039630Y001547D01*
X039740Y001547D01*
X039795Y001602D01*
X039795Y001878D01*
X039943Y001878D02*
X039943Y001712D01*
X040053Y001767D01*
X040108Y001767D01*
X040163Y001712D01*
X040163Y001602D01*
X040108Y001547D01*
X039998Y001547D01*
X039943Y001602D01*
X039943Y001878D02*
X040163Y001878D01*
X042200Y002829D02*
X042200Y003159D01*
X042365Y003159D01*
X042420Y003104D01*
X042420Y002994D01*
X042365Y002939D01*
X042200Y002939D01*
X042310Y002939D02*
X042420Y002829D01*
X042568Y002829D02*
X042788Y003049D01*
X042788Y003104D01*
X042733Y003159D01*
X042623Y003159D01*
X042568Y003104D01*
X042568Y002829D02*
X042788Y002829D01*
X042936Y002884D02*
X042936Y002939D01*
X042991Y002994D01*
X043101Y002994D01*
X043156Y002939D01*
X043156Y002884D01*
X043101Y002829D01*
X042991Y002829D01*
X042936Y002884D01*
X042991Y002994D02*
X042936Y003049D01*
X042936Y003104D01*
X042991Y003159D01*
X043101Y003159D01*
X043156Y003104D01*
X043156Y003049D01*
X043101Y002994D01*
X043950Y003104D02*
X044005Y003159D01*
X044115Y003159D01*
X044170Y003104D01*
X044318Y003104D02*
X044373Y003159D01*
X044483Y003159D01*
X044538Y003104D01*
X044538Y003049D01*
X044483Y002994D01*
X044538Y002939D01*
X044538Y002884D01*
X044483Y002829D01*
X044373Y002829D01*
X044318Y002884D01*
X044170Y002884D02*
X044115Y002829D01*
X044005Y002829D01*
X043950Y002884D01*
X043950Y003104D01*
X044428Y002994D02*
X044483Y002994D01*
X044686Y003049D02*
X044796Y003159D01*
X044796Y002829D01*
X044686Y002829D02*
X044906Y002829D01*
X045700Y002884D02*
X045755Y002829D01*
X045865Y002829D01*
X045920Y002884D01*
X046068Y002884D02*
X046123Y002829D01*
X046233Y002829D01*
X046288Y002884D01*
X046288Y002939D01*
X046233Y002994D01*
X046068Y002994D01*
X046068Y002884D01*
X046068Y002994D02*
X046178Y003104D01*
X046288Y003159D01*
X046436Y003159D02*
X046436Y002994D01*
X046546Y003049D01*
X046601Y003049D01*
X046656Y002994D01*
X046656Y002884D01*
X046601Y002829D01*
X046491Y002829D01*
X046436Y002884D01*
X046436Y003159D02*
X046656Y003159D01*
X045920Y003104D02*
X045865Y003159D01*
X045755Y003159D01*
X045700Y003104D01*
X045700Y002884D01*
X047450Y002939D02*
X047615Y002939D01*
X047670Y002994D01*
X047670Y003104D01*
X047615Y003159D01*
X047450Y003159D01*
X047450Y002829D01*
X047560Y002939D02*
X047670Y002829D01*
X047818Y002829D02*
X047818Y002884D01*
X048038Y003104D01*
X048038Y003159D01*
X047818Y003159D01*
X048186Y003159D02*
X048406Y003159D01*
X048406Y003104D01*
X048186Y002884D01*
X048186Y002829D01*
X049950Y001878D02*
X049950Y001602D01*
X050005Y001547D01*
X050115Y001547D01*
X050170Y001602D01*
X050170Y001878D01*
X050318Y001767D02*
X050428Y001878D01*
X050428Y001547D01*
X050318Y001547D02*
X050538Y001547D01*
X050686Y001602D02*
X050906Y001822D01*
X050906Y001602D01*
X050851Y001547D01*
X050741Y001547D01*
X050686Y001602D01*
X050686Y001822D01*
X050741Y001878D01*
X050851Y001878D01*
X050906Y001822D01*
X052700Y002829D02*
X052700Y003159D01*
X052865Y003159D01*
X052920Y003104D01*
X052920Y002994D01*
X052865Y002939D01*
X052700Y002939D01*
X052810Y002939D02*
X052920Y002829D01*
X053068Y002829D02*
X053068Y002884D01*
X053288Y003104D01*
X053288Y003159D01*
X053068Y003159D01*
X053436Y003104D02*
X053436Y003049D01*
X053491Y002994D01*
X053601Y002994D01*
X053656Y002939D01*
X053656Y002884D01*
X053601Y002829D01*
X053491Y002829D01*
X053436Y002884D01*
X053436Y002939D01*
X053491Y002994D01*
X053601Y002994D02*
X053656Y003049D01*
X053656Y003104D01*
X053601Y003159D01*
X053491Y003159D01*
X053436Y003104D01*
X054450Y003159D02*
X054615Y003159D01*
X054670Y003104D01*
X054670Y002994D01*
X054615Y002939D01*
X054450Y002939D01*
X054560Y002939D02*
X054670Y002829D01*
X054818Y002829D02*
X054818Y002884D01*
X055038Y003104D01*
X055038Y003159D01*
X054818Y003159D01*
X054450Y003159D02*
X054450Y002829D01*
X055186Y002994D02*
X055406Y002994D01*
X055351Y003159D02*
X055186Y002994D01*
X055351Y002829D02*
X055351Y003159D01*
X056200Y003104D02*
X056200Y002884D01*
X056255Y002829D01*
X056365Y002829D01*
X056420Y002884D01*
X056568Y002884D02*
X056623Y002829D01*
X056733Y002829D01*
X056788Y002884D01*
X056788Y002939D01*
X056733Y002994D01*
X056568Y002994D01*
X056568Y002884D01*
X056568Y002994D02*
X056678Y003104D01*
X056788Y003159D01*
X056936Y002994D02*
X057101Y002994D01*
X057156Y002939D01*
X057156Y002884D01*
X057101Y002829D01*
X056991Y002829D01*
X056936Y002884D01*
X056936Y002994D01*
X057046Y003104D01*
X057156Y003159D01*
X057950Y003104D02*
X057950Y002884D01*
X058005Y002829D01*
X058115Y002829D01*
X058170Y002884D01*
X058318Y002884D02*
X058373Y002829D01*
X058483Y002829D01*
X058538Y002884D01*
X058538Y002939D01*
X058483Y002994D01*
X058318Y002994D01*
X058318Y002884D01*
X058318Y002994D02*
X058428Y003104D01*
X058538Y003159D01*
X058686Y003104D02*
X058741Y003159D01*
X058851Y003159D01*
X058906Y003104D01*
X058906Y003049D01*
X058686Y002829D01*
X058906Y002829D01*
X058170Y003104D02*
X058115Y003159D01*
X058005Y003159D01*
X057950Y003104D01*
X056420Y003104D02*
X056365Y003159D01*
X056255Y003159D01*
X056200Y003104D01*
X056200Y004079D02*
X056200Y004409D01*
X056365Y004409D01*
X056420Y004354D01*
X056420Y004244D01*
X056365Y004189D01*
X056200Y004189D01*
X056310Y004189D02*
X056420Y004079D01*
X056568Y004134D02*
X056623Y004079D01*
X056733Y004079D01*
X056788Y004134D01*
X056788Y004244D01*
X056733Y004299D01*
X056678Y004299D01*
X056568Y004244D01*
X056568Y004409D01*
X056788Y004409D01*
X056936Y004244D02*
X057101Y004244D01*
X057156Y004189D01*
X057156Y004134D01*
X057101Y004079D01*
X056991Y004079D01*
X056936Y004134D01*
X056936Y004244D01*
X057046Y004354D01*
X057156Y004409D01*
X057950Y004409D02*
X057950Y004079D01*
X057950Y004189D02*
X058115Y004189D01*
X058170Y004244D01*
X058170Y004354D01*
X058115Y004409D01*
X057950Y004409D01*
X058060Y004189D02*
X058170Y004079D01*
X058318Y004079D02*
X058318Y004134D01*
X058538Y004354D01*
X058538Y004409D01*
X058318Y004409D01*
X058686Y004354D02*
X058741Y004409D01*
X058851Y004409D01*
X058906Y004354D01*
X058906Y004299D01*
X058686Y004079D01*
X058906Y004079D01*
X059799Y003942D02*
X059855Y003997D01*
X059965Y003997D01*
X060020Y003942D01*
X060020Y003777D01*
X060130Y003777D02*
X059799Y003777D01*
X059799Y003942D01*
X059799Y003629D02*
X059799Y003409D01*
X060130Y003409D01*
X060130Y003629D01*
X059965Y003519D02*
X059965Y003409D01*
X060130Y003261D02*
X060130Y003041D01*
X059799Y003041D01*
X059799Y003261D01*
X059965Y003151D02*
X059965Y003041D01*
X060020Y002892D02*
X060075Y002892D01*
X060130Y002837D01*
X060130Y002672D01*
X059799Y002672D01*
X059799Y002837D01*
X059855Y002892D01*
X059910Y002892D01*
X059965Y002837D01*
X059965Y002672D01*
X059965Y002837D02*
X060020Y002892D01*
X060424Y003041D02*
X060645Y003041D01*
X060755Y003151D01*
X060645Y003261D01*
X060424Y003261D01*
X060424Y003409D02*
X060755Y003409D01*
X060755Y003629D01*
X060755Y004047D02*
X060424Y004047D01*
X060424Y004212D01*
X060480Y004267D01*
X060590Y004267D01*
X060645Y004212D01*
X060645Y004047D01*
X060645Y004157D02*
X060755Y004267D01*
X060755Y004416D02*
X060700Y004416D01*
X060480Y004636D01*
X060424Y004636D01*
X060424Y004416D01*
X060535Y004784D02*
X060424Y004894D01*
X060755Y004894D01*
X060755Y004784D02*
X060755Y005004D01*
X060755Y005672D02*
X060755Y005892D01*
X060645Y006041D02*
X060755Y006151D01*
X060645Y006261D01*
X060424Y006261D01*
X060424Y006409D02*
X060755Y006409D01*
X060755Y006629D01*
X060755Y007047D02*
X060424Y007047D01*
X060424Y007212D01*
X060480Y007267D01*
X060590Y007267D01*
X060645Y007212D01*
X060645Y007047D01*
X060645Y007157D02*
X060755Y007267D01*
X060700Y007416D02*
X060755Y007471D01*
X060755Y007581D01*
X060700Y007636D01*
X060590Y007636D01*
X060535Y007581D01*
X060535Y007526D01*
X060590Y007416D01*
X060424Y007416D01*
X060424Y007636D01*
X060480Y007784D02*
X060424Y007839D01*
X060424Y007949D01*
X060480Y008004D01*
X060535Y008004D01*
X060755Y007784D01*
X060755Y008004D01*
X060130Y007624D02*
X059799Y007624D01*
X059799Y007514D02*
X059799Y007734D01*
X059799Y007366D02*
X060075Y007366D01*
X060130Y007311D01*
X060130Y007201D01*
X060075Y007146D01*
X059799Y007146D01*
X059855Y006997D02*
X059965Y006997D01*
X060020Y006942D01*
X060020Y006777D01*
X060130Y006777D02*
X059799Y006777D01*
X059799Y006942D01*
X059855Y006997D01*
X059799Y006629D02*
X059799Y006409D01*
X059799Y006519D02*
X060130Y006519D01*
X060075Y006261D02*
X059799Y006261D01*
X059799Y006041D02*
X060075Y006041D01*
X060130Y006096D01*
X060130Y006206D01*
X060075Y006261D01*
X060424Y006041D02*
X060645Y006041D01*
X060755Y005672D02*
X060424Y005672D01*
X060130Y005727D02*
X060130Y005837D01*
X060075Y005892D01*
X059855Y005892D01*
X059799Y005837D01*
X059799Y005727D01*
X059855Y005672D01*
X060075Y005672D01*
X060130Y005727D01*
X058906Y005659D02*
X058796Y005604D01*
X058686Y005494D01*
X058851Y005494D01*
X058906Y005439D01*
X058906Y005384D01*
X058851Y005329D01*
X058741Y005329D01*
X058686Y005384D01*
X058686Y005494D01*
X058538Y005604D02*
X058318Y005384D01*
X058318Y005329D01*
X058170Y005329D02*
X058060Y005439D01*
X058115Y005439D02*
X057950Y005439D01*
X057950Y005329D02*
X057950Y005659D01*
X058115Y005659D01*
X058170Y005604D01*
X058170Y005494D01*
X058115Y005439D01*
X058318Y005659D02*
X058538Y005659D01*
X058538Y005604D01*
X057156Y005604D02*
X057101Y005659D01*
X056991Y005659D01*
X056936Y005604D01*
X056936Y005549D01*
X056991Y005494D01*
X057156Y005494D01*
X057156Y005384D02*
X057156Y005604D01*
X057156Y005384D02*
X057101Y005329D01*
X056991Y005329D01*
X056936Y005384D01*
X056788Y005384D02*
X056733Y005329D01*
X056623Y005329D01*
X056568Y005384D01*
X056568Y005494D02*
X056678Y005549D01*
X056733Y005549D01*
X056788Y005494D01*
X056788Y005384D01*
X056568Y005494D02*
X056568Y005659D01*
X056788Y005659D01*
X056420Y005604D02*
X056420Y005494D01*
X056365Y005439D01*
X056200Y005439D01*
X056310Y005439D02*
X056420Y005329D01*
X056200Y005329D02*
X056200Y005659D01*
X056365Y005659D01*
X056420Y005604D01*
X055407Y005329D02*
X055186Y005329D01*
X055296Y005329D02*
X055296Y005659D01*
X055186Y005549D01*
X055038Y005494D02*
X055038Y005384D01*
X054983Y005329D01*
X054873Y005329D01*
X054818Y005384D01*
X054818Y005494D02*
X054928Y005549D01*
X054983Y005549D01*
X055038Y005494D01*
X055038Y005659D02*
X054818Y005659D01*
X054818Y005494D01*
X054670Y005604D02*
X054615Y005659D01*
X054505Y005659D01*
X054450Y005604D01*
X054450Y005384D01*
X054505Y005329D01*
X054615Y005329D01*
X054670Y005384D01*
X053656Y005384D02*
X053601Y005329D01*
X053491Y005329D01*
X053436Y005384D01*
X053656Y005604D01*
X053656Y005384D01*
X053436Y005384D02*
X053436Y005604D01*
X053491Y005659D01*
X053601Y005659D01*
X053656Y005604D01*
X053288Y005659D02*
X053178Y005604D01*
X053068Y005494D01*
X053233Y005494D01*
X053288Y005439D01*
X053288Y005384D01*
X053233Y005329D01*
X053123Y005329D01*
X053068Y005384D01*
X053068Y005494D01*
X052920Y005494D02*
X052865Y005439D01*
X052700Y005439D01*
X052810Y005439D02*
X052920Y005329D01*
X052920Y005494D02*
X052920Y005604D01*
X052865Y005659D01*
X052700Y005659D01*
X052700Y005329D01*
X052755Y004409D02*
X052700Y004354D01*
X052700Y004134D01*
X052755Y004079D01*
X052865Y004079D01*
X052920Y004134D01*
X053068Y004134D02*
X053068Y004079D01*
X053068Y004134D02*
X053288Y004354D01*
X053288Y004409D01*
X053068Y004409D01*
X052920Y004354D02*
X052865Y004409D01*
X052755Y004409D01*
X053436Y004409D02*
X053436Y004244D01*
X053546Y004299D01*
X053601Y004299D01*
X053656Y004244D01*
X053656Y004134D01*
X053601Y004079D01*
X053491Y004079D01*
X053436Y004134D01*
X053436Y004409D02*
X053656Y004409D01*
X054450Y004354D02*
X054450Y004134D01*
X054505Y004079D01*
X054615Y004079D01*
X054670Y004134D01*
X054818Y004244D02*
X055038Y004244D01*
X055186Y004299D02*
X055186Y004354D01*
X055241Y004409D01*
X055351Y004409D01*
X055406Y004354D01*
X055406Y004299D01*
X055351Y004244D01*
X055241Y004244D01*
X055186Y004299D01*
X055241Y004244D02*
X055186Y004189D01*
X055186Y004134D01*
X055241Y004079D01*
X055351Y004079D01*
X055406Y004134D01*
X055406Y004189D01*
X055351Y004244D01*
X054983Y004409D02*
X054818Y004244D01*
X054670Y004354D02*
X054615Y004409D01*
X054505Y004409D01*
X054450Y004354D01*
X054983Y004409D02*
X054983Y004079D01*
X054983Y006579D02*
X054873Y006579D01*
X054818Y006634D01*
X054818Y006744D02*
X054928Y006799D01*
X054983Y006799D01*
X055038Y006744D01*
X055038Y006634D01*
X054983Y006579D01*
X055186Y006579D02*
X055406Y006799D01*
X055406Y006854D01*
X055351Y006909D01*
X055241Y006909D01*
X055186Y006854D01*
X055038Y006909D02*
X054818Y006909D01*
X054818Y006744D01*
X054670Y006854D02*
X054615Y006909D01*
X054505Y006909D01*
X054450Y006854D01*
X054450Y006634D01*
X054505Y006579D01*
X054615Y006579D01*
X054670Y006634D01*
X055186Y006579D02*
X055406Y006579D01*
X056200Y006579D02*
X056200Y006909D01*
X056365Y006909D01*
X056420Y006854D01*
X056420Y006744D01*
X056365Y006689D01*
X056200Y006689D01*
X056310Y006689D02*
X056420Y006579D01*
X056568Y006634D02*
X056623Y006579D01*
X056733Y006579D01*
X056788Y006634D01*
X056788Y006689D01*
X056733Y006744D01*
X056568Y006744D01*
X056568Y006634D01*
X056568Y006744D02*
X056678Y006854D01*
X056788Y006909D01*
X056936Y006744D02*
X057156Y006744D01*
X057101Y006579D02*
X057101Y006909D01*
X056936Y006744D01*
X057950Y006689D02*
X058115Y006689D01*
X058170Y006744D01*
X058170Y006854D01*
X058115Y006909D01*
X057950Y006909D01*
X057950Y006579D01*
X058060Y006689D02*
X058170Y006579D01*
X058318Y006634D02*
X058373Y006579D01*
X058483Y006579D01*
X058538Y006634D01*
X058538Y006744D01*
X058483Y006799D01*
X058428Y006799D01*
X058318Y006744D01*
X058318Y006909D01*
X058538Y006909D01*
X058686Y006854D02*
X058741Y006909D01*
X058851Y006909D01*
X058906Y006854D01*
X058906Y006799D01*
X058851Y006744D01*
X058906Y006689D01*
X058906Y006634D01*
X058851Y006579D01*
X058741Y006579D01*
X058686Y006634D01*
X058796Y006744D02*
X058851Y006744D01*
X058851Y007829D02*
X058741Y007829D01*
X058686Y007884D01*
X058686Y007939D01*
X058741Y007994D01*
X058851Y007994D01*
X058907Y007939D01*
X058907Y007884D01*
X058851Y007829D01*
X058851Y007994D02*
X058907Y008049D01*
X058907Y008104D01*
X058851Y008159D01*
X058741Y008159D01*
X058686Y008104D01*
X058686Y008049D01*
X058741Y007994D01*
X058538Y007994D02*
X058538Y007884D01*
X058483Y007829D01*
X058373Y007829D01*
X058318Y007884D01*
X058318Y007994D02*
X058428Y008049D01*
X058483Y008049D01*
X058538Y007994D01*
X058538Y008159D02*
X058318Y008159D01*
X058318Y007994D01*
X058170Y008104D02*
X058115Y008159D01*
X058005Y008159D01*
X057950Y008104D01*
X057950Y007884D01*
X058005Y007829D01*
X058115Y007829D01*
X058170Y007884D01*
X057156Y007884D02*
X057101Y007829D01*
X056991Y007829D01*
X056936Y007884D01*
X056936Y007994D02*
X057046Y008049D01*
X057101Y008049D01*
X057156Y007994D01*
X057156Y007884D01*
X056936Y007994D02*
X056936Y008159D01*
X057156Y008159D01*
X056788Y008159D02*
X056678Y008104D01*
X056568Y007994D01*
X056733Y007994D01*
X056788Y007939D01*
X056788Y007884D01*
X056733Y007829D01*
X056623Y007829D01*
X056568Y007884D01*
X056568Y007994D01*
X056420Y007994D02*
X056420Y008104D01*
X056365Y008159D01*
X056200Y008159D01*
X056200Y007829D01*
X056200Y007939D02*
X056365Y007939D01*
X056420Y007994D01*
X056310Y007939D02*
X056420Y007829D01*
X055406Y007884D02*
X055406Y008104D01*
X055351Y008159D01*
X055241Y008159D01*
X055186Y008104D01*
X055186Y008049D01*
X055241Y007994D01*
X055406Y007994D01*
X055406Y007884D02*
X055351Y007829D01*
X055241Y007829D01*
X055186Y007884D01*
X055038Y007884D02*
X054983Y007829D01*
X054873Y007829D01*
X054818Y007884D01*
X054818Y007994D02*
X054928Y008049D01*
X054983Y008049D01*
X055038Y007994D01*
X055038Y007884D01*
X054818Y007994D02*
X054818Y008159D01*
X055038Y008159D01*
X054670Y008104D02*
X054615Y008159D01*
X054505Y008159D01*
X054450Y008104D01*
X054450Y007884D01*
X054505Y007829D01*
X054615Y007829D01*
X054670Y007884D01*
X053656Y007829D02*
X053436Y007829D01*
X053546Y007829D02*
X053546Y008159D01*
X053436Y008049D01*
X053288Y007994D02*
X053288Y007884D01*
X053233Y007829D01*
X053123Y007829D01*
X053068Y007884D01*
X053068Y007994D02*
X053178Y008049D01*
X053233Y008049D01*
X053288Y007994D01*
X053288Y008159D02*
X053068Y008159D01*
X053068Y007994D01*
X052920Y007994D02*
X052865Y007939D01*
X052700Y007939D01*
X052810Y007939D02*
X052920Y007829D01*
X052920Y007994D02*
X052920Y008104D01*
X052865Y008159D01*
X052700Y008159D01*
X052700Y007829D01*
X051906Y008104D02*
X051686Y007884D01*
X051686Y007829D01*
X051483Y007829D02*
X051483Y008159D01*
X051318Y007994D01*
X051538Y007994D01*
X051686Y008159D02*
X051906Y008159D01*
X051906Y008104D01*
X051170Y008104D02*
X051115Y008159D01*
X051005Y008159D01*
X050950Y008104D01*
X050950Y007884D01*
X051005Y007829D01*
X051115Y007829D01*
X051170Y007884D01*
X050156Y007994D02*
X049936Y007994D01*
X050101Y008159D01*
X050101Y007829D01*
X049788Y007884D02*
X049788Y007939D01*
X049733Y007994D01*
X049568Y007994D01*
X049568Y007884D01*
X049623Y007829D01*
X049733Y007829D01*
X049788Y007884D01*
X049678Y008104D02*
X049568Y007994D01*
X049678Y008104D02*
X049788Y008159D01*
X049420Y008104D02*
X049365Y008159D01*
X049255Y008159D01*
X049200Y008104D01*
X049200Y007884D01*
X049255Y007829D01*
X049365Y007829D01*
X049420Y007884D01*
X048406Y007829D02*
X048186Y007829D01*
X048406Y008049D01*
X048406Y008104D01*
X048351Y008159D01*
X048241Y008159D01*
X048186Y008104D01*
X048038Y008159D02*
X047928Y008104D01*
X047818Y007994D01*
X047983Y007994D01*
X048038Y007939D01*
X048038Y007884D01*
X047983Y007829D01*
X047873Y007829D01*
X047818Y007884D01*
X047818Y007994D01*
X047670Y007994D02*
X047615Y007939D01*
X047450Y007939D01*
X047560Y007939D02*
X047670Y007829D01*
X047670Y007994D02*
X047670Y008104D01*
X047615Y008159D01*
X047450Y008159D01*
X047450Y007829D01*
X046656Y007915D02*
X046656Y007970D01*
X046601Y008025D01*
X046436Y008025D01*
X046436Y007915D01*
X046491Y007860D01*
X046601Y007860D01*
X046656Y007915D01*
X046546Y008135D02*
X046436Y008025D01*
X046288Y008025D02*
X046068Y008025D01*
X046233Y008190D01*
X046233Y007860D01*
X045920Y007860D02*
X045810Y007970D01*
X045865Y007970D02*
X045700Y007970D01*
X045700Y007860D02*
X045700Y008190D01*
X045865Y008190D01*
X045920Y008135D01*
X045920Y008025D01*
X045865Y007970D01*
X046546Y008135D02*
X046656Y008190D01*
X044906Y008104D02*
X044906Y008049D01*
X044851Y007994D01*
X044906Y007939D01*
X044906Y007884D01*
X044851Y007829D01*
X044741Y007829D01*
X044686Y007884D01*
X044538Y007884D02*
X044483Y007829D01*
X044373Y007829D01*
X044318Y007884D01*
X044428Y007994D02*
X044483Y007994D01*
X044538Y007939D01*
X044538Y007884D01*
X044483Y007994D02*
X044538Y008049D01*
X044538Y008104D01*
X044483Y008159D01*
X044373Y008159D01*
X044318Y008104D01*
X044170Y008104D02*
X044170Y007994D01*
X044115Y007939D01*
X043950Y007939D01*
X044060Y007939D02*
X044170Y007829D01*
X043950Y007829D02*
X043950Y008159D01*
X044115Y008159D01*
X044170Y008104D01*
X044686Y008104D02*
X044741Y008159D01*
X044851Y008159D01*
X044906Y008104D01*
X044851Y007994D02*
X044796Y007994D01*
X044741Y006909D02*
X044686Y006854D01*
X044741Y006909D02*
X044851Y006909D01*
X044906Y006854D01*
X044906Y006799D01*
X044686Y006579D01*
X044906Y006579D01*
X044538Y006634D02*
X044483Y006579D01*
X044373Y006579D01*
X044318Y006634D01*
X044170Y006634D02*
X044115Y006579D01*
X044005Y006579D01*
X043950Y006634D01*
X043950Y006854D01*
X044005Y006909D01*
X044115Y006909D01*
X044170Y006854D01*
X044318Y006854D02*
X044373Y006909D01*
X044483Y006909D01*
X044538Y006854D01*
X044538Y006799D01*
X044483Y006744D01*
X044538Y006689D01*
X044538Y006634D01*
X044483Y006744D02*
X044428Y006744D01*
X043156Y006799D02*
X043101Y006744D01*
X043156Y006689D01*
X043156Y006634D01*
X043101Y006579D01*
X042991Y006579D01*
X042936Y006634D01*
X042788Y006634D02*
X042733Y006579D01*
X042623Y006579D01*
X042568Y006634D01*
X042420Y006634D02*
X042365Y006579D01*
X042255Y006579D01*
X042200Y006634D01*
X042200Y006854D01*
X042255Y006909D01*
X042365Y006909D01*
X042420Y006854D01*
X042568Y006854D02*
X042623Y006909D01*
X042733Y006909D01*
X042788Y006854D01*
X042788Y006799D01*
X042733Y006744D01*
X042788Y006689D01*
X042788Y006634D01*
X042733Y006744D02*
X042678Y006744D01*
X042936Y006854D02*
X042991Y006909D01*
X043101Y006909D01*
X043156Y006854D01*
X043156Y006799D01*
X043101Y006744D02*
X043046Y006744D01*
X043101Y005659D02*
X042936Y005494D01*
X043156Y005494D01*
X043101Y005329D02*
X043101Y005659D01*
X042788Y005604D02*
X042788Y005549D01*
X042733Y005494D01*
X042788Y005439D01*
X042788Y005384D01*
X042733Y005329D01*
X042623Y005329D01*
X042568Y005384D01*
X042420Y005384D02*
X042365Y005329D01*
X042255Y005329D01*
X042200Y005384D01*
X042200Y005604D01*
X042255Y005659D01*
X042365Y005659D01*
X042420Y005604D01*
X042568Y005604D02*
X042623Y005659D01*
X042733Y005659D01*
X042788Y005604D01*
X042733Y005494D02*
X042678Y005494D01*
X043950Y005439D02*
X044115Y005439D01*
X044170Y005494D01*
X044170Y005604D01*
X044115Y005659D01*
X043950Y005659D01*
X043950Y005329D01*
X044060Y005439D02*
X044170Y005329D01*
X044318Y005329D02*
X044538Y005549D01*
X044538Y005604D01*
X044483Y005659D01*
X044373Y005659D01*
X044318Y005604D01*
X044318Y005329D02*
X044538Y005329D01*
X044686Y005384D02*
X044741Y005329D01*
X044851Y005329D01*
X044906Y005384D01*
X044906Y005494D01*
X044851Y005549D01*
X044796Y005549D01*
X044686Y005494D01*
X044686Y005659D01*
X044906Y005659D01*
X045700Y005604D02*
X045700Y005384D01*
X045755Y005329D01*
X045865Y005329D01*
X045920Y005384D01*
X046068Y005494D02*
X046233Y005659D01*
X046233Y005329D01*
X046288Y005494D02*
X046068Y005494D01*
X045920Y005604D02*
X045865Y005659D01*
X045755Y005659D01*
X045700Y005604D01*
X046436Y005604D02*
X046491Y005659D01*
X046601Y005659D01*
X046656Y005604D01*
X046656Y005549D01*
X046436Y005329D01*
X046656Y005329D01*
X047450Y005329D02*
X047450Y005659D01*
X047615Y005659D01*
X047670Y005604D01*
X047670Y005494D01*
X047615Y005439D01*
X047450Y005439D01*
X047560Y005439D02*
X047670Y005329D01*
X047818Y005494D02*
X048038Y005494D01*
X048186Y005494D02*
X048406Y005494D01*
X048351Y005659D02*
X048186Y005494D01*
X048351Y005329D02*
X048351Y005659D01*
X047983Y005659D02*
X047818Y005494D01*
X047983Y005329D02*
X047983Y005659D01*
X047976Y006610D02*
X047756Y006610D01*
X047866Y006610D02*
X047866Y006940D01*
X047756Y006830D01*
X047607Y006775D02*
X047552Y006720D01*
X047387Y006720D01*
X047387Y006610D02*
X047387Y006940D01*
X047552Y006940D01*
X047607Y006885D01*
X047607Y006775D01*
X047497Y006720D02*
X047607Y006610D01*
X048124Y006665D02*
X048179Y006610D01*
X048289Y006610D01*
X048344Y006665D01*
X048344Y006720D01*
X048289Y006775D01*
X048124Y006775D01*
X048124Y006665D01*
X048124Y006775D02*
X048234Y006885D01*
X048344Y006940D01*
X049200Y006909D02*
X049200Y006579D01*
X049200Y006689D02*
X049365Y006689D01*
X049420Y006744D01*
X049420Y006854D01*
X049365Y006909D01*
X049200Y006909D01*
X049310Y006689D02*
X049420Y006579D01*
X049568Y006634D02*
X049568Y006689D01*
X049623Y006744D01*
X049733Y006744D01*
X049788Y006689D01*
X049788Y006634D01*
X049733Y006579D01*
X049623Y006579D01*
X049568Y006634D01*
X049623Y006744D02*
X049568Y006799D01*
X049568Y006854D01*
X049623Y006909D01*
X049733Y006909D01*
X049788Y006854D01*
X049788Y006799D01*
X049733Y006744D01*
X049936Y006854D02*
X049991Y006909D01*
X050101Y006909D01*
X050156Y006854D01*
X050156Y006799D01*
X049936Y006579D01*
X050156Y006579D01*
X050950Y006634D02*
X051005Y006579D01*
X051115Y006579D01*
X051170Y006634D01*
X051318Y006744D02*
X051483Y006909D01*
X051483Y006579D01*
X051538Y006744D02*
X051318Y006744D01*
X051170Y006854D02*
X051115Y006909D01*
X051005Y006909D01*
X050950Y006854D01*
X050950Y006634D01*
X051686Y006634D02*
X051741Y006579D01*
X051851Y006579D01*
X051906Y006634D01*
X051906Y006744D01*
X051851Y006799D01*
X051796Y006799D01*
X051686Y006744D01*
X051686Y006909D01*
X051906Y006909D01*
X052637Y006940D02*
X052637Y006610D01*
X052637Y006720D02*
X052802Y006720D01*
X052857Y006775D01*
X052857Y006885D01*
X052802Y006940D01*
X052637Y006940D01*
X052747Y006720D02*
X052857Y006610D01*
X053006Y006665D02*
X053006Y006720D01*
X053061Y006775D01*
X053171Y006775D01*
X053226Y006720D01*
X053226Y006665D01*
X053171Y006610D01*
X053061Y006610D01*
X053006Y006665D01*
X053061Y006775D02*
X053006Y006830D01*
X053006Y006885D01*
X053061Y006940D01*
X053171Y006940D01*
X053226Y006885D01*
X053226Y006830D01*
X053171Y006775D01*
X053374Y006885D02*
X053429Y006940D01*
X053539Y006940D01*
X053594Y006885D01*
X053594Y006830D01*
X053539Y006775D01*
X053594Y006720D01*
X053594Y006665D01*
X053539Y006610D01*
X053429Y006610D01*
X053374Y006665D01*
X053484Y006775D02*
X053539Y006775D01*
X049880Y008977D02*
X049880Y009087D01*
X049825Y009142D01*
X049549Y009142D01*
X049549Y009291D02*
X049549Y009511D01*
X049605Y009511D01*
X049825Y009291D01*
X049880Y009291D01*
X049880Y008977D02*
X049825Y008922D01*
X049549Y008922D01*
X050200Y009227D02*
X050255Y009172D01*
X050365Y009172D01*
X050420Y009227D01*
X050568Y009227D02*
X050568Y009172D01*
X050568Y009227D02*
X050788Y009447D01*
X050788Y009503D01*
X050568Y009503D01*
X050420Y009447D02*
X050365Y009503D01*
X050255Y009503D01*
X050200Y009447D01*
X050200Y009227D01*
X050936Y009227D02*
X051156Y009447D01*
X051156Y009503D01*
X050936Y009503D01*
X050936Y009227D02*
X050936Y009172D01*
X050914Y010547D02*
X050804Y010547D01*
X050749Y010602D01*
X050749Y010657D01*
X050804Y010712D01*
X050914Y010712D01*
X050969Y010657D01*
X050969Y010602D01*
X050914Y010547D01*
X050914Y010712D02*
X050969Y010767D01*
X050969Y010822D01*
X050914Y010878D01*
X050804Y010878D01*
X050749Y010822D01*
X050749Y010767D01*
X050804Y010712D01*
X050601Y010657D02*
X050546Y010712D01*
X050381Y010712D01*
X050381Y010602D01*
X050436Y010547D01*
X050546Y010547D01*
X050601Y010602D01*
X050601Y010657D01*
X050491Y010822D02*
X050601Y010878D01*
X050491Y010822D02*
X050381Y010712D01*
X050232Y010602D02*
X050177Y010547D01*
X050067Y010547D01*
X050012Y010602D01*
X050012Y010822D01*
X050067Y010878D01*
X050177Y010878D01*
X050232Y010822D01*
X049281Y010852D02*
X049281Y011072D01*
X049226Y011128D01*
X049116Y011128D01*
X049061Y011072D01*
X049061Y011017D01*
X049116Y010962D01*
X049281Y010962D01*
X049281Y010852D02*
X049226Y010797D01*
X049116Y010797D01*
X049061Y010852D01*
X048913Y010852D02*
X048913Y010907D01*
X048858Y010962D01*
X048693Y010962D01*
X048693Y010852D01*
X048748Y010797D01*
X048858Y010797D01*
X048913Y010852D01*
X048803Y011072D02*
X048693Y010962D01*
X048803Y011072D02*
X048913Y011128D01*
X048545Y011072D02*
X048490Y011128D01*
X048380Y011128D01*
X048325Y011072D01*
X048325Y010852D01*
X048380Y010797D01*
X048490Y010797D01*
X048545Y010852D01*
X047531Y010852D02*
X047531Y011072D01*
X047311Y010852D01*
X047366Y010797D01*
X047476Y010797D01*
X047531Y010852D01*
X047311Y010852D02*
X047311Y011072D01*
X047366Y011128D01*
X047476Y011128D01*
X047531Y011072D01*
X047163Y011072D02*
X046943Y010852D01*
X046943Y010797D01*
X046795Y010797D02*
X046685Y010907D01*
X046740Y010907D02*
X046575Y010907D01*
X046575Y010797D02*
X046575Y011128D01*
X046740Y011128D01*
X046795Y011072D01*
X046795Y010962D01*
X046740Y010907D01*
X046943Y011128D02*
X047163Y011128D01*
X047163Y011072D01*
X045852Y010450D02*
X045227Y010450D01*
X045227Y009825D01*
X045852Y009825D01*
X045852Y010450D01*
X044906Y010477D02*
X044851Y010422D01*
X044741Y010422D01*
X044686Y010477D01*
X044686Y010587D02*
X044796Y010642D01*
X044851Y010642D01*
X044906Y010587D01*
X044906Y010477D01*
X044686Y010587D02*
X044686Y010753D01*
X044906Y010753D01*
X044538Y010697D02*
X044538Y010587D01*
X044483Y010532D01*
X044318Y010532D01*
X044318Y010422D02*
X044318Y010753D01*
X044483Y010753D01*
X044538Y010697D01*
X044170Y010753D02*
X043950Y010753D01*
X044060Y010753D02*
X044060Y010422D01*
X044102Y010200D02*
X044102Y009575D01*
X044727Y009575D01*
X044727Y010200D01*
X044102Y010200D01*
X044115Y009409D02*
X044005Y009409D01*
X043950Y009354D01*
X043950Y009134D01*
X044005Y009079D01*
X044115Y009079D01*
X044170Y009134D01*
X044318Y009134D02*
X044373Y009079D01*
X044483Y009079D01*
X044538Y009134D01*
X044538Y009189D01*
X044483Y009244D01*
X044428Y009244D01*
X044483Y009244D02*
X044538Y009299D01*
X044538Y009354D01*
X044483Y009409D01*
X044373Y009409D01*
X044318Y009354D01*
X044170Y009354D02*
X044115Y009409D01*
X044686Y009354D02*
X044686Y009299D01*
X044741Y009244D01*
X044906Y009244D01*
X044906Y009134D02*
X044906Y009354D01*
X044851Y009409D01*
X044741Y009409D01*
X044686Y009354D01*
X044686Y009134D02*
X044741Y009079D01*
X044851Y009079D01*
X044906Y009134D01*
X045435Y009297D02*
X045435Y009628D01*
X045325Y009628D02*
X045545Y009628D01*
X045693Y009628D02*
X045858Y009628D01*
X045913Y009572D01*
X045913Y009462D01*
X045858Y009407D01*
X045693Y009407D01*
X045693Y009297D02*
X045693Y009628D01*
X046061Y009462D02*
X046281Y009462D01*
X046226Y009297D02*
X046226Y009628D01*
X046061Y009462D01*
X043156Y009354D02*
X043156Y009299D01*
X043101Y009244D01*
X043156Y009189D01*
X043156Y009134D01*
X043101Y009079D01*
X042991Y009079D01*
X042936Y009134D01*
X043046Y009244D02*
X043101Y009244D01*
X043156Y009354D02*
X043101Y009409D01*
X042991Y009409D01*
X042936Y009354D01*
X042788Y009244D02*
X042568Y009244D01*
X042733Y009409D01*
X042733Y009079D01*
X042420Y009079D02*
X042310Y009189D01*
X042365Y009189D02*
X042200Y009189D01*
X042200Y009079D02*
X042200Y009409D01*
X042365Y009409D01*
X042420Y009354D01*
X042420Y009244D01*
X042365Y009189D01*
X042698Y009797D02*
X042918Y009797D01*
X042973Y009852D01*
X042973Y009962D01*
X042918Y010017D01*
X042918Y010166D02*
X042973Y010221D01*
X042973Y010331D01*
X042918Y010386D01*
X042808Y010386D01*
X042753Y010331D01*
X042753Y010276D01*
X042808Y010166D01*
X042643Y010166D01*
X042643Y010386D01*
X042698Y010534D02*
X042643Y010589D01*
X042643Y010699D01*
X042698Y010754D01*
X042918Y010534D01*
X042973Y010589D01*
X042973Y010699D01*
X042918Y010754D01*
X042698Y010754D01*
X042698Y010534D02*
X042918Y010534D01*
X042698Y010017D02*
X042643Y009962D01*
X042643Y009852D01*
X042698Y009797D01*
X041723Y009797D02*
X041393Y009797D01*
X041393Y009962D01*
X041448Y010017D01*
X041558Y010017D01*
X041613Y009962D01*
X041613Y009797D01*
X041613Y009907D02*
X041723Y010017D01*
X041668Y010166D02*
X041723Y010221D01*
X041723Y010331D01*
X041668Y010386D01*
X041558Y010386D01*
X041503Y010331D01*
X041503Y010276D01*
X041558Y010166D01*
X041393Y010166D01*
X041393Y010386D01*
X041448Y010534D02*
X041503Y010534D01*
X041558Y010589D01*
X041558Y010699D01*
X041613Y010754D01*
X041668Y010754D01*
X041723Y010699D01*
X041723Y010589D01*
X041668Y010534D01*
X041613Y010534D01*
X041558Y010589D01*
X041558Y010699D02*
X041503Y010754D01*
X041448Y010754D01*
X041393Y010699D01*
X041393Y010589D01*
X041448Y010534D01*
X040473Y010534D02*
X040418Y010534D01*
X040198Y010754D01*
X040143Y010754D01*
X040143Y010534D01*
X040143Y010386D02*
X040143Y010166D01*
X040308Y010166D01*
X040253Y010276D01*
X040253Y010331D01*
X040308Y010386D01*
X040418Y010386D01*
X040473Y010331D01*
X040473Y010221D01*
X040418Y010166D01*
X040473Y010017D02*
X040363Y009907D01*
X040363Y009962D02*
X040363Y009797D01*
X040473Y009797D02*
X040143Y009797D01*
X040143Y009962D01*
X040198Y010017D01*
X040308Y010017D01*
X040363Y009962D01*
X039223Y010017D02*
X039113Y009907D01*
X039113Y009962D02*
X039113Y009797D01*
X039223Y009797D02*
X038893Y009797D01*
X038893Y009962D01*
X038948Y010017D01*
X039058Y010017D01*
X039113Y009962D01*
X039058Y010166D02*
X039058Y010386D01*
X039223Y010331D02*
X038893Y010331D01*
X039058Y010166D01*
X038948Y010534D02*
X038893Y010589D01*
X038893Y010699D01*
X038948Y010754D01*
X039003Y010754D01*
X039223Y010534D01*
X039223Y010754D01*
X037974Y010534D02*
X037918Y010534D01*
X037698Y010754D01*
X037643Y010754D01*
X037643Y010534D01*
X037643Y010331D02*
X037808Y010166D01*
X037808Y010386D01*
X037643Y010331D02*
X037974Y010331D01*
X037974Y010017D02*
X037863Y009907D01*
X037863Y009962D02*
X037863Y009797D01*
X037974Y009797D02*
X037643Y009797D01*
X037643Y009962D01*
X037698Y010017D01*
X037808Y010017D01*
X037863Y009962D01*
X036723Y009962D02*
X036668Y010017D01*
X036723Y009962D02*
X036723Y009852D01*
X036668Y009797D01*
X036448Y009797D01*
X036393Y009852D01*
X036393Y009962D01*
X036448Y010017D01*
X036558Y010166D02*
X036558Y010386D01*
X036558Y010534D02*
X036558Y010699D01*
X036613Y010754D01*
X036668Y010754D01*
X036723Y010699D01*
X036723Y010589D01*
X036668Y010534D01*
X036558Y010534D01*
X036448Y010644D01*
X036393Y010754D01*
X036393Y010331D02*
X036558Y010166D01*
X036723Y010331D02*
X036393Y010331D01*
X035656Y010587D02*
X035436Y010587D01*
X035601Y010753D01*
X035601Y010422D01*
X035288Y010697D02*
X035068Y010477D01*
X035068Y010422D01*
X034920Y010477D02*
X034865Y010422D01*
X034755Y010422D01*
X034700Y010477D01*
X034700Y010697D01*
X034755Y010753D01*
X034865Y010753D01*
X034920Y010697D01*
X035068Y010753D02*
X035288Y010753D01*
X035288Y010697D01*
X035102Y010075D02*
X034477Y010075D01*
X034477Y009450D01*
X035102Y009450D01*
X035102Y010075D01*
X035325Y009628D02*
X035490Y009628D01*
X035545Y009572D01*
X035545Y009352D01*
X035490Y009297D01*
X035325Y009297D01*
X035325Y009628D01*
X035693Y009517D02*
X035803Y009628D01*
X035803Y009297D01*
X035693Y009297D02*
X035913Y009297D01*
X036061Y009352D02*
X036116Y009297D01*
X036226Y009297D01*
X036281Y009352D01*
X036281Y009572D01*
X036061Y009352D01*
X036061Y009572D01*
X036116Y009628D01*
X036226Y009628D01*
X036281Y009572D01*
X034219Y009665D02*
X034164Y009610D01*
X034054Y009610D01*
X033999Y009665D01*
X034109Y009775D02*
X034164Y009775D01*
X034219Y009720D01*
X034219Y009665D01*
X034164Y009775D02*
X034219Y009830D01*
X034219Y009885D01*
X034164Y009940D01*
X034054Y009940D01*
X033999Y009885D01*
X033851Y009885D02*
X033851Y009775D01*
X033796Y009720D01*
X033631Y009720D01*
X033631Y009610D02*
X033631Y009940D01*
X033796Y009940D01*
X033851Y009885D01*
X033482Y009940D02*
X033262Y009940D01*
X033372Y009940D02*
X033372Y009610D01*
X033542Y010297D02*
X033762Y010297D01*
X033817Y010352D01*
X033817Y010462D01*
X033762Y010517D01*
X033762Y010666D02*
X033542Y010886D01*
X033487Y010886D01*
X033487Y010666D01*
X033542Y010517D02*
X033487Y010462D01*
X033487Y010352D01*
X033542Y010297D01*
X033762Y010666D02*
X033817Y010666D01*
X033762Y011034D02*
X033817Y011089D01*
X033817Y011199D01*
X033762Y011254D01*
X033707Y011254D01*
X033652Y011199D01*
X033652Y011144D01*
X033652Y011199D02*
X033597Y011254D01*
X033542Y011254D01*
X033487Y011199D01*
X033487Y011089D01*
X033542Y011034D01*
X032880Y011089D02*
X032825Y011034D01*
X032605Y011254D01*
X032825Y011254D01*
X032880Y011199D01*
X032880Y011089D01*
X032825Y011034D02*
X032605Y011034D01*
X032549Y011089D01*
X032549Y011199D01*
X032605Y011254D01*
X032605Y010886D02*
X032660Y010886D01*
X032715Y010831D01*
X032770Y010886D01*
X032825Y010886D01*
X032880Y010831D01*
X032880Y010721D01*
X032825Y010666D01*
X032825Y010517D02*
X032880Y010462D01*
X032880Y010352D01*
X032825Y010297D01*
X032605Y010297D01*
X032549Y010352D01*
X032549Y010462D01*
X032605Y010517D01*
X032605Y010666D02*
X032549Y010721D01*
X032549Y010831D01*
X032605Y010886D01*
X032715Y010831D02*
X032715Y010776D01*
X031755Y011034D02*
X031535Y011254D01*
X031480Y011254D01*
X031755Y011254D02*
X031755Y011034D01*
X027461Y010363D02*
X027351Y010308D01*
X027241Y010198D01*
X027406Y010198D01*
X027461Y010143D01*
X027461Y010088D01*
X027406Y010033D01*
X027296Y010033D01*
X027241Y010088D01*
X027241Y010198D01*
X027093Y010308D02*
X027038Y010363D01*
X026928Y010363D01*
X026873Y010308D01*
X026873Y010088D01*
X026928Y010033D01*
X027038Y010033D01*
X027093Y010088D01*
X026380Y009386D02*
X026380Y009166D01*
X026160Y009386D01*
X026105Y009386D01*
X026049Y009331D01*
X026049Y009221D01*
X026105Y009166D01*
X026380Y009017D02*
X026380Y008797D01*
X026049Y008797D01*
X026117Y008175D02*
X026117Y008010D01*
X026228Y008065D01*
X026283Y008065D01*
X026338Y008010D01*
X026338Y007899D01*
X026283Y007844D01*
X026172Y007844D01*
X026117Y007899D01*
X025969Y007844D02*
X025859Y007954D01*
X025914Y007954D02*
X025749Y007954D01*
X025749Y007844D02*
X025749Y008175D01*
X025914Y008175D01*
X025969Y008120D01*
X025969Y008010D01*
X025914Y007954D01*
X026117Y008175D02*
X026338Y008175D01*
X027075Y008135D02*
X027075Y007915D01*
X027130Y007860D01*
X027240Y007860D01*
X027295Y007915D01*
X027443Y007860D02*
X027663Y007860D01*
X027553Y007860D02*
X027553Y008190D01*
X027443Y008080D01*
X027295Y008135D02*
X027240Y008190D01*
X027130Y008190D01*
X027075Y008135D01*
X024630Y007081D02*
X024299Y007081D01*
X024465Y006916D01*
X024465Y007136D01*
X024465Y006767D02*
X024520Y006712D01*
X024520Y006547D01*
X024630Y006547D02*
X024299Y006547D01*
X024299Y006712D01*
X024355Y006767D01*
X024465Y006767D01*
X024520Y006657D02*
X024630Y006767D01*
X023630Y006767D02*
X023520Y006657D01*
X023520Y006712D02*
X023520Y006547D01*
X023630Y006547D02*
X023299Y006547D01*
X023299Y006712D01*
X023355Y006767D01*
X023465Y006767D01*
X023520Y006712D01*
X023630Y006916D02*
X023630Y007136D01*
X023630Y007026D02*
X023299Y007026D01*
X023410Y006916D01*
X022005Y006456D02*
X022005Y006346D01*
X021950Y006291D01*
X021840Y006401D02*
X021840Y006456D01*
X021895Y006511D01*
X021950Y006511D01*
X022005Y006456D01*
X021840Y006456D02*
X021785Y006511D01*
X021729Y006511D01*
X021674Y006456D01*
X021674Y006346D01*
X021729Y006291D01*
X021729Y006142D02*
X021840Y006142D01*
X021895Y006087D01*
X021895Y005922D01*
X022005Y005922D02*
X021674Y005922D01*
X021674Y006087D01*
X021729Y006142D01*
X021895Y006032D02*
X022005Y006142D01*
X021976Y005003D02*
X021866Y005003D01*
X021811Y004947D01*
X021663Y004947D02*
X021663Y004837D01*
X021608Y004782D01*
X021443Y004782D01*
X021443Y004672D02*
X021443Y005003D01*
X021608Y005003D01*
X021663Y004947D01*
X021811Y004672D02*
X022031Y004892D01*
X022031Y004947D01*
X021976Y005003D01*
X021295Y005003D02*
X021185Y005003D01*
X021240Y005003D02*
X021240Y004727D01*
X021185Y004672D01*
X021130Y004672D01*
X021075Y004727D01*
X021811Y004672D02*
X022031Y004672D01*
X020505Y003199D02*
X020505Y003089D01*
X020450Y003034D01*
X020340Y003034D02*
X020285Y003144D01*
X020285Y003199D01*
X020340Y003254D01*
X020450Y003254D01*
X020505Y003199D01*
X020340Y003034D02*
X020174Y003034D01*
X020174Y003254D01*
X020230Y002886D02*
X020340Y002886D01*
X020395Y002831D01*
X020395Y002666D01*
X020505Y002666D02*
X020174Y002666D01*
X020174Y002831D01*
X020230Y002886D01*
X020174Y002517D02*
X020174Y002407D01*
X020174Y002462D02*
X020450Y002462D01*
X020505Y002407D01*
X020505Y002352D01*
X020450Y002297D01*
X019570Y002072D02*
X019515Y002128D01*
X019405Y002128D01*
X019350Y002072D01*
X019570Y002072D02*
X019570Y002017D01*
X019350Y001797D01*
X019570Y001797D01*
X018570Y001797D02*
X018350Y001797D01*
X018460Y001797D02*
X018460Y002128D01*
X018350Y002017D01*
X023075Y002128D02*
X023185Y002128D01*
X023130Y002128D02*
X023130Y001797D01*
X023075Y001797D02*
X023185Y001797D01*
X023320Y001852D02*
X023375Y001797D01*
X023485Y001797D01*
X023540Y001852D01*
X023540Y001907D01*
X023485Y001962D01*
X023375Y001962D01*
X023320Y002017D01*
X023320Y002072D01*
X023375Y002128D01*
X023485Y002128D01*
X023540Y002072D01*
X023689Y002128D02*
X023854Y002128D01*
X023909Y002072D01*
X023909Y001962D01*
X023854Y001907D01*
X023689Y001907D01*
X023689Y001797D02*
X023689Y002128D01*
X024674Y002657D02*
X024674Y002767D01*
X024674Y002712D02*
X024950Y002712D01*
X025005Y002657D01*
X025005Y002602D01*
X024950Y002547D01*
X025005Y002916D02*
X024674Y002916D01*
X024674Y003081D01*
X024730Y003136D01*
X024840Y003136D01*
X024895Y003081D01*
X024895Y002916D01*
X025005Y003284D02*
X025005Y003504D01*
X025005Y003394D02*
X024674Y003394D01*
X024785Y003284D01*
X025073Y004860D02*
X025293Y004860D01*
X025348Y004915D01*
X025348Y005025D01*
X025293Y005080D01*
X025293Y005228D02*
X025348Y005283D01*
X025348Y005393D01*
X025293Y005448D01*
X025183Y005448D01*
X025128Y005393D01*
X025128Y005338D01*
X025183Y005228D01*
X025018Y005228D01*
X025018Y005448D01*
X025073Y005080D02*
X025018Y005025D01*
X025018Y004915D01*
X025073Y004860D01*
X025450Y005735D02*
X025615Y005735D01*
X025670Y005790D01*
X025670Y006010D01*
X025615Y006065D01*
X025450Y006065D01*
X025450Y005735D01*
X025818Y005735D02*
X026038Y005735D01*
X025928Y005735D02*
X025928Y006065D01*
X025818Y005955D01*
X027325Y006003D02*
X027325Y005672D01*
X027325Y005782D02*
X027490Y005782D01*
X027545Y005837D01*
X027545Y005948D01*
X027490Y006003D01*
X027325Y006003D01*
X027435Y005782D02*
X027545Y005672D01*
X027693Y005672D02*
X027913Y005892D01*
X027913Y005948D01*
X027858Y006003D01*
X027748Y006003D01*
X027693Y005948D01*
X027693Y005672D02*
X027913Y005672D01*
X028061Y005727D02*
X028281Y005948D01*
X028281Y005727D01*
X028226Y005672D01*
X028116Y005672D01*
X028061Y005727D01*
X028061Y005948D01*
X028116Y006003D01*
X028226Y006003D01*
X028281Y005948D01*
X028643Y005837D02*
X028698Y005892D01*
X028808Y005892D01*
X028863Y005837D01*
X028863Y005672D01*
X028863Y005782D02*
X028973Y005892D01*
X028973Y006041D02*
X028753Y006261D01*
X028698Y006261D01*
X028643Y006206D01*
X028643Y006096D01*
X028698Y006041D01*
X028643Y005837D02*
X028643Y005672D01*
X028973Y005672D01*
X028973Y006041D02*
X028973Y006261D01*
X028973Y006409D02*
X028753Y006629D01*
X028698Y006629D01*
X028643Y006574D01*
X028643Y006464D01*
X028698Y006409D01*
X028973Y006409D02*
X028973Y006629D01*
X028990Y002128D02*
X028990Y001852D01*
X028935Y001797D01*
X028880Y001797D01*
X028825Y001852D01*
X028935Y002128D02*
X029045Y002128D01*
X029193Y002128D02*
X029413Y002128D01*
X029303Y002128D02*
X029303Y001797D01*
X029561Y001797D02*
X029561Y002017D01*
X029671Y002128D01*
X029781Y002017D01*
X029781Y001797D01*
X029930Y001852D02*
X029930Y002072D01*
X029985Y002128D01*
X030095Y002128D01*
X030150Y002072D01*
X030150Y001962D02*
X030040Y001962D01*
X030150Y001962D02*
X030150Y001852D01*
X030095Y001797D01*
X029985Y001797D01*
X029930Y001852D01*
X029781Y001962D02*
X029561Y001962D01*
X041049Y005727D02*
X041105Y005672D01*
X041325Y005672D01*
X041380Y005727D01*
X041380Y005837D01*
X041325Y005892D01*
X041325Y006041D02*
X041380Y006041D01*
X041325Y006041D02*
X041105Y006261D01*
X041049Y006261D01*
X041049Y006041D01*
X041105Y005892D02*
X041049Y005837D01*
X041049Y005727D01*
X041215Y006409D02*
X041215Y006574D01*
X041270Y006629D01*
X041325Y006629D01*
X041380Y006574D01*
X041380Y006464D01*
X041325Y006409D01*
X041215Y006409D01*
X041105Y006519D01*
X041049Y006629D01*
X042200Y007829D02*
X042200Y008159D01*
X042365Y008159D01*
X042420Y008104D01*
X042420Y007994D01*
X042365Y007939D01*
X042200Y007939D01*
X042310Y007939D02*
X042420Y007829D01*
X042568Y007884D02*
X042623Y007829D01*
X042733Y007829D01*
X042788Y007884D01*
X042788Y007939D01*
X042733Y007994D01*
X042678Y007994D01*
X042733Y007994D02*
X042788Y008049D01*
X042788Y008104D01*
X042733Y008159D01*
X042623Y008159D01*
X042568Y008104D01*
X042936Y007994D02*
X043101Y007994D01*
X043156Y007939D01*
X043156Y007884D01*
X043101Y007829D01*
X042991Y007829D01*
X042936Y007884D01*
X042936Y007994D01*
X043046Y008104D01*
X043156Y008159D01*
X041462Y008815D02*
X041242Y008815D01*
X041352Y008815D02*
X041352Y008485D01*
X041094Y008485D02*
X041094Y008705D01*
X040984Y008815D01*
X040874Y008705D01*
X040874Y008485D01*
X040726Y008485D02*
X040506Y008485D01*
X040506Y008815D01*
X040357Y008815D02*
X040137Y008815D01*
X040137Y008485D01*
X040137Y008650D02*
X040247Y008650D01*
X039712Y008650D02*
X039492Y008650D01*
X039344Y008650D02*
X039289Y008595D01*
X039124Y008595D01*
X039124Y008485D02*
X039124Y008815D01*
X039289Y008815D01*
X039344Y008760D01*
X039344Y008650D01*
X039492Y008485D02*
X039492Y008815D01*
X039712Y008815D02*
X039712Y008485D01*
X038976Y008485D02*
X038976Y008815D01*
X038866Y008705D01*
X038755Y008815D01*
X038755Y008485D01*
X038607Y008485D02*
X038387Y008485D01*
X038387Y008815D01*
X038607Y008815D01*
X038497Y008650D02*
X038387Y008650D01*
X040874Y008650D02*
X041094Y008650D01*
X045700Y006854D02*
X045700Y006634D01*
X045755Y006579D01*
X045865Y006579D01*
X045920Y006634D01*
X046068Y006744D02*
X046233Y006909D01*
X046233Y006579D01*
X046288Y006744D02*
X046068Y006744D01*
X045920Y006854D02*
X045865Y006909D01*
X045755Y006909D01*
X045700Y006854D01*
X046436Y006744D02*
X046601Y006909D01*
X046601Y006579D01*
X046656Y006744D02*
X046436Y006744D01*
X046491Y004409D02*
X046601Y004409D01*
X046656Y004354D01*
X046656Y004299D01*
X046601Y004244D01*
X046491Y004244D01*
X046436Y004299D01*
X046436Y004354D01*
X046491Y004409D01*
X046491Y004244D02*
X046436Y004189D01*
X046436Y004134D01*
X046491Y004079D01*
X046601Y004079D01*
X046656Y004134D01*
X046656Y004189D01*
X046601Y004244D01*
X046288Y004244D02*
X046068Y004244D01*
X046233Y004409D01*
X046233Y004079D01*
X045920Y004079D02*
X045810Y004189D01*
X045865Y004189D02*
X045700Y004189D01*
X045700Y004079D02*
X045700Y004409D01*
X045865Y004409D01*
X045920Y004354D01*
X045920Y004244D01*
X045865Y004189D01*
X044906Y004244D02*
X044741Y004244D01*
X044686Y004299D01*
X044686Y004354D01*
X044741Y004409D01*
X044851Y004409D01*
X044906Y004354D01*
X044906Y004134D01*
X044851Y004079D01*
X044741Y004079D01*
X044686Y004134D01*
X044538Y004079D02*
X044318Y004079D01*
X044538Y004299D01*
X044538Y004354D01*
X044483Y004409D01*
X044373Y004409D01*
X044318Y004354D01*
X044170Y004354D02*
X044115Y004409D01*
X044005Y004409D01*
X043950Y004354D01*
X043950Y004134D01*
X044005Y004079D01*
X044115Y004079D01*
X044170Y004134D01*
X043156Y004244D02*
X042936Y004244D01*
X043101Y004409D01*
X043101Y004079D01*
X042788Y004079D02*
X042568Y004079D01*
X042788Y004299D01*
X042788Y004354D01*
X042733Y004409D01*
X042623Y004409D01*
X042568Y004354D01*
X042420Y004354D02*
X042420Y004244D01*
X042365Y004189D01*
X042200Y004189D01*
X042310Y004189D02*
X042420Y004079D01*
X042200Y004079D02*
X042200Y004409D01*
X042365Y004409D01*
X042420Y004354D01*
X047450Y004409D02*
X047450Y004079D01*
X047450Y004189D02*
X047615Y004189D01*
X047670Y004244D01*
X047670Y004354D01*
X047615Y004409D01*
X047450Y004409D01*
X047560Y004189D02*
X047670Y004079D01*
X047818Y004079D02*
X047818Y004134D01*
X048038Y004354D01*
X048038Y004409D01*
X047818Y004409D01*
X048186Y004354D02*
X048241Y004409D01*
X048351Y004409D01*
X048406Y004354D01*
X048406Y004299D01*
X048351Y004244D01*
X048406Y004189D01*
X048406Y004134D01*
X048351Y004079D01*
X048241Y004079D01*
X048186Y004134D01*
X048296Y004244D02*
X048351Y004244D01*
X058012Y009079D02*
X058012Y009409D01*
X058177Y009409D01*
X058232Y009354D01*
X058232Y009244D01*
X058177Y009189D01*
X058012Y009189D01*
X058122Y009189D02*
X058232Y009079D01*
X058381Y009134D02*
X058436Y009079D01*
X058546Y009079D01*
X058601Y009134D01*
X058601Y009189D01*
X058546Y009244D01*
X058381Y009244D01*
X058381Y009134D01*
X058381Y009244D02*
X058491Y009354D01*
X058601Y009409D01*
X058749Y009409D02*
X058969Y009409D01*
X058969Y009354D01*
X058749Y009134D01*
X058749Y009079D01*
X059799Y008916D02*
X060130Y008916D01*
X060130Y009136D01*
X060130Y009284D02*
X059910Y009284D01*
X059799Y009394D01*
X059910Y009504D01*
X060130Y009504D01*
X059965Y009504D02*
X059965Y009284D01*
X059855Y009652D02*
X059965Y009762D01*
X060130Y009762D01*
X059965Y009762D02*
X059855Y009872D01*
X059799Y009872D01*
X059799Y009652D02*
X059855Y009652D01*
X060424Y009284D02*
X060755Y009284D01*
X060755Y009504D01*
X060645Y009136D02*
X060424Y009136D01*
X060424Y008916D02*
X060645Y008916D01*
X060755Y009026D01*
X060645Y009136D01*
X060755Y008767D02*
X060755Y008547D01*
X060424Y008547D01*
X060130Y008547D02*
X059799Y008547D01*
X059799Y008712D01*
X059855Y008767D01*
X059965Y008767D01*
X060020Y008712D01*
X060020Y008547D01*
X057599Y009477D02*
X057599Y009587D01*
X057543Y009642D01*
X057543Y009791D02*
X057599Y009846D01*
X057599Y009956D01*
X057543Y010011D01*
X057488Y010011D01*
X057433Y009956D01*
X057433Y009791D01*
X057543Y009791D01*
X057433Y009791D02*
X057323Y009901D01*
X057268Y010011D01*
X057323Y010159D02*
X057268Y010214D01*
X057268Y010324D01*
X057323Y010379D01*
X057543Y010159D01*
X057599Y010214D01*
X057599Y010324D01*
X057543Y010379D01*
X057323Y010379D01*
X057323Y010159D02*
X057543Y010159D01*
X057323Y009642D02*
X057268Y009587D01*
X057268Y009477D01*
X057323Y009422D01*
X057543Y009422D01*
X057599Y009477D01*
X060424Y010047D02*
X060424Y010212D01*
X060480Y010267D01*
X060590Y010267D01*
X060645Y010212D01*
X060645Y010047D01*
X060755Y010047D02*
X060424Y010047D01*
X060645Y010157D02*
X060755Y010267D01*
X060755Y010416D02*
X060700Y010416D01*
X060480Y010636D01*
X060424Y010636D01*
X060424Y010416D01*
X060424Y010784D02*
X060590Y010784D01*
X060535Y010894D01*
X060535Y010949D01*
X060590Y011004D01*
X060700Y011004D01*
X060755Y010949D01*
X060755Y010839D01*
X060700Y010784D01*
X060424Y010784D02*
X060424Y011004D01*
X060480Y011547D02*
X060700Y011547D01*
X060755Y011602D01*
X060755Y011712D01*
X060700Y011767D01*
X060755Y011916D02*
X060535Y011916D01*
X060424Y012026D01*
X060535Y012136D01*
X060755Y012136D01*
X060755Y012284D02*
X060755Y012504D01*
X060755Y012284D02*
X060424Y012284D01*
X060590Y012136D02*
X060590Y011916D01*
X060480Y011767D02*
X060424Y011712D01*
X060424Y011602D01*
X060480Y011547D01*
X060130Y011602D02*
X060075Y011547D01*
X060130Y011602D02*
X060130Y011712D01*
X060075Y011767D01*
X060020Y011767D01*
X059965Y011712D01*
X059965Y011602D01*
X059910Y011547D01*
X059855Y011547D01*
X059799Y011602D01*
X059799Y011712D01*
X059855Y011767D01*
X059855Y011916D02*
X059799Y011971D01*
X059799Y012081D01*
X059855Y012136D01*
X060075Y012136D01*
X060130Y012081D01*
X060130Y011971D01*
X060075Y011916D01*
X059855Y011916D01*
X060020Y012026D02*
X060130Y012136D01*
X060075Y012284D02*
X060130Y012339D01*
X060130Y012449D01*
X060075Y012504D01*
X059799Y012504D01*
X059799Y012652D02*
X060130Y012652D01*
X060130Y012872D01*
X060130Y013021D02*
X060130Y013241D01*
X060075Y013389D02*
X060130Y013444D01*
X060130Y013554D01*
X060075Y013609D01*
X060130Y013757D02*
X059799Y013757D01*
X059855Y013609D02*
X059799Y013554D01*
X059799Y013444D01*
X059855Y013389D01*
X060075Y013389D01*
X060424Y013471D02*
X060480Y013416D01*
X060424Y013471D02*
X060424Y013581D01*
X060480Y013636D01*
X060535Y013636D01*
X060755Y013416D01*
X060755Y013636D01*
X060755Y013784D02*
X060700Y013784D01*
X060480Y014004D01*
X060424Y014004D01*
X060424Y013784D01*
X060130Y013977D02*
X059799Y013977D01*
X059965Y013977D02*
X059965Y013757D01*
X060480Y013267D02*
X060590Y013267D01*
X060645Y013212D01*
X060645Y013047D01*
X060755Y013047D02*
X060424Y013047D01*
X060424Y013212D01*
X060480Y013267D01*
X060645Y013157D02*
X060755Y013267D01*
X060130Y013021D02*
X059799Y013021D01*
X059799Y012872D02*
X059799Y012652D01*
X059965Y012652D02*
X059965Y012762D01*
X060075Y012284D02*
X059799Y012284D01*
X058880Y012985D02*
X058880Y013205D01*
X058770Y013353D02*
X058880Y013463D01*
X058770Y013573D01*
X058549Y013573D01*
X058549Y013721D02*
X058880Y013721D01*
X058880Y013942D01*
X058317Y013887D02*
X058262Y013942D01*
X058317Y013887D02*
X058317Y013776D01*
X058262Y013721D01*
X058042Y013721D01*
X057987Y013776D01*
X057987Y013887D01*
X058042Y013942D01*
X058042Y014090D02*
X058262Y014090D01*
X058317Y014145D01*
X058317Y014255D01*
X058262Y014310D01*
X058042Y014310D01*
X057987Y014255D01*
X057987Y014145D01*
X058042Y014090D01*
X057987Y014458D02*
X057987Y014623D01*
X058042Y014678D01*
X058152Y014678D01*
X058207Y014623D01*
X058207Y014458D01*
X058207Y014568D02*
X058317Y014678D01*
X058317Y014826D02*
X058317Y014991D01*
X058262Y015046D01*
X058042Y015046D01*
X057987Y014991D01*
X057987Y014826D01*
X058317Y014826D01*
X058317Y014458D02*
X057987Y014458D01*
X057987Y013573D02*
X057987Y013353D01*
X058317Y013353D01*
X058317Y013573D01*
X058152Y013463D02*
X058152Y013353D01*
X058152Y013205D02*
X058207Y013150D01*
X058207Y012985D01*
X058207Y013095D02*
X058317Y013205D01*
X058152Y013205D02*
X058042Y013205D01*
X057987Y013150D01*
X057987Y012985D01*
X058317Y012985D01*
X058549Y012985D02*
X058880Y012985D01*
X058770Y013353D02*
X058549Y013353D01*
X056880Y012449D02*
X056825Y012504D01*
X056770Y012504D01*
X056715Y012449D01*
X056715Y012284D01*
X056825Y012284D01*
X056880Y012339D01*
X056880Y012449D01*
X056715Y012284D02*
X056604Y012394D01*
X056549Y012504D01*
X056549Y012136D02*
X056604Y012026D01*
X056715Y011916D01*
X056715Y012081D01*
X056770Y012136D01*
X056825Y012136D01*
X056880Y012081D01*
X056880Y011971D01*
X056825Y011916D01*
X056715Y011916D01*
X056715Y011767D02*
X056770Y011712D01*
X056770Y011547D01*
X056880Y011547D02*
X056549Y011547D01*
X056549Y011712D01*
X056604Y011767D01*
X056715Y011767D01*
X056770Y011657D02*
X056880Y011767D01*
X059799Y014547D02*
X059799Y014712D01*
X059855Y014767D01*
X059965Y014767D01*
X060020Y014712D01*
X060020Y014547D01*
X060130Y014547D02*
X059799Y014547D01*
X060020Y014657D02*
X060130Y014767D01*
X060130Y014916D02*
X060130Y015136D01*
X060075Y015284D02*
X060130Y015339D01*
X060130Y015449D01*
X060075Y015504D01*
X060130Y015652D02*
X060130Y015872D01*
X060130Y016021D02*
X060130Y016131D01*
X060130Y016076D02*
X059799Y016076D01*
X059799Y016021D02*
X059799Y016131D01*
X059799Y016266D02*
X060020Y016266D01*
X060130Y016376D01*
X060020Y016486D01*
X059799Y016486D01*
X059799Y016634D02*
X060130Y016634D01*
X060130Y016854D01*
X059965Y016744D02*
X059965Y016634D01*
X059799Y016634D02*
X059799Y016854D01*
X060424Y016839D02*
X060480Y016784D01*
X060424Y016839D02*
X060424Y016949D01*
X060480Y017004D01*
X060535Y017004D01*
X060590Y016949D01*
X060645Y017004D01*
X060700Y017004D01*
X060755Y016949D01*
X060755Y016839D01*
X060700Y016784D01*
X060700Y016636D02*
X060645Y016636D01*
X060590Y016581D01*
X060590Y016416D01*
X060700Y016416D01*
X060755Y016471D01*
X060755Y016581D01*
X060700Y016636D01*
X060480Y016526D02*
X060590Y016416D01*
X060590Y016267D02*
X060645Y016212D01*
X060645Y016047D01*
X060755Y016047D02*
X060424Y016047D01*
X060424Y016212D01*
X060480Y016267D01*
X060590Y016267D01*
X060645Y016157D02*
X060755Y016267D01*
X060480Y016526D02*
X060424Y016636D01*
X060590Y016894D02*
X060590Y016949D01*
X060755Y017547D02*
X060755Y017767D01*
X060645Y017916D02*
X060755Y018026D01*
X060645Y018136D01*
X060424Y018136D01*
X060424Y018284D02*
X060755Y018284D01*
X060755Y018504D01*
X060130Y018584D02*
X060130Y018695D01*
X060075Y018750D01*
X059799Y018750D01*
X059799Y018898D02*
X059799Y019118D01*
X059799Y019008D02*
X060130Y019008D01*
X060424Y019047D02*
X060424Y019212D01*
X060480Y019267D01*
X060590Y019267D01*
X060645Y019212D01*
X060645Y019047D01*
X060755Y019047D02*
X060424Y019047D01*
X060645Y019157D02*
X060755Y019267D01*
X060755Y019416D02*
X060535Y019636D01*
X060480Y019636D01*
X060424Y019581D01*
X060424Y019471D01*
X060480Y019416D01*
X060755Y019416D02*
X060755Y019636D01*
X060700Y019784D02*
X060755Y019839D01*
X060755Y019949D01*
X060700Y020004D01*
X060645Y020004D01*
X060590Y019949D01*
X060590Y019784D01*
X060700Y019784D01*
X060590Y019784D02*
X060480Y019894D01*
X060424Y020004D01*
X059005Y020790D02*
X059005Y020900D01*
X058950Y020955D01*
X058895Y020955D01*
X058840Y020900D01*
X058840Y020790D01*
X058785Y020735D01*
X058730Y020735D01*
X058674Y020790D01*
X058674Y020900D01*
X058730Y020955D01*
X058785Y020955D01*
X058840Y020900D01*
X058840Y020790D02*
X058895Y020735D01*
X058950Y020735D01*
X059005Y020790D01*
X058052Y021647D02*
X057831Y021978D01*
X057683Y021978D02*
X057683Y021702D01*
X057628Y021647D01*
X057518Y021647D01*
X057463Y021702D01*
X057463Y021978D01*
X057315Y021867D02*
X057315Y021647D01*
X057315Y021812D02*
X057095Y021812D01*
X057095Y021867D02*
X057095Y021647D01*
X057095Y021867D02*
X057205Y021978D01*
X057315Y021867D01*
X057831Y021647D02*
X058052Y021978D01*
X058052Y022647D02*
X057831Y022978D01*
X057683Y022978D02*
X057463Y022978D01*
X057573Y022978D02*
X057573Y022647D01*
X057831Y022647D02*
X058052Y022978D01*
X058052Y023647D02*
X057831Y023978D01*
X057683Y023922D02*
X057683Y023812D01*
X057628Y023757D01*
X057463Y023757D01*
X057463Y023647D02*
X057463Y023978D01*
X057628Y023978D01*
X057683Y023922D01*
X057573Y023757D02*
X057683Y023647D01*
X057831Y023647D02*
X058052Y023978D01*
X057997Y024647D02*
X058052Y024702D01*
X058052Y024922D01*
X057997Y024978D01*
X057831Y024978D01*
X057831Y024647D01*
X057997Y024647D01*
X057683Y024647D02*
X057683Y024978D01*
X057463Y024978D02*
X057683Y024647D01*
X057463Y024647D02*
X057463Y024978D01*
X057315Y024922D02*
X057260Y024978D01*
X057150Y024978D01*
X057095Y024922D01*
X057095Y024702D01*
X057150Y024647D01*
X057260Y024647D01*
X057315Y024702D01*
X057315Y024812D01*
X057205Y024812D01*
X056947Y024812D02*
X056726Y024812D01*
X056726Y024867D02*
X056837Y024978D01*
X056947Y024867D01*
X056947Y024647D01*
X056726Y024647D02*
X056726Y024867D01*
X057150Y025647D02*
X057260Y025647D01*
X057315Y025702D01*
X057315Y025812D01*
X057205Y025812D01*
X057095Y025702D02*
X057150Y025647D01*
X057095Y025702D02*
X057095Y025922D01*
X057150Y025978D01*
X057260Y025978D01*
X057315Y025922D01*
X057463Y025978D02*
X057683Y025647D01*
X057683Y025978D01*
X057831Y025978D02*
X057831Y025647D01*
X057997Y025647D01*
X058052Y025702D01*
X058052Y025922D01*
X057997Y025978D01*
X057831Y025978D01*
X057463Y025978D02*
X057463Y025647D01*
X057518Y026647D02*
X057628Y026647D01*
X057683Y026702D01*
X057683Y026922D01*
X057628Y026978D01*
X057518Y026978D01*
X057463Y026922D01*
X057463Y026702D01*
X057518Y026647D01*
X057315Y026702D02*
X057260Y026647D01*
X057150Y026647D01*
X057095Y026702D01*
X057095Y026922D01*
X057150Y026978D01*
X057260Y026978D01*
X057315Y026922D01*
X057831Y026922D02*
X057831Y026867D01*
X057886Y026812D01*
X057997Y026812D01*
X058052Y026757D01*
X058052Y026702D01*
X057997Y026647D01*
X057886Y026647D01*
X057831Y026702D01*
X057831Y026922D02*
X057886Y026978D01*
X057997Y026978D01*
X058052Y026922D01*
X058052Y027647D02*
X058052Y027978D01*
X057831Y027978D02*
X058052Y027647D01*
X057831Y027647D02*
X057831Y027978D01*
X057683Y027867D02*
X057683Y027647D01*
X057683Y027812D02*
X057463Y027812D01*
X057463Y027867D02*
X057573Y027978D01*
X057683Y027867D01*
X057463Y027867D02*
X057463Y027647D01*
X057205Y027812D02*
X057095Y027812D01*
X057095Y027647D02*
X057095Y027978D01*
X057315Y027978D01*
X057095Y028647D02*
X057095Y028978D01*
X057260Y028978D01*
X057315Y028922D01*
X057315Y028812D01*
X057260Y028757D01*
X057095Y028757D01*
X057463Y028978D02*
X057683Y028978D01*
X057573Y028978D02*
X057573Y028647D01*
X057941Y028647D02*
X057941Y028978D01*
X057831Y028978D02*
X058052Y028978D01*
X058799Y029657D02*
X058910Y029547D01*
X058799Y029657D02*
X059130Y029657D01*
X059130Y029547D02*
X059130Y029767D01*
X060299Y028894D02*
X060410Y029004D01*
X060630Y029004D01*
X060465Y029004D02*
X060465Y028784D01*
X060410Y028784D02*
X060299Y028894D01*
X060410Y028784D02*
X060630Y028784D01*
X060575Y028636D02*
X060630Y028581D01*
X060630Y028471D01*
X060575Y028416D01*
X060465Y028526D02*
X060465Y028581D01*
X060520Y028636D01*
X060575Y028636D01*
X060465Y028581D02*
X060410Y028636D01*
X060355Y028636D01*
X060299Y028581D01*
X060299Y028471D01*
X060355Y028416D01*
X060299Y028267D02*
X060630Y028047D01*
X060630Y028267D02*
X060299Y028047D01*
X062575Y029954D02*
X062795Y030284D01*
X062943Y030229D02*
X062998Y030284D01*
X063108Y030284D01*
X063163Y030229D01*
X063163Y030174D01*
X063108Y030119D01*
X063163Y030064D01*
X063163Y030009D01*
X063108Y029954D01*
X062998Y029954D01*
X062943Y030009D01*
X063053Y030119D02*
X063108Y030119D01*
X062795Y029954D02*
X062575Y030284D01*
X053023Y023378D02*
X052857Y023212D01*
X053078Y023212D01*
X053023Y023047D02*
X053023Y023378D01*
X052709Y023322D02*
X052654Y023378D01*
X052544Y023378D01*
X052489Y023322D01*
X052489Y023102D01*
X052544Y023047D01*
X052654Y023047D01*
X052709Y023102D01*
X052709Y023322D01*
X052599Y023157D02*
X052709Y023047D01*
X052685Y021628D02*
X052795Y021628D01*
X052740Y021628D02*
X052740Y021352D01*
X052685Y021297D01*
X052630Y021297D01*
X052575Y021352D01*
X052943Y021297D02*
X053163Y021517D01*
X053163Y021572D01*
X053108Y021628D01*
X052998Y021628D01*
X052943Y021572D01*
X052943Y021297D02*
X053163Y021297D01*
X048942Y021330D02*
X048832Y021220D01*
X048832Y021275D02*
X048832Y021110D01*
X048942Y021110D02*
X048612Y021110D01*
X048612Y021275D01*
X048667Y021330D01*
X048777Y021330D01*
X048832Y021275D01*
X048722Y021478D02*
X048612Y021588D01*
X048942Y021588D01*
X048942Y021478D02*
X048942Y021698D01*
X048887Y021846D02*
X048942Y021901D01*
X048942Y022011D01*
X048887Y022067D01*
X048832Y022067D01*
X048777Y022011D01*
X048777Y021956D01*
X048777Y022011D02*
X048722Y022067D01*
X048667Y022067D01*
X048612Y022011D01*
X048612Y021901D01*
X048667Y021846D01*
X048652Y020011D02*
X048652Y019791D01*
X048487Y019956D01*
X048817Y019956D01*
X048762Y019642D02*
X048487Y019642D01*
X048487Y019422D02*
X048762Y019422D01*
X048817Y019477D01*
X048817Y019587D01*
X048762Y019642D01*
X048740Y018878D02*
X048630Y018878D01*
X048575Y018822D01*
X048685Y018712D02*
X048740Y018712D01*
X048795Y018657D01*
X048795Y018602D01*
X048740Y018547D01*
X048630Y018547D01*
X048575Y018602D01*
X048740Y018712D02*
X048795Y018767D01*
X048795Y018822D01*
X048740Y018878D01*
X048943Y018878D02*
X048943Y018657D01*
X049053Y018547D01*
X049163Y018657D01*
X049163Y018878D01*
X046067Y018915D02*
X046067Y019025D01*
X046012Y019080D01*
X046067Y019228D02*
X045847Y019448D01*
X045792Y019448D01*
X045737Y019393D01*
X045737Y019283D01*
X045792Y019228D01*
X045792Y019080D02*
X045737Y019025D01*
X045737Y018915D01*
X045792Y018860D01*
X046012Y018860D01*
X046067Y018915D01*
X046067Y019228D02*
X046067Y019448D01*
X046067Y019596D02*
X046067Y019817D01*
X046067Y019707D02*
X045737Y019707D01*
X045847Y019596D01*
X051049Y016831D02*
X051049Y016721D01*
X051105Y016666D01*
X051160Y016666D01*
X051215Y016721D01*
X051215Y016886D01*
X051325Y016886D02*
X051105Y016886D01*
X051049Y016831D01*
X051325Y016886D02*
X051380Y016831D01*
X051380Y016721D01*
X051325Y016666D01*
X051325Y016517D02*
X051049Y016517D01*
X051049Y016297D02*
X051325Y016297D01*
X051380Y016352D01*
X051380Y016462D01*
X051325Y016517D01*
X057700Y017079D02*
X057700Y017409D01*
X057865Y017409D01*
X057920Y017354D01*
X057920Y017244D01*
X057865Y017189D01*
X057700Y017189D01*
X057810Y017189D02*
X057920Y017079D01*
X058068Y017134D02*
X058123Y017079D01*
X058233Y017079D01*
X058288Y017134D01*
X058288Y017189D01*
X058233Y017244D01*
X058068Y017244D01*
X058068Y017134D01*
X058068Y017244D02*
X058178Y017354D01*
X058288Y017409D01*
X058436Y017299D02*
X058546Y017409D01*
X058546Y017079D01*
X058436Y017079D02*
X058656Y017079D01*
X059799Y017547D02*
X059799Y017657D01*
X059799Y017602D02*
X060130Y017602D01*
X060130Y017547D02*
X060130Y017657D01*
X060130Y017793D02*
X059799Y017793D01*
X060130Y018013D01*
X059799Y018013D01*
X059799Y018161D02*
X059799Y018326D01*
X059855Y018381D01*
X059965Y018381D01*
X060020Y018326D01*
X060020Y018161D01*
X060130Y018161D02*
X059799Y018161D01*
X059799Y018529D02*
X060075Y018529D01*
X060130Y018584D01*
X060424Y017916D02*
X060645Y017916D01*
X060755Y017547D02*
X060424Y017547D01*
X058656Y018509D02*
X058656Y018729D01*
X058601Y018784D01*
X058491Y018784D01*
X058436Y018729D01*
X058436Y018674D01*
X058491Y018619D01*
X058656Y018619D01*
X058656Y018509D02*
X058601Y018454D01*
X058491Y018454D01*
X058436Y018509D01*
X058288Y018619D02*
X058068Y018619D01*
X058233Y018784D01*
X058233Y018454D01*
X057920Y018454D02*
X057810Y018564D01*
X057865Y018564D02*
X057700Y018564D01*
X057700Y018454D02*
X057700Y018784D01*
X057865Y018784D01*
X057920Y018729D01*
X057920Y018619D01*
X057865Y018564D01*
X059799Y015872D02*
X059799Y015652D01*
X060130Y015652D01*
X059965Y015652D02*
X059965Y015762D01*
X059855Y015504D02*
X059799Y015449D01*
X059799Y015339D01*
X059855Y015284D01*
X060075Y015284D01*
X059965Y015026D02*
X059965Y014916D01*
X060130Y014916D02*
X059799Y014916D01*
X059799Y015136D01*
X060424Y015136D02*
X060645Y015136D01*
X060755Y015026D01*
X060645Y014916D01*
X060424Y014916D01*
X060755Y014767D02*
X060755Y014547D01*
X060424Y014547D01*
X060424Y015284D02*
X060755Y015284D01*
X060755Y015504D01*
X048406Y013072D02*
X048351Y013128D01*
X048241Y013128D01*
X048186Y013072D01*
X048186Y013017D01*
X048241Y012962D01*
X048406Y012962D01*
X048406Y012852D02*
X048406Y013072D01*
X048406Y012852D02*
X048351Y012797D01*
X048241Y012797D01*
X048186Y012852D01*
X048038Y012852D02*
X048038Y012907D01*
X047983Y012962D01*
X047818Y012962D01*
X047818Y012852D01*
X047873Y012797D01*
X047983Y012797D01*
X048038Y012852D01*
X047928Y013072D02*
X047818Y012962D01*
X047670Y012962D02*
X047615Y012907D01*
X047450Y012907D01*
X047450Y012797D02*
X047450Y013128D01*
X047615Y013128D01*
X047670Y013072D01*
X047670Y012962D01*
X047560Y012907D02*
X047670Y012797D01*
X047928Y013072D02*
X048038Y013128D01*
X046781Y012797D02*
X046561Y012797D01*
X046671Y012797D02*
X046671Y013128D01*
X046561Y013017D01*
X046413Y013072D02*
X046193Y012852D01*
X046193Y012797D01*
X046045Y012852D02*
X045990Y012797D01*
X045880Y012797D01*
X045825Y012852D01*
X045825Y013072D01*
X045880Y013128D01*
X045990Y013128D01*
X046045Y013072D01*
X046193Y013128D02*
X046413Y013128D01*
X046413Y013072D01*
X045705Y012362D02*
X045705Y012251D01*
X045650Y012196D01*
X045429Y012417D01*
X045650Y012417D01*
X045705Y012362D01*
X045650Y012196D02*
X045429Y012196D01*
X045374Y012251D01*
X045374Y012362D01*
X045429Y012417D01*
X045429Y012048D02*
X045374Y012048D01*
X045374Y011828D01*
X045429Y011680D02*
X045374Y011625D01*
X045374Y011515D01*
X045429Y011460D01*
X045650Y011460D01*
X045705Y011515D01*
X045705Y011625D01*
X045650Y011680D01*
X045650Y011828D02*
X045705Y011828D01*
X045650Y011828D02*
X045429Y012048D01*
X042973Y012081D02*
X042918Y012136D01*
X042863Y012136D01*
X042808Y012081D01*
X042808Y011916D01*
X042918Y011916D01*
X042973Y011971D01*
X042973Y012081D01*
X042918Y012284D02*
X042973Y012339D01*
X042973Y012449D01*
X042918Y012504D01*
X042863Y012504D01*
X042808Y012449D01*
X042808Y012394D01*
X042808Y012449D02*
X042753Y012504D01*
X042698Y012504D01*
X042643Y012449D01*
X042643Y012339D01*
X042698Y012284D01*
X042643Y012136D02*
X042698Y012026D01*
X042808Y011916D01*
X042698Y011767D02*
X042643Y011712D01*
X042643Y011602D01*
X042698Y011547D01*
X042918Y011547D01*
X042973Y011602D01*
X042973Y011712D01*
X042918Y011767D01*
X041723Y011712D02*
X041668Y011767D01*
X041723Y011712D02*
X041723Y011602D01*
X041668Y011547D01*
X041448Y011547D01*
X041393Y011602D01*
X041393Y011712D01*
X041448Y011767D01*
X041393Y011916D02*
X041393Y012136D01*
X041448Y012136D01*
X041668Y011916D01*
X041723Y011916D01*
X041723Y012284D02*
X041503Y012504D01*
X041448Y012504D01*
X041393Y012449D01*
X041393Y012339D01*
X041448Y012284D01*
X041723Y012284D02*
X041723Y012504D01*
X040474Y012449D02*
X040418Y012504D01*
X040198Y012504D01*
X040143Y012449D01*
X040143Y012339D01*
X040198Y012284D01*
X040253Y012284D01*
X040308Y012339D01*
X040308Y012504D01*
X040474Y012449D02*
X040474Y012339D01*
X040418Y012284D01*
X040308Y012136D02*
X040308Y011916D01*
X040143Y012081D01*
X040474Y012081D01*
X040418Y011767D02*
X040474Y011712D01*
X040474Y011602D01*
X040418Y011547D01*
X040198Y011547D01*
X040143Y011602D01*
X040143Y011712D01*
X040198Y011767D01*
X039224Y011767D02*
X039113Y011657D01*
X039113Y011712D02*
X039113Y011547D01*
X039224Y011547D02*
X038893Y011547D01*
X038893Y011712D01*
X038948Y011767D01*
X039058Y011767D01*
X039113Y011712D01*
X039058Y011916D02*
X038893Y011916D01*
X038893Y012136D01*
X039003Y012081D02*
X039058Y012136D01*
X039168Y012136D01*
X039224Y012081D01*
X039224Y011971D01*
X039168Y011916D01*
X039058Y011916D02*
X039003Y012026D01*
X039003Y012081D01*
X039058Y012284D02*
X038893Y012449D01*
X039224Y012449D01*
X039058Y012504D02*
X039058Y012284D01*
X037974Y012284D02*
X037974Y012504D01*
X037974Y012394D02*
X037643Y012394D01*
X037753Y012284D01*
X037808Y012136D02*
X037808Y011916D01*
X037643Y012081D01*
X037974Y012081D01*
X037918Y011767D02*
X037974Y011712D01*
X037974Y011602D01*
X037918Y011547D01*
X037698Y011547D01*
X037643Y011602D01*
X037643Y011712D01*
X037698Y011767D01*
X036474Y011712D02*
X036418Y011767D01*
X036474Y011712D02*
X036474Y011602D01*
X036418Y011547D01*
X036198Y011547D01*
X036143Y011602D01*
X036143Y011712D01*
X036198Y011767D01*
X036143Y011916D02*
X036308Y011916D01*
X036253Y012026D01*
X036253Y012081D01*
X036308Y012136D01*
X036418Y012136D01*
X036474Y012081D01*
X036474Y011971D01*
X036418Y011916D01*
X036143Y011916D02*
X036143Y012136D01*
X036143Y012284D02*
X036143Y012504D01*
X036198Y012504D01*
X036418Y012284D01*
X036474Y012284D01*
X035762Y016172D02*
X035487Y016172D01*
X035487Y016392D02*
X035762Y016392D01*
X035817Y016337D01*
X035817Y016227D01*
X035762Y016172D01*
X035762Y016541D02*
X035652Y016541D01*
X035652Y016706D01*
X035707Y016761D01*
X035762Y016761D01*
X035817Y016706D01*
X035817Y016596D01*
X035762Y016541D01*
X035652Y016541D02*
X035542Y016651D01*
X035487Y016761D01*
X042737Y016706D02*
X042792Y016761D01*
X042847Y016761D01*
X042902Y016706D01*
X042902Y016596D01*
X042847Y016541D01*
X042792Y016541D01*
X042737Y016596D01*
X042737Y016706D01*
X042902Y016706D02*
X042957Y016761D01*
X043012Y016761D01*
X043067Y016706D01*
X043067Y016596D01*
X043012Y016541D01*
X042957Y016541D01*
X042902Y016596D01*
X043012Y016392D02*
X042737Y016392D01*
X042737Y016172D02*
X043012Y016172D01*
X043067Y016227D01*
X043067Y016337D01*
X043012Y016392D01*
X029749Y024174D02*
X029694Y024119D01*
X029584Y024119D01*
X029529Y024174D01*
X029529Y024284D02*
X029639Y024339D01*
X029694Y024339D01*
X029749Y024284D01*
X029749Y024174D01*
X029529Y024284D02*
X029529Y024449D01*
X029749Y024449D01*
X029381Y024394D02*
X029325Y024449D01*
X029160Y024449D01*
X029160Y024119D01*
X029325Y024119D01*
X029381Y024174D01*
X029381Y024394D01*
X042924Y027297D02*
X042924Y027462D01*
X042980Y027517D01*
X043090Y027517D01*
X043145Y027462D01*
X043145Y027297D01*
X043255Y027297D02*
X042924Y027297D01*
X043145Y027407D02*
X043255Y027517D01*
X043200Y027666D02*
X043145Y027666D01*
X043090Y027721D01*
X043090Y027831D01*
X043145Y027886D01*
X043200Y027886D01*
X043255Y027831D01*
X043255Y027721D01*
X043200Y027666D01*
X043090Y027721D02*
X043035Y027666D01*
X042980Y027666D01*
X042924Y027721D01*
X042924Y027831D01*
X042980Y027886D01*
X043035Y027886D01*
X043090Y027831D01*
X043200Y028034D02*
X042980Y028254D01*
X043200Y028254D01*
X043255Y028199D01*
X043255Y028089D01*
X043200Y028034D01*
X042980Y028034D01*
X042924Y028089D01*
X042924Y028199D01*
X042980Y028254D01*
X018844Y007948D02*
X018789Y008003D01*
X018679Y008003D01*
X018624Y007948D01*
X018844Y007948D02*
X018844Y007892D01*
X018624Y007672D01*
X018844Y007672D01*
X018476Y007672D02*
X018256Y007672D01*
X018366Y007672D02*
X018366Y008003D01*
X018256Y007892D01*
X018107Y008003D02*
X018107Y007727D01*
X018052Y007672D01*
X017942Y007672D01*
X017887Y007727D01*
X017887Y008003D01*
X060424Y002672D02*
X060755Y002672D01*
X060755Y002892D01*
D12*
X055662Y013827D02*
X055092Y013827D01*
X055282Y014017D01*
X055092Y014208D01*
X055662Y014208D01*
X055662Y014472D02*
X055662Y014662D01*
X055662Y014567D02*
X055092Y014567D01*
X055092Y014472D02*
X055092Y014662D01*
X055187Y014901D02*
X055092Y014997D01*
X055092Y015187D01*
X055187Y015282D01*
X055092Y015546D02*
X055662Y015546D01*
X055472Y015546D02*
X055472Y015831D01*
X055377Y015926D01*
X055187Y015926D01*
X055092Y015831D01*
X055092Y015546D01*
X055472Y015736D02*
X055662Y015926D01*
X055567Y016191D02*
X055662Y016286D01*
X055662Y016476D01*
X055567Y016571D01*
X055187Y016571D01*
X055092Y016476D01*
X055092Y016286D01*
X055187Y016191D01*
X055567Y016191D01*
X055567Y015282D02*
X055662Y015187D01*
X055662Y014997D01*
X055567Y014901D01*
X055187Y014901D01*
X055377Y016835D02*
X055377Y017215D01*
X055472Y017480D02*
X055472Y017765D01*
X055377Y017860D01*
X055187Y017860D01*
X055092Y017765D01*
X055092Y017480D01*
X055662Y017480D01*
X055472Y017670D02*
X055662Y017860D01*
X055567Y018124D02*
X055662Y018219D01*
X055662Y018409D01*
X055567Y018504D01*
X055567Y018124D02*
X055187Y018124D01*
X055092Y018219D01*
X055092Y018409D01*
X055187Y018504D01*
D13*
X056290Y018512D03*
X056602Y018512D03*
X056915Y018512D03*
X056915Y018137D03*
X056602Y018137D03*
X056290Y018137D03*
X056290Y017762D03*
X056602Y017762D03*
X056915Y017762D03*
X056915Y017387D03*
X056602Y017387D03*
X056290Y017387D03*
X056290Y017012D03*
X056602Y017012D03*
X056915Y017012D03*
X056915Y018887D03*
X056602Y018887D03*
X056290Y018887D03*
D14*
X058165Y018262D02*
X058165Y017762D01*
X058165Y016887D02*
X058165Y016387D01*
X061037Y016281D02*
X061037Y017167D01*
X061923Y017167D01*
X061923Y017608D02*
X061037Y017608D01*
X061037Y018494D01*
X061037Y019281D02*
X061037Y020167D01*
X061923Y020167D01*
X062907Y020167D02*
X063793Y020167D01*
X063793Y018494D01*
X063793Y018001D01*
X063793Y017608D02*
X062907Y017608D01*
X062907Y017167D02*
X063793Y017167D01*
X063793Y015494D01*
X063793Y015001D01*
X063793Y014608D02*
X063793Y015494D01*
X063793Y014608D02*
X062907Y014608D01*
X062907Y014167D02*
X063793Y014167D01*
X063793Y012494D01*
X063793Y012001D01*
X063793Y011608D02*
X062907Y011608D01*
X061923Y011608D02*
X061037Y011608D01*
X061037Y012494D01*
X061037Y013281D02*
X061037Y014167D01*
X061923Y014167D01*
X061923Y014608D02*
X061037Y014608D01*
X061037Y015494D01*
X063793Y017608D02*
X063793Y018494D01*
X054290Y023512D02*
X054290Y023762D01*
X054040Y023762D01*
X054290Y024262D01*
X054040Y024262D01*
X053790Y023762D01*
X054040Y023762D01*
X054290Y023762D02*
X054290Y024262D01*
X054290Y024512D01*
X054040Y024262D02*
X053790Y024262D01*
X053540Y023762D01*
X053790Y023762D01*
X053540Y023762D02*
X053477Y023762D01*
X053415Y023825D01*
X053415Y023981D01*
X053602Y024262D01*
X053477Y024262D01*
X053415Y024200D01*
X053415Y023981D01*
X053602Y024262D02*
X053790Y024262D01*
X054290Y023512D02*
X054334Y023514D01*
X054377Y023520D01*
X054419Y023529D01*
X054461Y023542D01*
X054501Y023559D01*
X054540Y023579D01*
X054577Y023602D01*
X054611Y023629D01*
X054644Y023658D01*
X054673Y023691D01*
X054700Y023725D01*
X054723Y023762D01*
X054743Y023801D01*
X054760Y023841D01*
X054773Y023883D01*
X054782Y023925D01*
X054788Y023968D01*
X054790Y024012D01*
X054540Y024012D01*
X054790Y024012D02*
X054788Y024056D01*
X054782Y024099D01*
X054773Y024141D01*
X054760Y024183D01*
X054743Y024223D01*
X054723Y024262D01*
X054700Y024299D01*
X054673Y024333D01*
X054644Y024366D01*
X054611Y024395D01*
X054577Y024422D01*
X054540Y024445D01*
X054501Y024465D01*
X054461Y024482D01*
X054419Y024495D01*
X054377Y024504D01*
X054334Y024510D01*
X054290Y024512D01*
X052790Y023887D02*
X048540Y023887D01*
X048540Y027512D01*
X047915Y027512D02*
X047915Y023887D01*
X043665Y023887D01*
X043665Y027512D01*
X041904Y026626D02*
X041904Y023982D01*
X041320Y023398D01*
X040683Y023398D01*
X039896Y023398D02*
X039259Y023398D01*
X038676Y023982D01*
X038676Y026626D01*
X039896Y026626D01*
X040683Y026626D02*
X041904Y026626D01*
X041290Y027512D02*
X041290Y028012D01*
X039290Y028012D02*
X039290Y027512D01*
X037163Y025668D02*
X037016Y025668D01*
X037163Y025668D02*
X037163Y023857D01*
X037016Y023857D01*
X036665Y024512D02*
X036165Y024512D01*
X036415Y024575D02*
X036665Y025012D01*
X036165Y025012D01*
X036415Y024575D01*
X035814Y023857D02*
X035667Y023857D01*
X035667Y025668D01*
X035814Y025668D01*
X033665Y024887D02*
X030040Y024887D01*
X030040Y029137D01*
X033665Y029137D01*
X027048Y029270D02*
X027048Y025963D01*
X026339Y025254D01*
X025473Y025254D01*
X024607Y025254D02*
X023741Y025254D01*
X023032Y025963D01*
X023032Y029270D01*
X024607Y029270D01*
X025473Y029270D02*
X027048Y029270D01*
X022673Y029270D02*
X022673Y025963D01*
X021964Y025254D01*
X021098Y025254D01*
X020232Y025254D02*
X019366Y025254D01*
X018657Y025963D01*
X018657Y029270D01*
X020232Y029270D01*
X021098Y029270D02*
X022673Y029270D01*
X017965Y028098D02*
X017965Y027677D01*
X017365Y027677D02*
X017365Y028098D01*
X016090Y028098D02*
X016090Y027677D01*
X015490Y027677D02*
X015490Y028098D01*
X014576Y027238D02*
X013479Y028884D01*
X012101Y028884D02*
X011004Y027238D01*
X010920Y026961D02*
X010920Y025689D01*
X011004Y025411D02*
X012101Y023766D01*
X013479Y023766D02*
X014576Y025411D01*
X014660Y025689D02*
X014660Y026961D01*
X014658Y027003D01*
X014653Y027045D01*
X014644Y027086D01*
X014632Y027126D01*
X014617Y027165D01*
X014598Y027202D01*
X014576Y027238D01*
X015042Y025918D02*
X015189Y025918D01*
X015042Y025918D02*
X015042Y024107D01*
X015189Y024107D01*
X015540Y024762D02*
X016040Y024762D01*
X015790Y024825D02*
X016040Y025262D01*
X015540Y025262D01*
X015790Y024825D01*
X016391Y024107D02*
X016538Y024107D01*
X016538Y025918D01*
X016391Y025918D01*
X016917Y025918D02*
X017064Y025918D01*
X016917Y025918D02*
X016917Y024107D01*
X017064Y024107D01*
X017415Y024762D02*
X017915Y024762D01*
X017665Y024825D02*
X017915Y025262D01*
X017415Y025262D01*
X017665Y024825D01*
X018266Y024107D02*
X018413Y024107D01*
X018413Y025918D01*
X018266Y025918D01*
X014660Y025689D02*
X014658Y025647D01*
X014653Y025605D01*
X014644Y025564D01*
X014632Y025524D01*
X014617Y025485D01*
X014598Y025448D01*
X014576Y025412D01*
X011004Y025412D02*
X010982Y025448D01*
X010963Y025485D01*
X010948Y025524D01*
X010936Y025564D01*
X010927Y025605D01*
X010922Y025647D01*
X010920Y025689D01*
X010168Y025146D02*
X007412Y025146D01*
X007412Y026878D01*
X010168Y026878D01*
X010168Y025146D01*
X010040Y024137D02*
X009665Y024137D01*
X010040Y024137D02*
X010040Y021137D01*
X009665Y021137D01*
X008165Y021137D02*
X007790Y021137D01*
X007790Y024137D01*
X008165Y024137D01*
X006669Y024887D02*
X006704Y025030D01*
X006802Y025140D01*
X006940Y025193D01*
X007086Y025175D01*
X007208Y025091D01*
X007276Y024961D01*
X007276Y024813D01*
X007208Y024683D01*
X007086Y024599D01*
X006940Y024581D01*
X006802Y024634D01*
X006704Y024744D01*
X006669Y024887D01*
X006669Y026887D02*
X006704Y027030D01*
X006802Y027140D01*
X006940Y027193D01*
X007086Y027175D01*
X007208Y027091D01*
X007276Y026961D01*
X007276Y026813D01*
X007208Y026683D01*
X007086Y026599D01*
X006940Y026581D01*
X006802Y026634D01*
X006704Y026744D01*
X006669Y026887D01*
X008954Y027462D02*
X009375Y027462D01*
X009375Y028062D02*
X008954Y028062D01*
X010677Y028927D02*
X010677Y029348D01*
X011277Y029348D02*
X011277Y028927D01*
X011004Y027238D02*
X010982Y027202D01*
X010963Y027165D01*
X010948Y027126D01*
X010936Y027086D01*
X010927Y027045D01*
X010922Y027003D01*
X010920Y026961D01*
X014590Y022537D02*
X016740Y022537D01*
X016740Y022487D01*
X016740Y021787D01*
X016740Y021737D01*
X014590Y021737D01*
X014573Y021739D01*
X014556Y021743D01*
X014540Y021750D01*
X014526Y021760D01*
X014513Y021773D01*
X014503Y021787D01*
X014496Y021803D01*
X014492Y021820D01*
X014490Y021837D01*
X014490Y022437D01*
X014492Y022454D01*
X014496Y022471D01*
X014503Y022487D01*
X014513Y022501D01*
X014526Y022514D01*
X014540Y022524D01*
X014556Y022531D01*
X014573Y022535D01*
X014590Y022537D01*
X015240Y022137D02*
X015440Y022137D01*
X015440Y022337D01*
X015590Y022337D02*
X015590Y021937D01*
X015740Y021937D01*
X015740Y022337D01*
X015590Y022337D01*
X015440Y022137D02*
X015440Y021937D01*
X015890Y021937D02*
X015890Y022137D01*
X015890Y022337D01*
X015890Y022137D02*
X016090Y022137D01*
X018792Y022661D02*
X020288Y022661D01*
X022165Y022637D02*
X022165Y022137D01*
X022165Y021887D02*
X022165Y021387D01*
X022165Y021137D02*
X022165Y020637D01*
X020288Y020614D02*
X018792Y020614D01*
X018785Y020168D02*
X018785Y019892D01*
X018785Y020168D02*
X019848Y020168D01*
X018785Y018632D02*
X018785Y018357D01*
X019848Y018357D01*
X019915Y018012D02*
X019915Y017512D01*
X019915Y017137D02*
X019915Y016637D01*
X017319Y016647D02*
X016510Y016647D01*
X016515Y017627D02*
X017309Y017627D01*
X014290Y019637D02*
X014290Y019887D01*
X014040Y019887D01*
X014290Y020387D01*
X014040Y020387D01*
X013790Y019887D01*
X014040Y019887D01*
X014290Y019887D02*
X014290Y020387D01*
X014290Y020637D01*
X014040Y020387D02*
X013790Y020387D01*
X013540Y019887D01*
X013790Y019887D01*
X013540Y019887D02*
X013477Y019887D01*
X013415Y019950D01*
X013415Y020106D01*
X013602Y020387D01*
X013477Y020387D01*
X013415Y020325D01*
X013415Y020106D01*
X013602Y020387D02*
X013790Y020387D01*
X014290Y019637D02*
X014334Y019639D01*
X014377Y019645D01*
X014419Y019654D01*
X014461Y019667D01*
X014501Y019684D01*
X014540Y019704D01*
X014577Y019727D01*
X014611Y019754D01*
X014644Y019783D01*
X014673Y019816D01*
X014700Y019850D01*
X014723Y019887D01*
X014743Y019926D01*
X014760Y019966D01*
X014773Y020008D01*
X014782Y020050D01*
X014788Y020093D01*
X014790Y020137D01*
X014540Y020137D01*
X014790Y020137D02*
X014788Y020181D01*
X014782Y020224D01*
X014773Y020266D01*
X014760Y020308D01*
X014743Y020348D01*
X014723Y020387D01*
X014700Y020424D01*
X014673Y020458D01*
X014644Y020491D01*
X014611Y020520D01*
X014577Y020547D01*
X014540Y020570D01*
X014501Y020590D01*
X014461Y020607D01*
X014419Y020620D01*
X014377Y020629D01*
X014334Y020635D01*
X014290Y020637D01*
X005494Y020415D02*
X005494Y021360D01*
X003211Y021360D01*
X003211Y020415D01*
X005494Y020415D01*
X009954Y014462D02*
X010375Y014462D01*
X010375Y013562D02*
X009954Y013562D01*
X009905Y013010D02*
X009905Y012790D01*
X009905Y013010D02*
X010225Y013010D01*
X009905Y012110D02*
X009905Y011890D01*
X010225Y011890D01*
X009790Y010637D02*
X009790Y010387D01*
X010040Y010387D01*
X009790Y009887D01*
X010040Y009887D01*
X010290Y010387D01*
X010040Y010387D01*
X010290Y010387D02*
X010540Y010387D01*
X010290Y009887D01*
X010477Y009887D01*
X010665Y010169D01*
X010665Y010325D01*
X010602Y010387D01*
X010540Y010387D01*
X010665Y010169D02*
X010665Y009950D01*
X010602Y009887D01*
X010477Y009887D01*
X010290Y009887D02*
X010040Y009887D01*
X009790Y009887D02*
X009790Y010387D01*
X009290Y010137D02*
X009292Y010093D01*
X009298Y010050D01*
X009307Y010008D01*
X009320Y009966D01*
X009337Y009926D01*
X009357Y009887D01*
X009380Y009850D01*
X009407Y009816D01*
X009436Y009783D01*
X009469Y009754D01*
X009503Y009727D01*
X009540Y009704D01*
X009579Y009684D01*
X009619Y009667D01*
X009661Y009654D01*
X009703Y009645D01*
X009746Y009639D01*
X009790Y009637D01*
X009790Y009887D01*
X009290Y010137D02*
X009292Y010181D01*
X009298Y010224D01*
X009307Y010266D01*
X009320Y010308D01*
X009337Y010348D01*
X009357Y010387D01*
X009380Y010424D01*
X009407Y010458D01*
X009436Y010491D01*
X009469Y010520D01*
X009503Y010547D01*
X009540Y010570D01*
X009579Y010590D01*
X009619Y010607D01*
X009661Y010620D01*
X009703Y010629D01*
X009746Y010635D01*
X009790Y010637D01*
X009540Y010137D02*
X009290Y010137D01*
X009915Y007762D02*
X009915Y007262D01*
X011575Y006898D02*
X013254Y006898D01*
X013254Y003127D01*
X011575Y003127D01*
X011575Y006898D01*
X009915Y006512D02*
X009915Y006012D01*
X013040Y007262D02*
X013040Y007762D01*
X015165Y006512D02*
X015165Y006012D01*
X015165Y005387D02*
X015165Y004887D01*
X017040Y004137D02*
X017040Y003637D01*
X017040Y002887D02*
X017040Y002387D01*
X016149Y003111D02*
X016140Y003171D01*
X016127Y003230D01*
X016110Y003288D01*
X016090Y003345D01*
X016067Y003401D01*
X016040Y003456D01*
X016010Y003508D01*
X015976Y003559D01*
X015940Y003607D01*
X015901Y003653D01*
X015859Y003697D01*
X015814Y003738D01*
X015767Y003776D01*
X015718Y003812D01*
X015667Y003844D01*
X015614Y003873D01*
X015559Y003899D01*
X015952Y002422D02*
X015914Y002374D01*
X015873Y002329D01*
X015830Y002287D01*
X015784Y002247D01*
X015735Y002210D01*
X015685Y002176D01*
X015632Y002146D01*
X015578Y002119D01*
X015522Y002095D01*
X015464Y002075D01*
X015406Y002058D01*
X015346Y002045D01*
X015286Y002036D01*
X015226Y002030D01*
X015165Y002028D01*
X015104Y002030D01*
X015044Y002036D01*
X014984Y002045D01*
X014924Y002058D01*
X014866Y002075D01*
X014808Y002095D01*
X014752Y002119D01*
X014698Y002146D01*
X014645Y002176D01*
X014595Y002210D01*
X014546Y002247D01*
X014500Y002287D01*
X014457Y002329D01*
X014416Y002374D01*
X014378Y002422D01*
X014181Y003111D02*
X014190Y003171D01*
X014203Y003230D01*
X014220Y003288D01*
X014240Y003345D01*
X014263Y003401D01*
X014290Y003456D01*
X014320Y003508D01*
X014354Y003559D01*
X014390Y003607D01*
X014429Y003653D01*
X014471Y003697D01*
X014516Y003738D01*
X014563Y003776D01*
X014612Y003812D01*
X014663Y003844D01*
X014716Y003873D01*
X014771Y003899D01*
X017875Y004879D02*
X017875Y006895D01*
X019954Y006895D01*
X019954Y004879D01*
X017875Y004879D01*
X022290Y005700D02*
X022790Y005700D01*
X023290Y005700D02*
X023790Y005700D01*
X024290Y005700D02*
X024790Y005700D01*
X026102Y005387D02*
X026102Y004887D01*
X028165Y004887D02*
X028165Y005387D01*
X029196Y005794D02*
X029196Y006481D01*
X030633Y006481D01*
X030633Y005794D01*
X029196Y005794D01*
X029915Y005387D02*
X029915Y004887D01*
X026758Y006237D02*
X026071Y006237D01*
X026297Y006355D02*
X026297Y006670D01*
X026533Y006512D01*
X026297Y006355D01*
X026071Y006788D02*
X026758Y006788D01*
X026102Y007137D02*
X026102Y007637D01*
X027540Y007637D02*
X027540Y007137D01*
X029167Y006875D02*
X030663Y006875D01*
X030663Y007899D02*
X029167Y007899D01*
X029160Y008422D02*
X030420Y008422D01*
X030420Y009603D02*
X029160Y009603D01*
X028290Y009943D02*
X028290Y010443D01*
X027840Y010718D02*
X030840Y010718D01*
X030857Y010720D01*
X030874Y010724D01*
X030890Y010731D01*
X030904Y010741D01*
X030917Y010754D01*
X030927Y010768D01*
X030934Y010784D01*
X030938Y010801D01*
X030940Y010818D01*
X030940Y011818D01*
X030938Y011835D01*
X030934Y011852D01*
X030927Y011868D01*
X030917Y011882D01*
X030904Y011895D01*
X030890Y011905D01*
X030874Y011912D01*
X030857Y011916D01*
X030840Y011918D01*
X027840Y011918D01*
X027840Y011868D01*
X027840Y010768D01*
X027840Y010718D01*
X028740Y011318D02*
X028940Y011318D01*
X028940Y011018D01*
X029090Y011018D02*
X029240Y011018D01*
X029240Y011618D01*
X029090Y011618D01*
X029090Y011018D01*
X029390Y011018D02*
X029390Y011318D01*
X029590Y011318D01*
X029390Y011318D02*
X029390Y011618D01*
X028940Y011618D02*
X028940Y011318D01*
X028290Y012193D02*
X028290Y012693D01*
X028290Y013262D02*
X028290Y013762D01*
X030621Y014306D02*
X030621Y017219D01*
X030190Y017419D02*
X030190Y018106D01*
X029915Y017880D02*
X029757Y017644D01*
X030072Y017644D01*
X029915Y017880D01*
X029639Y018106D02*
X029639Y017419D01*
X029350Y017447D02*
X029350Y017127D01*
X029130Y017127D01*
X028450Y017127D02*
X028230Y017127D01*
X028230Y017447D01*
X027915Y017387D02*
X027415Y017387D01*
X026750Y017297D02*
X026750Y017100D01*
X026455Y017100D01*
X025790Y018008D02*
X025790Y018408D01*
X025590Y018208D02*
X025990Y018208D01*
X026455Y018675D02*
X026750Y018675D01*
X026750Y018478D01*
X026665Y020012D02*
X027165Y020012D01*
X027915Y020012D02*
X028415Y020012D01*
X029165Y020012D02*
X029665Y020012D01*
X030877Y019375D02*
X030877Y023162D01*
X030879Y023179D01*
X030883Y023196D01*
X030890Y023212D01*
X030900Y023226D01*
X030913Y023239D01*
X030927Y023249D01*
X030943Y023256D01*
X030960Y023260D01*
X030977Y023262D01*
X031977Y023262D01*
X031994Y023260D01*
X032011Y023256D01*
X032027Y023249D01*
X032041Y023239D01*
X032054Y023226D01*
X032064Y023212D01*
X032071Y023196D01*
X032075Y023179D01*
X032077Y023162D01*
X032077Y019375D01*
X032027Y019375D01*
X030927Y019375D01*
X030877Y019375D01*
X031477Y020865D02*
X031477Y021065D01*
X031777Y021065D01*
X031777Y021215D02*
X031777Y021365D01*
X031177Y021365D01*
X031177Y021215D01*
X031777Y021215D01*
X031777Y021515D02*
X031477Y021515D01*
X031477Y021715D01*
X031477Y021515D02*
X031177Y021515D01*
X031177Y021065D02*
X031477Y021065D01*
X033290Y021012D02*
X033790Y021012D01*
X034540Y021012D02*
X035040Y021012D01*
X035782Y020231D02*
X035782Y019044D01*
X036548Y019044D02*
X036548Y020231D01*
X037282Y020231D02*
X037282Y019044D01*
X038048Y019044D02*
X038048Y020231D01*
X038915Y020412D02*
X038915Y020812D01*
X038915Y020412D02*
X038917Y020395D01*
X038921Y020378D01*
X038928Y020362D01*
X038938Y020348D01*
X038951Y020335D01*
X038965Y020325D01*
X038981Y020318D01*
X038998Y020314D01*
X039015Y020312D01*
X043315Y020312D01*
X043332Y020314D01*
X043349Y020318D01*
X043365Y020325D01*
X043379Y020335D01*
X043392Y020348D01*
X043402Y020362D01*
X043409Y020378D01*
X043413Y020395D01*
X043415Y020412D01*
X043415Y020812D01*
X044407Y020356D02*
X044407Y019169D01*
X045173Y019169D02*
X045173Y020356D01*
X046262Y020392D02*
X046262Y019132D01*
X047443Y019132D02*
X047443Y020392D01*
X049531Y020315D02*
X049531Y020594D01*
X050599Y020594D01*
X048415Y021637D02*
X047915Y021637D01*
X043415Y021712D02*
X043415Y022112D01*
X043413Y022129D01*
X043409Y022146D01*
X043402Y022162D01*
X043392Y022176D01*
X043379Y022189D01*
X043365Y022199D01*
X043349Y022206D01*
X043332Y022210D01*
X043315Y022212D01*
X039015Y022212D01*
X038998Y022210D01*
X038981Y022206D01*
X038965Y022199D01*
X038951Y022189D01*
X038938Y022176D01*
X038928Y022162D01*
X038921Y022146D01*
X038917Y022129D01*
X038915Y022112D01*
X038915Y021712D01*
X040715Y021262D02*
X040915Y021262D01*
X040915Y021012D01*
X041065Y021012D02*
X041265Y021012D01*
X041265Y021512D01*
X041065Y021512D01*
X041065Y021012D01*
X040915Y021262D02*
X040915Y021512D01*
X041415Y021512D02*
X041415Y021262D01*
X041615Y021262D01*
X041415Y021262D02*
X041415Y021012D01*
X041165Y019387D02*
X041165Y018887D01*
X042790Y018887D02*
X042790Y019387D01*
X039540Y019387D02*
X039540Y018887D01*
X042478Y017219D02*
X042478Y014306D01*
X043602Y014306D02*
X043602Y017022D01*
X043602Y017219D01*
X049531Y018805D02*
X049531Y019084D01*
X049531Y018805D02*
X050599Y018805D01*
X050728Y017219D02*
X050728Y017022D01*
X050728Y014306D01*
X050880Y012642D02*
X050880Y011382D01*
X049699Y011382D02*
X049699Y012642D01*
X049040Y012012D02*
X048540Y012012D01*
X048165Y012012D02*
X047665Y012012D01*
X047290Y012012D02*
X046790Y012012D01*
X046415Y012012D02*
X045915Y012012D01*
X045255Y012580D02*
X045255Y011320D01*
X044074Y011320D02*
X044074Y012580D01*
X043665Y012012D02*
X043165Y012012D01*
X042415Y012012D02*
X041915Y012012D01*
X041165Y012012D02*
X040665Y012012D01*
X039915Y012012D02*
X039415Y012012D01*
X038665Y012012D02*
X038165Y012012D01*
X037165Y012012D02*
X036665Y012012D01*
X035755Y012642D02*
X035755Y011382D01*
X034574Y011382D02*
X034574Y012642D01*
X033915Y012012D02*
X033415Y012012D01*
X032915Y012012D02*
X032415Y012012D01*
X031915Y012012D02*
X031415Y012012D01*
X035208Y014306D02*
X035208Y017219D01*
X036352Y017219D02*
X036352Y014306D01*
X036915Y010262D02*
X037415Y010262D01*
X038165Y010262D02*
X038665Y010262D01*
X039415Y010262D02*
X039915Y010262D01*
X040665Y010262D02*
X041165Y010262D01*
X041915Y010262D02*
X042415Y010262D01*
X043165Y010262D02*
X043665Y010262D01*
X041665Y009044D02*
X041665Y008294D01*
X039915Y008294D01*
X038165Y008294D01*
X038165Y009044D01*
X039915Y009044D01*
X041665Y009044D01*
X042665Y008887D02*
X042665Y008387D01*
X042665Y007637D02*
X042665Y007137D01*
X042665Y006387D02*
X042665Y005887D01*
X042665Y005137D02*
X042665Y004637D01*
X042665Y003887D02*
X042665Y003387D01*
X042665Y002637D02*
X042665Y002137D01*
X044415Y002137D02*
X044415Y002637D01*
X044415Y003387D02*
X044415Y003887D01*
X044415Y004637D02*
X044415Y005137D01*
X044415Y005887D02*
X044415Y006387D01*
X044415Y007137D02*
X044415Y007637D01*
X044415Y008387D02*
X044415Y008887D01*
X046165Y007637D02*
X046165Y007137D01*
X046165Y006387D02*
X046165Y005887D01*
X046165Y005137D02*
X046165Y004637D01*
X046165Y003887D02*
X046165Y003387D01*
X046165Y002637D02*
X046165Y002137D01*
X047915Y002137D02*
X047915Y002637D01*
X047915Y003387D02*
X047915Y003887D01*
X047915Y004637D02*
X047915Y005137D01*
X047915Y005887D02*
X047915Y006387D01*
X047915Y007137D02*
X047915Y007637D01*
X048663Y008364D02*
X047167Y008364D01*
X049665Y007637D02*
X049665Y007137D01*
X049665Y006387D02*
X049665Y005887D01*
X049792Y005661D02*
X051288Y005661D01*
X051415Y005887D02*
X051415Y006387D01*
X051415Y007137D02*
X051415Y007637D01*
X053165Y007637D02*
X053165Y007137D01*
X053165Y006387D02*
X053165Y005887D01*
X053165Y005137D02*
X053165Y004637D01*
X053165Y003887D02*
X053165Y003387D01*
X053165Y002637D02*
X053165Y002137D01*
X051288Y002114D02*
X049792Y002114D01*
X054915Y002137D02*
X054915Y002637D01*
X054915Y003387D02*
X054915Y003887D01*
X054915Y004637D02*
X054915Y005137D01*
X054915Y005887D02*
X054915Y006387D01*
X054915Y007137D02*
X054915Y007637D01*
X056665Y007637D02*
X056665Y007137D01*
X056665Y006387D02*
X056665Y005887D01*
X056665Y005137D02*
X056665Y004637D01*
X056665Y003887D02*
X056665Y003387D01*
X056665Y002637D02*
X056665Y002137D01*
X058415Y002137D02*
X058415Y002637D01*
X058415Y003387D02*
X058415Y003887D01*
X058415Y004637D02*
X058415Y005137D01*
X058415Y005887D02*
X058415Y006387D01*
X058415Y007137D02*
X058415Y007637D01*
X058415Y008387D02*
X058415Y008887D01*
X058415Y009637D02*
X058415Y010137D01*
X057403Y011906D02*
X057429Y011961D01*
X057458Y012014D01*
X057490Y012065D01*
X057526Y012114D01*
X057564Y012161D01*
X057605Y012206D01*
X057649Y012248D01*
X057695Y012287D01*
X057743Y012323D01*
X057794Y012357D01*
X057846Y012387D01*
X057901Y012414D01*
X057957Y012437D01*
X058014Y012457D01*
X058072Y012474D01*
X058131Y012487D01*
X058191Y012496D01*
X058880Y012299D02*
X058928Y012261D01*
X058973Y012220D01*
X059015Y012177D01*
X059055Y012131D01*
X059092Y012082D01*
X059126Y012032D01*
X059156Y011979D01*
X059183Y011925D01*
X059207Y011869D01*
X059227Y011811D01*
X059244Y011753D01*
X059257Y011693D01*
X059266Y011633D01*
X059272Y011573D01*
X059274Y011512D01*
X059272Y011451D01*
X059266Y011391D01*
X059257Y011331D01*
X059244Y011271D01*
X059227Y011213D01*
X059207Y011155D01*
X059183Y011099D01*
X059156Y011045D01*
X059126Y010992D01*
X059092Y010942D01*
X059055Y010893D01*
X059015Y010847D01*
X058973Y010804D01*
X058928Y010763D01*
X058880Y010725D01*
X058191Y010528D02*
X058131Y010537D01*
X058072Y010550D01*
X058014Y010567D01*
X057957Y010587D01*
X057901Y010610D01*
X057846Y010637D01*
X057794Y010667D01*
X057743Y010701D01*
X057695Y010737D01*
X057649Y010776D01*
X057605Y010818D01*
X057564Y010863D01*
X057526Y010910D01*
X057490Y010959D01*
X057458Y011010D01*
X057429Y011063D01*
X057403Y011118D01*
X061037Y011167D02*
X061037Y010281D01*
X061037Y009494D02*
X061037Y008608D01*
X061923Y008608D01*
X061923Y008167D02*
X061037Y008167D01*
X061037Y007281D01*
X061037Y006494D02*
X061037Y005608D01*
X061923Y005608D01*
X061923Y005167D02*
X061037Y005167D01*
X061037Y004281D01*
X061037Y003494D02*
X061037Y002608D01*
X061923Y002608D01*
X062907Y002608D02*
X063793Y002608D01*
X063793Y003494D01*
X063793Y003001D01*
X063793Y003494D02*
X063793Y005167D01*
X062907Y005167D01*
X062907Y005608D02*
X063793Y005608D01*
X063793Y006494D01*
X063793Y006001D01*
X063793Y006494D02*
X063793Y008167D01*
X062907Y008167D01*
X062907Y008608D02*
X063793Y008608D01*
X063793Y009494D01*
X063793Y009001D01*
X063793Y009494D02*
X063793Y011167D01*
X062907Y011167D01*
X061923Y011167D02*
X061037Y011167D01*
X063793Y011608D02*
X063793Y012494D01*
X053540Y010512D02*
X053415Y010762D01*
X053290Y010512D01*
X053540Y010512D01*
X053040Y010012D02*
X053040Y009762D01*
X052790Y009262D01*
X053040Y009262D01*
X053040Y009012D01*
X053040Y009262D02*
X053040Y009762D01*
X052790Y009762D01*
X052540Y009262D01*
X052790Y009262D01*
X052540Y009262D02*
X052290Y009262D01*
X052540Y009762D01*
X052352Y009762D01*
X052165Y009481D01*
X052165Y009325D01*
X052227Y009262D01*
X052290Y009262D01*
X052165Y009481D02*
X052165Y009700D01*
X052227Y009762D01*
X052352Y009762D01*
X052540Y009762D02*
X052790Y009762D01*
X053040Y009012D02*
X053084Y009014D01*
X053127Y009020D01*
X053169Y009029D01*
X053211Y009042D01*
X053251Y009059D01*
X053290Y009079D01*
X053327Y009102D01*
X053361Y009129D01*
X053394Y009158D01*
X053423Y009191D01*
X053450Y009225D01*
X053473Y009262D01*
X053493Y009301D01*
X053510Y009341D01*
X053523Y009383D01*
X053532Y009425D01*
X053538Y009468D01*
X053540Y009512D01*
X053290Y009512D01*
X053540Y009512D02*
X053538Y009556D01*
X053532Y009599D01*
X053523Y009641D01*
X053510Y009683D01*
X053493Y009723D01*
X053473Y009762D01*
X053450Y009799D01*
X053423Y009833D01*
X053394Y009866D01*
X053361Y009895D01*
X053327Y009922D01*
X053290Y009945D01*
X053251Y009965D01*
X053211Y009982D01*
X053169Y009995D01*
X053127Y010004D01*
X053084Y010010D01*
X053040Y010012D01*
X050540Y010262D02*
X050540Y009762D01*
X048663Y010411D02*
X047167Y010411D01*
X039915Y009044D02*
X039915Y008294D01*
X037165Y007637D02*
X037165Y007137D01*
X037165Y006387D02*
X037165Y005887D01*
X037165Y005137D02*
X037165Y004637D01*
X037165Y003887D02*
X037165Y003387D01*
X037165Y002637D02*
X037165Y002137D01*
X035415Y002137D02*
X035415Y002637D01*
X035415Y003387D02*
X035415Y003887D01*
X035415Y004637D02*
X035415Y005137D01*
X035415Y005887D02*
X035415Y006387D01*
X035415Y007137D02*
X035415Y007637D01*
X035946Y008549D02*
X036633Y008549D01*
X036408Y008667D02*
X036172Y008825D01*
X036408Y008982D01*
X036408Y008667D01*
X036633Y009100D02*
X035946Y009100D01*
X034258Y009208D02*
X033071Y009208D01*
X033071Y008442D02*
X034258Y008442D01*
X033665Y007637D02*
X033665Y007137D01*
X033665Y006387D02*
X033665Y005887D01*
X033665Y005137D02*
X033665Y004637D01*
X033665Y003887D02*
X033665Y003387D01*
X033665Y002637D02*
X033665Y002137D01*
X039167Y002114D02*
X040663Y002114D01*
X040663Y005661D02*
X039167Y005661D01*
X039915Y005887D02*
X039915Y006387D01*
X028229Y008520D02*
X026851Y008520D01*
X026851Y009504D02*
X028229Y009504D01*
X025270Y008907D02*
X019979Y008907D01*
X019809Y009077D01*
X019809Y014368D01*
X025270Y014368D01*
X025270Y008907D01*
X018787Y008947D02*
X018787Y008627D01*
X018528Y008627D01*
X017927Y008627D02*
X017667Y008627D01*
X017667Y008947D01*
X017255Y008382D02*
X017255Y009642D01*
X016074Y009642D02*
X016074Y008382D01*
X017665Y010325D02*
X017665Y010825D01*
X017665Y011137D02*
X017665Y011637D01*
X017352Y012700D02*
X017352Y013200D01*
X017352Y013575D02*
X017352Y014075D01*
X014165Y013137D02*
X014165Y012887D01*
X013915Y013012D01*
X014165Y013137D01*
X026455Y017100D02*
X026413Y016975D01*
X026365Y016853D01*
X026312Y016733D01*
X026252Y016616D01*
X026187Y016502D01*
X026117Y016392D01*
X026041Y016285D01*
X025960Y016182D01*
X025873Y016083D01*
X025783Y015988D01*
X025687Y015898D01*
X025588Y015812D01*
X025484Y015732D01*
X025377Y015657D01*
X025265Y015587D01*
X025151Y015522D01*
X025034Y015464D01*
X024914Y015411D01*
X024791Y015364D01*
X024666Y015323D01*
X024540Y015289D01*
X024412Y015260D01*
X024282Y015238D01*
X024152Y015222D01*
X024021Y015213D01*
X023890Y015210D01*
X023759Y015214D01*
X023628Y015223D01*
X023498Y015240D01*
X023369Y015262D01*
X023241Y015291D01*
X023114Y015327D01*
X022990Y015368D01*
X022867Y015415D01*
X022748Y015469D01*
X022631Y015528D01*
X022516Y015593D01*
X022406Y015663D01*
X022299Y015739D01*
X022195Y015820D01*
X022096Y015906D01*
X022001Y015996D01*
X021911Y016091D01*
X021825Y016191D01*
X021744Y016294D01*
X021669Y016402D01*
X021599Y016512D01*
X021534Y016627D01*
X021475Y016744D01*
X021422Y016864D01*
X021375Y016986D01*
X021334Y017111D01*
X021299Y017237D01*
X021270Y017365D01*
X021248Y017495D01*
X021232Y017625D01*
X021222Y017756D01*
X021219Y017887D01*
X021222Y018018D01*
X021232Y018149D01*
X021248Y018279D01*
X021270Y018409D01*
X021299Y018537D01*
X021334Y018663D01*
X021375Y018788D01*
X021422Y018910D01*
X021475Y019030D01*
X021534Y019147D01*
X021599Y019262D01*
X021669Y019372D01*
X021744Y019480D01*
X021825Y019583D01*
X021911Y019683D01*
X022001Y019778D01*
X022096Y019868D01*
X022195Y019954D01*
X022299Y020035D01*
X022406Y020111D01*
X022516Y020181D01*
X022631Y020246D01*
X022748Y020305D01*
X022867Y020359D01*
X022990Y020406D01*
X023114Y020447D01*
X023241Y020483D01*
X023369Y020512D01*
X023498Y020534D01*
X023628Y020551D01*
X023759Y020560D01*
X023890Y020564D01*
X024021Y020561D01*
X024152Y020552D01*
X024282Y020536D01*
X024412Y020514D01*
X024540Y020485D01*
X024666Y020451D01*
X024791Y020410D01*
X024914Y020363D01*
X025034Y020310D01*
X025151Y020252D01*
X025265Y020187D01*
X025377Y020117D01*
X025484Y020042D01*
X025588Y019962D01*
X025687Y019876D01*
X025783Y019786D01*
X025873Y019691D01*
X025960Y019592D01*
X026041Y019489D01*
X026117Y019382D01*
X026187Y019272D01*
X026252Y019158D01*
X026312Y019041D01*
X026365Y018921D01*
X026413Y018799D01*
X026455Y018674D01*
X025815Y021669D02*
X025815Y022356D01*
X025697Y022130D02*
X025540Y021894D01*
X025382Y022130D01*
X025697Y022130D01*
X025264Y022356D02*
X025264Y021669D01*
X026665Y022012D02*
X027165Y022012D01*
X027915Y022012D02*
X028415Y022012D01*
X029165Y022012D02*
X029665Y022012D01*
X028445Y023514D02*
X026634Y023514D01*
X026634Y023661D01*
X027290Y024012D02*
X027290Y024512D01*
X027352Y024262D02*
X027790Y024512D01*
X027790Y024012D01*
X027352Y024262D01*
X026634Y024863D02*
X026634Y025010D01*
X028445Y025010D01*
X028445Y024863D01*
X028445Y023661D02*
X028445Y023514D01*
X033290Y019512D02*
X033790Y019512D01*
X034540Y019512D02*
X035040Y019512D01*
X052790Y023887D02*
X052790Y027512D01*
X025790Y002137D02*
X025665Y001887D01*
X025915Y001887D01*
X025790Y002137D01*
X021665Y001887D02*
X021415Y001887D01*
X021540Y002137D01*
X021665Y001887D01*
D15*
X054062Y014542D02*
X054322Y014542D01*
X054322Y014716D01*
X054322Y014837D02*
X054062Y015010D01*
X054062Y015132D02*
X054062Y015262D01*
X054105Y015305D01*
X054192Y015305D01*
X054236Y015262D01*
X054236Y015132D01*
X054322Y015132D02*
X054062Y015132D01*
X054322Y015010D02*
X054062Y014837D01*
X054062Y014716D02*
X054062Y014542D01*
X054192Y014542D02*
X054192Y014629D01*
X054192Y015426D02*
X054192Y015600D01*
X054149Y015600D02*
X054322Y015600D01*
X054322Y015721D02*
X054062Y015721D01*
X054322Y015894D01*
X054062Y015894D01*
X054105Y016016D02*
X054149Y016016D01*
X054192Y016059D01*
X054192Y016146D01*
X054236Y016189D01*
X054279Y016189D01*
X054322Y016146D01*
X054322Y016059D01*
X054279Y016016D01*
X054105Y016016D02*
X054062Y016059D01*
X054062Y016146D01*
X054105Y016189D01*
X054062Y016310D02*
X054062Y016397D01*
X054062Y016354D02*
X054322Y016354D01*
X054322Y016397D02*
X054322Y016310D01*
X054279Y016507D02*
X054322Y016550D01*
X054322Y016637D01*
X054279Y016680D01*
X054105Y016680D01*
X054062Y016637D01*
X054062Y016550D01*
X054105Y016507D01*
X054279Y016507D01*
X054322Y016801D02*
X054062Y016801D01*
X054322Y016975D01*
X054062Y016975D01*
X054062Y017391D02*
X054062Y017477D01*
X054062Y017434D02*
X054322Y017434D01*
X054322Y017391D02*
X054322Y017477D01*
X054322Y017587D02*
X054062Y017760D01*
X054105Y017882D02*
X054279Y017882D01*
X054322Y017925D01*
X054322Y018012D01*
X054279Y018055D01*
X054105Y018055D01*
X054062Y018012D01*
X054062Y017925D01*
X054105Y017882D01*
X054149Y015600D02*
X054062Y015513D01*
X054149Y015426D01*
X054322Y015426D01*
X042584Y028667D02*
X042627Y028711D01*
X042627Y028884D01*
X042584Y028927D01*
X042454Y028927D01*
X042454Y028667D01*
X042584Y028667D01*
X042332Y028667D02*
X042332Y028927D01*
X042159Y028927D02*
X042332Y028667D01*
X042159Y028667D02*
X042159Y028927D01*
X042038Y028884D02*
X041994Y028927D01*
X041908Y028927D01*
X041864Y028884D01*
X041864Y028711D01*
X041908Y028667D01*
X041994Y028667D01*
X042038Y028711D01*
X042038Y028797D01*
X041951Y028797D01*
X041743Y028797D02*
X041570Y028797D01*
X041570Y028841D02*
X041656Y028927D01*
X041743Y028841D01*
X041743Y028667D01*
X041570Y028667D02*
X041570Y028841D01*
X039002Y028884D02*
X038959Y028927D01*
X038829Y028927D01*
X038829Y028667D01*
X038959Y028667D01*
X039002Y028711D01*
X039002Y028884D01*
X038707Y028927D02*
X038707Y028667D01*
X038534Y028927D01*
X038534Y028667D01*
X038413Y028711D02*
X038369Y028667D01*
X038283Y028667D01*
X038239Y028711D01*
X038239Y028884D01*
X038283Y028927D01*
X038369Y028927D01*
X038413Y028884D01*
X038413Y028797D02*
X038326Y028797D01*
X038413Y028797D02*
X038413Y028711D01*
X038118Y028711D02*
X038075Y028667D01*
X037945Y028667D01*
X037945Y028927D01*
X038075Y028927D01*
X038118Y028884D01*
X038118Y028711D01*
D16*
X029721Y009007D03*
D17*
X029852Y026012D03*
X029852Y028012D03*
D18*
X029852Y027012D03*
D19*
X011974Y021793D02*
X012010Y021998D01*
X012114Y022179D01*
X012274Y022313D01*
X012470Y022384D01*
X012678Y022384D01*
X012874Y022313D01*
X013034Y022179D01*
X013138Y021998D01*
X013174Y021793D01*
X013138Y021588D01*
X013034Y021407D01*
X012874Y021273D01*
X012678Y021202D01*
X012470Y021202D01*
X012274Y021273D01*
X012114Y021407D01*
X012010Y021588D01*
X011974Y021793D01*
X011974Y010251D02*
X012010Y010456D01*
X012114Y010637D01*
X012274Y010771D01*
X012470Y010842D01*
X012678Y010842D01*
X012874Y010771D01*
X013034Y010637D01*
X013138Y010456D01*
X013174Y010251D01*
X013138Y010046D01*
X013034Y009865D01*
X012874Y009731D01*
X012678Y009660D01*
X012470Y009660D01*
X012274Y009731D01*
X012114Y009865D01*
X012010Y010046D01*
X011974Y010251D01*
X054743Y010250D02*
X054779Y010455D01*
X054883Y010636D01*
X055043Y010770D01*
X055239Y010841D01*
X055447Y010841D01*
X055643Y010770D01*
X055803Y010636D01*
X055907Y010455D01*
X055943Y010250D01*
X055907Y010045D01*
X055803Y009864D01*
X055643Y009730D01*
X055447Y009659D01*
X055239Y009659D01*
X055043Y009730D01*
X054883Y009864D01*
X054779Y010045D01*
X054743Y010250D01*
X054743Y021793D02*
X054779Y021998D01*
X054883Y022179D01*
X055043Y022313D01*
X055239Y022384D01*
X055447Y022384D01*
X055643Y022313D01*
X055803Y022179D01*
X055907Y021998D01*
X055943Y021793D01*
X055907Y021588D01*
X055803Y021407D01*
X055643Y021273D01*
X055447Y021202D01*
X055239Y021202D01*
X055043Y021273D01*
X054883Y021407D01*
X054779Y021588D01*
X054743Y021793D01*
D20*
X029915Y017920D03*
X025540Y021855D03*
D21*
X035160Y012081D03*
X044660Y012019D03*
X050285Y012081D03*
X046847Y019831D03*
X016670Y008943D03*
D22*
X014165Y012887D02*
X013915Y013012D01*
X014165Y013137D01*
X014165Y012887D01*
X014165Y012895D02*
X014148Y012895D01*
X014165Y012914D02*
X014111Y012914D01*
X014074Y012933D02*
X014165Y012933D01*
X014165Y012951D02*
X014037Y012951D01*
X014000Y012970D02*
X014165Y012970D01*
X014165Y012988D02*
X013963Y012988D01*
X013926Y013007D02*
X014165Y013007D01*
X014165Y013025D02*
X013941Y013025D01*
X013978Y013044D02*
X014165Y013044D01*
X014165Y013062D02*
X014015Y013062D01*
X014052Y013081D02*
X014165Y013081D01*
X014165Y013099D02*
X014089Y013099D01*
X014126Y013118D02*
X014165Y013118D01*
X014163Y013137D02*
X014165Y013137D01*
X021540Y002137D02*
X021415Y001887D01*
X021665Y001887D01*
X021540Y002137D01*
X021547Y002122D02*
X021532Y002122D01*
X021523Y002103D02*
X021557Y002103D01*
X021566Y002085D02*
X021513Y002085D01*
X021504Y002066D02*
X021575Y002066D01*
X021585Y002048D02*
X021495Y002048D01*
X021486Y002029D02*
X021594Y002029D01*
X021603Y002011D02*
X021476Y002011D01*
X021467Y001992D02*
X021612Y001992D01*
X021622Y001973D02*
X021458Y001973D01*
X021449Y001955D02*
X021631Y001955D01*
X021640Y001936D02*
X021439Y001936D01*
X021430Y001918D02*
X021649Y001918D01*
X021659Y001899D02*
X021421Y001899D01*
X025665Y001887D02*
X025790Y002137D01*
X025915Y001887D01*
X025665Y001887D01*
X025671Y001899D02*
X025909Y001899D01*
X025899Y001918D02*
X025680Y001918D01*
X025689Y001936D02*
X025890Y001936D01*
X025881Y001955D02*
X025699Y001955D01*
X025708Y001973D02*
X025872Y001973D01*
X025862Y001992D02*
X025717Y001992D01*
X025726Y002011D02*
X025853Y002011D01*
X025844Y002029D02*
X025736Y002029D01*
X025745Y002048D02*
X025835Y002048D01*
X025825Y002066D02*
X025754Y002066D01*
X025763Y002085D02*
X025816Y002085D01*
X025807Y002103D02*
X025773Y002103D01*
X025782Y002122D02*
X025797Y002122D01*
X053290Y010512D02*
X053415Y010762D01*
X053540Y010512D01*
X053290Y010512D01*
X053295Y010522D02*
X053535Y010522D01*
X053526Y010540D02*
X053304Y010540D01*
X053313Y010559D02*
X053516Y010559D01*
X053507Y010578D02*
X053322Y010578D01*
X053332Y010596D02*
X053498Y010596D01*
X053489Y010615D02*
X053341Y010615D01*
X053350Y010633D02*
X053479Y010633D01*
X053470Y010652D02*
X053359Y010652D01*
X053369Y010670D02*
X053461Y010670D01*
X053451Y010689D02*
X053378Y010689D01*
X053387Y010707D02*
X053442Y010707D01*
X053433Y010726D02*
X053397Y010726D01*
X053406Y010744D02*
X053424Y010744D01*
X063790Y029325D02*
X064540Y029137D01*
X064540Y029512D01*
X063790Y029325D01*
X064540Y029325D01*
X064540Y029343D02*
X063864Y029343D01*
X063864Y029306D02*
X064540Y029306D01*
X064540Y029288D02*
X063938Y029288D01*
X063938Y029362D02*
X064540Y029362D01*
X064540Y029380D02*
X064013Y029380D01*
X064087Y029399D02*
X064540Y029399D01*
X064540Y029418D02*
X064161Y029418D01*
X064235Y029436D02*
X064540Y029436D01*
X064540Y029455D02*
X064309Y029455D01*
X064383Y029473D02*
X064540Y029473D01*
X064540Y029492D02*
X064458Y029492D01*
X064532Y029510D02*
X064540Y029510D01*
X064540Y029269D02*
X064012Y029269D01*
X064086Y029251D02*
X064540Y029251D01*
X064540Y029232D02*
X064160Y029232D01*
X064234Y029214D02*
X064540Y029214D01*
X064540Y029195D02*
X064309Y029195D01*
X064383Y029176D02*
X064540Y029176D01*
X064540Y029158D02*
X064457Y029158D01*
X064531Y029139D02*
X064540Y029139D01*
D23*
X050415Y016825D03*
X042165Y016825D03*
X034915Y016825D03*
X047540Y010137D03*
X050915Y002387D03*
X040290Y002387D03*
X019665Y006075D03*
X019165Y022387D03*
D24*
X036165Y019499D03*
X037665Y019499D03*
X044790Y019900D03*
D25*
X005435Y020887D03*
D26*
X029960Y029751D02*
X030028Y029682D01*
X030165Y029682D01*
X030233Y029751D01*
X030420Y029751D02*
X030488Y029682D01*
X030625Y029682D01*
X030694Y029751D01*
X030694Y030024D01*
X030625Y030093D01*
X030488Y030093D01*
X030420Y030024D01*
X030420Y029751D01*
X030233Y030024D02*
X030165Y030093D01*
X030028Y030093D01*
X029960Y030024D01*
X029960Y029751D01*
X030880Y029819D02*
X031086Y029819D01*
X031154Y029887D01*
X031154Y030024D01*
X031086Y030093D01*
X030880Y030093D01*
X030880Y029682D01*
X031341Y030024D02*
X031478Y029887D01*
X031478Y029682D01*
X031478Y029887D02*
X031614Y030024D01*
X031614Y030093D01*
X031801Y030093D02*
X031801Y029682D01*
X031801Y029819D02*
X032006Y029819D01*
X032075Y029887D01*
X032075Y030024D01*
X032006Y030093D01*
X031801Y030093D01*
X031938Y029819D02*
X032075Y029682D01*
X032261Y029682D02*
X032398Y029682D01*
X032330Y029682D02*
X032330Y030093D01*
X032398Y030093D02*
X032261Y030093D01*
X032568Y030024D02*
X032568Y029751D01*
X032637Y029682D01*
X032774Y029682D01*
X032842Y029751D01*
X032842Y029887D01*
X032705Y029887D01*
X032568Y030024D02*
X032637Y030093D01*
X032774Y030093D01*
X032842Y030024D01*
X033029Y030093D02*
X033029Y029682D01*
X033029Y029887D02*
X033302Y029887D01*
X033302Y029682D02*
X033302Y030093D01*
X033489Y030093D02*
X033763Y030093D01*
X033626Y030093D02*
X033626Y029682D01*
X034078Y029887D02*
X034111Y030033D01*
X034205Y030150D01*
X034340Y030216D01*
X034490Y030216D01*
X034625Y030150D01*
X034719Y030033D01*
X034752Y029887D01*
X034719Y029741D01*
X034625Y029624D01*
X034490Y029558D01*
X034340Y029558D01*
X034205Y029624D01*
X034111Y029741D01*
X034078Y029887D01*
X035085Y030024D02*
X035153Y030093D01*
X035290Y030093D01*
X035358Y030024D01*
X035358Y029956D01*
X035085Y029682D01*
X035358Y029682D01*
X035545Y029751D02*
X035819Y030024D01*
X035819Y029751D01*
X035750Y029682D01*
X035613Y029682D01*
X035545Y029751D01*
X035545Y030024D01*
X035613Y030093D01*
X035750Y030093D01*
X035819Y030024D01*
X036005Y030024D02*
X036074Y030093D01*
X036211Y030093D01*
X036279Y030024D01*
X036005Y029751D01*
X036074Y029682D01*
X036211Y029682D01*
X036279Y029751D01*
X036279Y030024D01*
X036466Y030024D02*
X036466Y029956D01*
X036534Y029887D01*
X036739Y029887D01*
X036739Y029751D02*
X036739Y030024D01*
X036671Y030093D01*
X036534Y030093D01*
X036466Y030024D01*
X036466Y029751D02*
X036534Y029682D01*
X036671Y029682D01*
X036739Y029751D01*
X037028Y029751D02*
X037028Y029682D01*
X037096Y029682D01*
X037096Y029751D01*
X037028Y029751D01*
X037096Y029682D02*
X036960Y029546D01*
X036005Y029751D02*
X036005Y030024D01*
X037727Y030093D02*
X037727Y029682D01*
X037727Y029819D02*
X038001Y030093D01*
X038187Y030024D02*
X038187Y029751D01*
X038256Y029682D01*
X038392Y029682D01*
X038461Y029751D01*
X038461Y029887D01*
X038324Y029887D01*
X038187Y030024D02*
X038256Y030093D01*
X038392Y030093D01*
X038461Y030024D01*
X038648Y029887D02*
X038853Y030093D01*
X038853Y029682D01*
X038921Y029887D02*
X038648Y029887D01*
X039108Y029682D02*
X039108Y030093D01*
X039108Y029682D02*
X039382Y029682D01*
X039568Y029682D02*
X039568Y030093D01*
X039842Y029682D01*
X039842Y030093D01*
X040029Y030093D02*
X040029Y029682D01*
X040302Y029682D01*
X040166Y029887D02*
X040029Y029887D01*
X040029Y030093D02*
X040302Y030093D01*
X038001Y029682D02*
X037795Y029887D01*
X031341Y030024D02*
X031341Y030093D01*
X050210Y029956D02*
X050210Y029682D01*
X050210Y029887D02*
X050483Y029887D01*
X050483Y029956D02*
X050483Y029682D01*
X050670Y029751D02*
X050738Y029682D01*
X050875Y029682D01*
X050944Y029751D01*
X050944Y029819D01*
X050875Y029887D01*
X050738Y029887D01*
X050670Y029956D01*
X050670Y030024D01*
X050738Y030093D01*
X050875Y030093D01*
X050944Y030024D01*
X051130Y030024D02*
X051130Y029956D01*
X051199Y029887D01*
X051336Y029887D01*
X051404Y029819D01*
X051404Y029751D01*
X051336Y029682D01*
X051199Y029682D01*
X051130Y029751D01*
X051130Y030024D02*
X051199Y030093D01*
X051336Y030093D01*
X051404Y030024D01*
X051591Y030024D02*
X051728Y029887D01*
X051728Y029682D01*
X051728Y029887D02*
X051864Y030024D01*
X051864Y030093D01*
X051591Y030093D02*
X051591Y030024D01*
X052460Y030024D02*
X052528Y030093D01*
X052665Y030093D01*
X052733Y030024D01*
X052733Y029956D01*
X052665Y029887D01*
X052733Y029819D01*
X052733Y029751D01*
X052665Y029682D01*
X052528Y029682D01*
X052460Y029751D01*
X052596Y029887D02*
X052665Y029887D01*
X052920Y029682D02*
X053194Y030093D01*
X053380Y030093D02*
X053654Y029682D01*
X053380Y029682D02*
X053654Y030093D01*
X053841Y029887D02*
X054114Y029887D01*
X054301Y029956D02*
X054438Y030093D01*
X054438Y029682D01*
X054301Y029682D02*
X054575Y029682D01*
X054761Y029751D02*
X055035Y030024D01*
X055035Y029751D01*
X054967Y029682D01*
X054830Y029682D01*
X054761Y029751D01*
X054761Y030024D01*
X054830Y030093D01*
X054967Y030093D01*
X055035Y030024D01*
X055222Y030024D02*
X055222Y029751D01*
X055495Y030024D01*
X055495Y029751D01*
X055427Y029682D01*
X055290Y029682D01*
X055222Y029751D01*
X055222Y030024D02*
X055290Y030093D01*
X055427Y030093D01*
X055495Y030024D01*
X053194Y029682D02*
X052920Y030093D01*
X050483Y029956D02*
X050346Y030093D01*
X050210Y029956D01*
D27*
X036132Y008825D03*
X026572Y006512D03*
D28*
X007133Y024887D02*
X006821Y024887D01*
X006977Y024731D02*
X006977Y025044D01*
X006977Y026731D02*
X006977Y027043D01*
D29*
X033527Y008825D03*
D30*
X054515Y027568D02*
X054648Y027434D01*
X054915Y027434D01*
X055048Y027568D01*
X054515Y027568D02*
X054515Y028101D01*
X054648Y028235D01*
X054915Y028235D01*
X055048Y028101D01*
D31*
X053889Y027834D02*
X053928Y028090D01*
X054040Y028324D01*
X054216Y028513D01*
X054441Y028643D01*
X054693Y028701D01*
X054951Y028681D01*
X055193Y028587D01*
X055395Y028425D01*
X055541Y028211D01*
X055617Y027964D01*
X055617Y027704D01*
X055541Y027457D01*
X055395Y027243D01*
X055192Y027081D01*
X054951Y026987D01*
X054693Y026967D01*
X054441Y027025D01*
X054216Y027155D01*
X054040Y027344D01*
X053928Y027578D01*
X053889Y027834D01*
D32*
X020215Y009312D03*
D33*
X044790Y023700D03*
X046790Y023700D03*
X049665Y023700D03*
X051665Y023700D03*
D34*
X050665Y023700D03*
X045790Y023700D03*
D35*
X011892Y006575D03*
M02*
