%
M48
M72
T01C0.0160
T02C0.0240
T03C0.0320
T04C0.0360
T05C0.0400
T06C0.0430
T07C0.0500
T08C0.0560
T09C0.0700
T10C0.1200
%
T01
X10290Y4950
X11915Y3887
X12415Y4137
X12915Y4262
X14102Y4450
X14290Y5137
X16040Y5137
X17415Y5262
X16040Y6262
X13040Y6137
X12915Y5137
X9040Y6262
X11915Y3012
X12477Y3012
X16665Y3262
X17415Y3262
X20102Y5262
X22540Y6637
X23165Y7262
X22665Y7637
X23852Y7700
X24040Y7137
X24915Y7575
X27915Y6762
X26602Y5762
X27290Y5137
X29040Y5137
X31040Y5137
X31040Y3387
X31040Y1637
X34040Y3012
X34540Y2387
X36290Y3637
X38040Y3637
X39727Y3387
X41665Y3387
X41665Y2387
X43540Y3637
X45290Y2387
X47040Y2387
X47040Y3637
X48790Y3887
X50290Y2887
X50790Y3387
X50790Y3887
X52290Y2387
X54040Y3637
X55790Y2387
X57540Y2387
X59415Y1887
X57540Y3637
X57540Y4262
X55790Y4887
X58040Y5512
X57540Y6137
X55790Y6137
X55790Y7387
X54040Y8137
X53665Y8762
X51540Y10012
X52790Y10825
X49665Y10137
X49415Y11262
X49415Y12450
X49415Y13262
X47915Y13262
X46602Y12887
X45540Y12887
X44915Y13262
X43415Y13762
X42165Y13262
X41665Y13262
X41165Y13262
X40165Y13262
X38165Y13262
X35415Y13387
X34290Y12387
X34290Y11262
X33665Y11137
X36290Y11637
X38415Y11137
X42290Y9262
X43540Y9262
X45415Y8637
X46165Y8637
X47915Y8637
X48790Y7387
X50540Y7387
X51040Y8512
X50040Y8637
X46165Y10137
X46165Y10887
X44790Y10512
X43415Y11137
X42727Y11700
X45540Y11575
X49415Y14637
X48415Y15012
X50540Y15137
X50540Y16137
X49915Y16887
X48915Y16887
X49415Y18262
X45165Y18387
X43165Y18387
X44415Y16887
X41977Y16512
X41540Y16200
X40665Y16200
X40165Y16512
X38165Y14762
X35415Y14700
X33415Y14700
X30915Y13262
X29790Y13512
X29165Y13512
X30415Y14075
X27290Y14137
X25915Y15012
X25415Y15012
X25540Y15887
X25290Y16262
X25540Y16637
X24915Y17012
X24915Y17512
X24415Y17887
X23665Y17762
X24415Y18637
X24040Y19012
X22915Y19012
X21165Y19012
X20790Y18637
X21165Y17762
X22540Y16637
X22915Y15512
X22915Y13825
X23477Y13825
X23165Y13262
X22852Y12825
X23790Y12825
X24790Y12512
X25040Y12137
X24790Y11762
X26290Y10637
X25040Y10544
X22227Y11137
X21290Y11262
X20915Y11637
X20040Y11387
X18915Y11200
X20352Y10512
X20790Y10200
X21915Y10200
X21758Y9512
X22071Y9075
X20040Y9387
X17665Y8387
X20102Y7762
X16790Y10575
X16790Y11387
X16352Y12950
X18415Y13825
X19602Y14637
X20102Y13325
X20165Y12512
X26540Y16887
X27665Y18387
X28440Y18512
X28165Y19012
X29290Y18512
X30540Y17637
X32915Y18262
X35290Y16887
X36227Y17387
X35665Y17762
X38165Y18262
X39165Y18387
X37665Y21012
X36165Y21012
X29415Y21012
X28165Y21012
X26915Y21012
X25102Y20137
X24790Y20512
X23040Y20887
X23040Y21637
X23040Y22387
X21290Y22387
X21290Y21387
X21727Y20262
X22602Y20262
X21102Y19700
X19227Y20887
X18415Y20262
X20040Y23137
X26165Y22762
X27540Y22387
X26915Y19012
X11352Y14012
X11165Y12825
X9040Y12450
X8977Y14012
X6415Y20887
X6415Y21512
X33290Y8075
X32165Y7387
X34540Y7387
X36290Y6137
X36290Y4887
X34540Y4887
X39040Y6137
X40790Y6137
X40227Y4887
X38040Y2387
X47040Y6137
X45290Y7387
X52290Y6137
X52290Y5387
X57540Y8637
X59415Y9262
X59790Y8637
X60540Y12012
X63165Y13262
X60165Y14012
X59415Y15012
X58665Y15512
X59040Y16637
X59790Y16637
X58665Y20387
X50790Y22637
X48040Y23012
X46790Y21262
X43915Y22262
X43415Y15012
X54290Y13012
X56290Y12012
X59415Y4262
X63165Y1762
X37665Y8825
X34915Y8825
X23540Y4700
T02
X28665Y8137
X31165Y9012
X31290Y7387
X27040Y9700
X29415Y10387
X29415Y12262
X18540Y17137
X15946Y21387
X15946Y22887
X22852Y24387
X22852Y25012
X22852Y25637
X30571Y21387
X32384Y21387
X37665Y23387
X38415Y23387
X38415Y24012
X37665Y24012
X38290Y27512
X38290Y28012
X40290Y28012
X40290Y27512
X42290Y27512
X42290Y28012
X51915Y21325
X47790Y20387
X45915Y20387
X48040Y19137
X48040Y18637
X50790Y18512
X4040Y30012
T03
X17540Y22637
X17540Y21637
X4852Y20887
X3852Y20887
X27040Y11818
X27040Y10818
X15165Y3800
X15854Y2815
X14476Y2815
X30977Y18575
X31977Y18575
X57502Y11512
X58487Y10823
X58487Y12201
T04
X40915Y7387
X39915Y7387
X38915Y7387
X19415Y3887
X18415Y3887
X18415Y2887
X19415Y2887
X13165Y13012
X12165Y13012
X12165Y14012
X13165Y14012
X13165Y15012
X12165Y15012
X12165Y16012
X13165Y16012
X13165Y17012
X12165Y17012
X12165Y18012
X13165Y18012
X13165Y19012
X12165Y19012
T05
X16915Y18637
X16915Y19637
X22420Y17887
X26554Y17887
X7442Y10442
X6352Y9897
X7442Y9352
X6352Y8807
X7442Y8262
X6352Y7717
X7442Y7172
X6352Y6627
X7442Y6082
X21540Y3887
X22540Y3887
X23540Y3887
X23540Y2887
X22540Y2887
X21540Y2887
X25790Y2887
X26790Y2887
X27790Y2887
X28790Y2887
X29790Y2887
X29790Y3887
X28790Y3887
X27790Y3887
X26790Y3887
X25790Y3887
X52290Y11512
X53290Y11512
X53290Y12512
X52290Y12512
X52290Y13512
X53290Y13512
X53290Y14512
X52290Y14512
X52290Y15512
X53290Y15512
X53290Y16512
X52290Y16512
X52290Y17512
X53290Y17512
X53290Y18512
X52290Y18512
X52290Y19512
X53290Y19512
X53290Y20512
X52290Y20512
X62165Y21762
X62165Y22762
X62165Y23762
X62165Y24762
X62165Y25762
X62165Y26762
X62165Y27762
X62165Y28762
X62415Y19872
X62415Y17903
X62415Y16872
X62415Y14903
X62415Y13872
X62415Y11903
X62415Y10872
X62415Y8903
X62415Y7872
X62415Y5903
X62415Y4872
X62415Y2903
T06
X59227Y21762
X59227Y22762
X59227Y23762
X59227Y24762
X59227Y25762
X59227Y26762
X59227Y27762
X59227Y28762
T07
X61430Y18887
X61430Y15887
X61430Y12887
X61430Y9887
X61430Y6887
X61430Y3887
X5727Y24903
X5727Y26872
T08
X5040Y18637
X5040Y16637
T09
X10040Y15787
X10040Y17637
X10040Y19487
T10
X6897Y3357
X12574Y10251
X6897Y13167
X12574Y21793
X55343Y21793
X55343Y10250
M30
